M48
; DRILL file {KiCad (5.1.9)-1} date 04/08/21 22:59:51
; FORMAT={-:-/ absolute / inch / decimal}
; #@! TF.CreationDate,2021-04-08T22:59:51+09:00
; #@! TF.GenerationSoftware,Kicad,Pcbnew,(5.1.9)-1
FMAT,2
INCH
T1C0.0118
T2C0.0374
T3C0.0394
T4C0.0402
T5C0.0500
T6C0.0618
T7C0.0906
T8C0.1280
%
G90
G05
T1
X-2.935Y4.265
X-2.935Y4.165
X-2.935Y4.065
X-2.935Y3.965
X-2.935Y3.865
X-2.935Y3.765
X-2.935Y3.665
X-2.935Y3.565
X-2.935Y3.465
X-2.935Y3.365
X-2.935Y3.265
X-2.935Y3.165
X-2.935Y3.065
X-2.935Y2.965
X-2.935Y2.865
X-2.935Y2.765
X-2.935Y2.665
X-2.935Y2.565
X-2.935Y2.465
X-2.935Y2.365
X-2.935Y2.265
X-2.935Y2.165
X-2.935Y2.065
X-2.935Y1.965
X-2.935Y1.865
X-2.935Y1.765
X-2.935Y1.665
X-2.935Y1.565
X-2.935Y1.465
X-2.935Y1.365
X-2.935Y1.265
X-2.935Y1.165
X-2.935Y1.065
X-2.935Y0.965
X-2.935Y0.865
X-2.935Y0.765
X-2.935Y0.665
X-2.935Y0.565
X-2.865Y0.565
X-2.765Y0.565
X-2.665Y4.265
X-2.665Y0.565
X-2.565Y4.265
X-2.565Y0.565
X-2.465Y4.265
X-2.465Y0.565
X-2.365Y4.265
X-2.365Y0.565
X-2.3Y1.45
X-2.265Y4.265
X-2.265Y0.565
X-2.2Y0.98
X-2.2Y0.78
X-2.165Y4.265
X-2.165Y0.565
X-2.0992Y3.2477
X-2.0992Y3.1308
X-2.065Y4.265
X-2.065Y0.565
X-1.965Y4.265
X-1.965Y0.565
X-1.865Y4.265
X-1.865Y0.565
X-1.82Y0.99
X-1.8022Y0.6828
X-1.7678Y1.2322
X-1.765Y4.265
X-1.765Y0.565
X-1.665Y4.265
X-1.665Y0.565
X-1.6Y1.45
X-1.57Y1.19
X-1.565Y4.265
X-1.565Y0.565
X-1.5474Y1.9451
X-1.5474Y1.7001
X-1.5205Y1.2395
X-1.52Y2.04
X-1.52Y1.21
X-1.5Y1.18
X-1.465Y4.265
X-1.465Y0.565
X-1.46Y1.06
X-1.44Y1.84
X-1.4111Y1.0711
X-1.41Y3.065
X-1.41Y1.84
X-1.365Y4.265
X-1.365Y0.565
X-1.35Y1.7725
X-1.325Y2.9143
X-1.325Y2.8356
X-1.325Y2.7568
X-1.325Y2.6781
X-1.325Y2.5993
X-1.325Y2.5206
X-1.325Y1.85
X-1.3225Y2.3475
X-1.32Y2.45
X-1.29Y2.3475
X-1.29Y1.75
X-1.275Y0.9
X-1.2702Y0.7298
X-1.27Y2.9143
X-1.27Y2.8125
X-1.27Y2.615
X-1.27Y2.52
X-1.27Y2.4425
X-1.27Y2.2443
X-1.27Y2.1656
X-1.27Y2.0868
X-1.27Y2.0081
X-1.265Y4.265
X-1.265Y0.565
X-1.26Y1.75
X-1.1706Y3.0644
X-1.165Y4.265
X-1.165Y0.565
X-1.14Y2.59
X-1.14Y2.45
X-1.1175Y1.835
X-1.08Y1.85
X-1.065Y4.265
X-1.065Y0.565
X-1.04Y0.8
X-1.0Y0.76
X-0.965Y4.265
X-0.965Y0.565
X-0.865Y4.265
X-0.865Y0.565
X-0.86Y0.8
X-0.765Y4.265
X-0.765Y0.565
X-0.665Y4.265
X-0.665Y0.565
X-0.565Y4.265
X-0.565Y0.565
X-0.465Y4.265
X-0.465Y0.565
X-0.365Y4.265
X-0.365Y0.565
X-0.265Y4.265
X-0.265Y0.565
X-0.165Y4.265
X-0.165Y0.565
X-0.115Y2.391
X-0.065Y4.265
X-0.065Y0.565
X-0.064Y2.391
X-0.0519Y2.1669
X-0.0358Y2.3053
X-0.0358Y2.2717
X-0.0281Y2.1431
X-0.01Y2.9375
X-0.01Y2.8425
X0.0081Y2.1219
X0.02Y2.9375
X0.02Y2.8425
X0.0319Y2.0981
X0.035Y4.265
X0.035Y0.565
X0.1027Y2.7373
X0.105Y2.52
X0.1056Y2.5956
X0.1132Y2.07
X0.135Y4.265
X0.135Y0.565
X0.1468Y2.07
X0.2184Y3.0766
X0.2188Y3.1238
X0.2189Y3.3128
X0.2189Y3.2656
X0.2189Y3.2183
X0.2189Y3.1711
X0.2199Y2.3751
X0.22Y2.7673
X0.22Y2.48
X0.22Y2.3121
X0.22Y2.2649
X0.2222Y2.6428
X0.23Y2.195
X0.2328Y2.52
X0.235Y4.265
X0.235Y0.565
X0.2356Y2.5956
X0.2373Y2.7373
X0.25Y1.5
X0.2678Y3.3128
X0.2683Y3.2656
X0.2683Y3.2183
X0.2684Y3.0766
X0.2688Y3.1238
X0.2689Y3.1711
X0.27Y2.715
X0.27Y2.415
X0.2701Y2.2649
X0.2709Y2.5641
X0.2722Y2.6428
X0.2775Y1.355
X0.335Y4.265
X0.335Y0.565
X0.38Y3.015
X0.38Y2.93
X0.3875Y1.27
X0.435Y4.265
X0.435Y0.565
X0.535Y0.565
X0.5851Y2.055
X0.615Y2.21
X0.615Y2.13
X0.625Y2.08
X0.635Y0.565
X0.655Y2.13
X0.67Y2.21
X0.725Y2.115
X0.735Y4.265
X0.735Y4.165
X0.735Y4.065
X0.735Y3.965
X0.735Y3.865
X0.735Y3.765
X0.735Y3.665
X0.735Y3.565
X0.735Y3.465
X0.735Y3.365
X0.735Y3.265
X0.735Y3.165
X0.735Y3.065
X0.735Y2.965
X0.735Y2.865
X0.735Y2.765
X0.735Y2.665
X0.735Y2.565
X0.735Y2.465
X0.735Y2.365
X0.735Y2.265
X0.735Y2.165
X0.735Y2.065
X0.735Y1.965
X0.735Y1.865
X0.735Y1.765
X0.735Y1.665
X0.735Y1.565
X0.735Y1.465
X0.735Y1.365
X0.735Y1.265
X0.735Y1.165
X0.735Y1.065
X0.735Y0.965
X0.735Y0.865
X0.735Y0.765
X0.735Y0.665
X0.735Y0.565
T2
X-1.42Y0.785
X-1.3216Y0.785
X-1.2231Y0.785
X-1.1247Y0.785
T3
X-2.6Y0.98
X-2.6Y0.78
X-2.5Y1.35
X-2.5Y0.98
X-2.5Y0.78
X-2.4994Y3.6012
X-2.4994Y3.5012
X-2.4994Y1.9028
X-2.4994Y1.8028
X-2.4Y1.35
X-2.4Y0.98
X-2.4Y0.78
X-2.3994Y3.6012
X-2.3994Y3.5012
X-2.3994Y1.9028
X-2.3994Y1.8028
X-2.3Y1.35
X-2.3Y0.98
X-2.3Y0.78
X-2.2994Y3.6012
X-2.2994Y3.5012
X-2.2994Y1.9028
X-2.2994Y1.8028
X-2.1994Y3.6012
X-2.1994Y3.5012
X-2.1994Y1.9028
X-2.1994Y1.8028
X-2.0994Y3.6012
X-2.0994Y3.5012
X-2.0994Y1.9028
X-2.0994Y1.8028
X-1.9994Y3.6012
X-1.9994Y3.5012
X-1.9994Y1.9028
X-1.9994Y1.8028
X-1.93Y0.86
X-1.93Y0.6828
X-1.8994Y3.6012
X-1.8994Y3.5012
X-1.8994Y1.9028
X-1.8994Y1.8028
X-1.8Y1.35
X-1.7994Y3.6012
X-1.7994Y3.5012
X-1.7994Y1.9028
X-1.7994Y1.8028
X-1.7Y1.35
X-1.6994Y3.6012
X-1.6994Y3.5012
X-1.6994Y1.9028
X-1.6994Y1.8028
X-1.6741Y0.86
X-1.6741Y0.6828
X-1.6Y1.35
X-1.5994Y3.6012
X-1.5994Y3.5012
X-1.5994Y1.9028
X-1.5994Y1.8028
T4
X-0.48Y1.41
X-0.44Y1.31
X-0.4Y1.41
X-0.36Y1.31
X-0.32Y1.41
X-0.28Y1.31
X-0.2Y1.31
X-0.16Y1.41
X-0.12Y1.31
X-0.08Y1.41
X-0.04Y1.31
X0.0Y1.41
T5
X-0.536Y0.9
X-0.536Y0.8
X-0.536Y0.7
X0.056Y0.8
X0.056Y0.7
T6
X-0.586Y1.05
X0.106Y1.05
T7
X-1.2955Y3.3917
X0.2399Y1.9743
T8
X-0.43Y1.05
X-0.05Y1.05
T0
M30
