G04 #@! TF.GenerationSoftware,KiCad,Pcbnew,(5.1.9)-1*
G04 #@! TF.CreationDate,2021-04-08T22:59:59+09:00*
G04 #@! TF.ProjectId,EA1176_TiGANBoard,45413131-3736-45f5-9469-47414e426f61,rev?*
G04 #@! TF.SameCoordinates,Original*
G04 #@! TF.FileFunction,Soldermask,Top*
G04 #@! TF.FilePolarity,Negative*
%FSLAX46Y46*%
G04 Gerber Fmt 4.6, Leading zero omitted, Abs format (unit mm)*
G04 Created by KiCad (PCBNEW (5.1.9)-1) date 2021-04-08 22:59:59*
%MOMM*%
%LPD*%
G01*
G04 APERTURE LIST*
%ADD10R,0.711200X0.228600*%
%ADD11C,5.000000*%
%ADD12O,1.700000X1.700000*%
%ADD13R,1.700000X1.700000*%
%ADD14R,0.740000X2.400000*%
%ADD15C,1.530000*%
%ADD16R,1.530000X1.530000*%
%ADD17C,1.905000*%
%ADD18C,3.250000*%
%ADD19C,2.355000*%
%ADD20R,0.900000X0.800000*%
%ADD21O,1.700000X1.950000*%
%ADD22R,0.400000X1.060000*%
%ADD23C,1.700000*%
%ADD24R,0.700000X0.600000*%
%ADD25R,0.500000X0.375000*%
%ADD26R,0.650000X0.300000*%
%ADD27R,0.375000X0.500000*%
%ADD28R,0.300000X0.650000*%
G04 APERTURE END LIST*
D10*
X-31365701Y74823198D03*
X-34445699Y67223201D03*
X-34445699Y75623199D03*
X-31365701Y79623199D03*
X-34445699Y76023199D03*
X-34445699Y62423200D03*
X-31365701Y67623200D03*
X-31365701Y61623202D03*
X-34445699Y68823200D03*
X-34445699Y76823199D03*
X-34445699Y78823198D03*
X-34445699Y78423199D03*
X-34445699Y77223199D03*
X-34445699Y76423200D03*
X-31365701Y70023200D03*
X-34445699Y64823201D03*
X-34445699Y75223200D03*
X-34445699Y74823198D03*
X-31365701Y64423201D03*
X-31365701Y66823199D03*
X-31365701Y64023200D03*
X-31365701Y72023199D03*
X-31365701Y74023200D03*
X-34445699Y70423200D03*
X-34445699Y70023200D03*
X-31365701Y63223201D03*
X-34445699Y78023200D03*
X-31365701Y76823199D03*
X-34445699Y63623201D03*
X-31365701Y60423202D03*
X-31365701Y60823201D03*
X-31365701Y79223200D03*
X-31365701Y78423199D03*
X-31365701Y69223199D03*
X-34445699Y77623198D03*
X-31365701Y78023200D03*
X-31365701Y71223201D03*
X-34445699Y69223199D03*
X-34445699Y72423201D03*
X-31365701Y62823200D03*
X-31365701Y73623198D03*
X-34445699Y63223201D03*
X-34445699Y64023200D03*
X-31365701Y64823201D03*
X-34445699Y79223200D03*
X-34445699Y70823199D03*
X-31365701Y78823198D03*
X-31365701Y61223200D03*
X-31365701Y75623199D03*
X-34445699Y60423202D03*
X-34445699Y61223200D03*
X-31365701Y77223199D03*
X-34445699Y79623199D03*
X-31365701Y66023201D03*
X-31365701Y70823199D03*
X-31365701Y70423200D03*
X-31365701Y69623199D03*
X-31365701Y77623198D03*
X-31365701Y63623201D03*
X-31365701Y76423200D03*
X-34445699Y68423201D03*
X-34445699Y62823200D03*
X-31365701Y68423201D03*
X-34445699Y69623199D03*
X-34445699Y64423201D03*
X-34445699Y74423199D03*
X-34445699Y60823201D03*
X-34445699Y71623200D03*
X-34445699Y74023200D03*
X-31365701Y76023199D03*
X-31365701Y75223200D03*
X-31365701Y65223200D03*
X-34445699Y65623202D03*
X-31365701Y73223199D03*
X-31365701Y80023198D03*
X-34445699Y80023198D03*
X-34445699Y72823200D03*
X-34445699Y66823199D03*
X-34445699Y71223201D03*
X-31365701Y67223201D03*
X-34445699Y62023201D03*
X-34445699Y72023199D03*
X-34445699Y73223199D03*
X-31365701Y68823200D03*
X-34445699Y68023199D03*
X-31365701Y65623202D03*
X-31365701Y74423199D03*
X-34445699Y66423200D03*
X-31365701Y62023201D03*
X-31365701Y72423201D03*
X-31365701Y68023199D03*
X-34445699Y66023201D03*
X-34445699Y67623200D03*
X-34445699Y73623198D03*
X-31365701Y62423200D03*
X-31365701Y66423200D03*
X-34445699Y65223200D03*
X-34445699Y61623202D03*
X-31365701Y71623200D03*
X-31365701Y72823200D03*
X-34445699Y53005200D03*
X-31365701Y56205199D03*
X-31365701Y49405200D03*
X-34445699Y53405200D03*
X-31365701Y55405201D03*
X-31365701Y52205199D03*
X-31365701Y53405200D03*
X-31365701Y53805199D03*
X-34445699Y49805199D03*
X-34445699Y55005199D03*
X-34445699Y51005199D03*
X-34445699Y54605200D03*
X-34445699Y50205201D03*
X-34445699Y55405201D03*
X-31365701Y57005200D03*
X-34445699Y55805200D03*
X-31365701Y54205201D03*
X-34445699Y57005200D03*
X-31365701Y55005199D03*
X-31365701Y49805199D03*
X-31365701Y53005200D03*
X-34445699Y49405200D03*
X-31365701Y51805200D03*
X-31365701Y54605200D03*
X-34445699Y52605201D03*
X-34445699Y53805199D03*
X-31365701Y50605200D03*
X-34445699Y52205199D03*
X-34445699Y56205199D03*
X-31365701Y56605198D03*
X-31365701Y52605201D03*
X-31365701Y50205201D03*
X-34445699Y51405201D03*
X-34445699Y51805200D03*
X-31365701Y51005199D03*
X-34445699Y50605200D03*
X-31365701Y55805200D03*
X-34445699Y56605198D03*
X-31365701Y51405201D03*
X-34445699Y54205201D03*
X4670301Y69927199D03*
X4670301Y55127200D03*
X7750299Y61527200D03*
X7750299Y55527202D03*
X4670301Y64727199D03*
X4670301Y69127200D03*
X7750299Y73527199D03*
X4670301Y63927200D03*
X4670301Y61127201D03*
X7750299Y68727198D03*
X7750299Y67127199D03*
X7750299Y69527199D03*
X4670301Y73127200D03*
X7750299Y73127200D03*
X4670301Y54327202D03*
X4670301Y72327199D03*
X4670301Y69527199D03*
X7750299Y73927198D03*
X4670301Y72727198D03*
X4670301Y64327200D03*
X4670301Y71527198D03*
X7750299Y57527201D03*
X4670301Y71127199D03*
X4670301Y56327200D03*
X4670301Y58727201D03*
X4670301Y62727200D03*
X4670301Y70327200D03*
X4670301Y70727199D03*
X7750299Y70727199D03*
X4670301Y54727201D03*
X7750299Y72327199D03*
X4670301Y58327201D03*
X7750299Y69127200D03*
X7750299Y64327200D03*
X7750299Y56327200D03*
X4670301Y56727200D03*
X4670301Y66327201D03*
X7750299Y63527199D03*
X4670301Y65527200D03*
X7750299Y59127200D03*
X4670301Y63527199D03*
X4670301Y66727200D03*
X4670301Y65127201D03*
X7750299Y59527202D03*
X7750299Y62327201D03*
X4670301Y60727199D03*
X4670301Y55927201D03*
X4670301Y61527200D03*
X7750299Y71527198D03*
X7750299Y70327200D03*
X4670301Y60327200D03*
X7750299Y69927199D03*
X7750299Y54727201D03*
X4670301Y67527198D03*
X7750299Y61927199D03*
X7750299Y67927200D03*
X7750299Y54327202D03*
X7750299Y71927200D03*
X7750299Y65927199D03*
X7750299Y65527200D03*
X4670301Y62327201D03*
X7750299Y68327199D03*
X7750299Y66327201D03*
X7750299Y55927201D03*
X4670301Y73527199D03*
X7750299Y58327201D03*
X4670301Y73927198D03*
X4670301Y63127199D03*
X7750299Y63927200D03*
X7750299Y72727198D03*
X4670301Y57927200D03*
X7750299Y56727200D03*
X4670301Y59127200D03*
X7750299Y64727199D03*
X7750299Y59927201D03*
X4670301Y68727198D03*
X7750299Y58727201D03*
X7750299Y57927200D03*
X7750299Y60727199D03*
X7750299Y57127201D03*
X4670301Y55527202D03*
X4670301Y59527202D03*
X7750299Y67527198D03*
X4670301Y67927200D03*
X7750299Y63127199D03*
X4670301Y57127201D03*
X7750299Y61127201D03*
X4670301Y65927199D03*
X7750299Y60327200D03*
X7750299Y65127201D03*
X4670301Y61927199D03*
X4670301Y71927200D03*
X4670301Y57527201D03*
X7750299Y71127199D03*
X4670301Y68327199D03*
X7750299Y55127200D03*
X4670301Y67127199D03*
X4670301Y59927201D03*
X7750299Y66727200D03*
X7750299Y62727200D03*
X4670301Y80945200D03*
X7750299Y84145199D03*
X7750299Y77345200D03*
X4670301Y81345200D03*
X7750299Y83345201D03*
X7750299Y80145199D03*
X7750299Y81345200D03*
X7750299Y81745199D03*
X4670301Y77745199D03*
X4670301Y82945199D03*
X4670301Y78945199D03*
X4670301Y82545200D03*
X4670301Y78145201D03*
X4670301Y83345201D03*
X7750299Y84945200D03*
X4670301Y83745200D03*
X7750299Y82145201D03*
X4670301Y84945200D03*
X7750299Y82945199D03*
X7750299Y77745199D03*
X7750299Y80945200D03*
X4670301Y77345200D03*
X7750299Y79745200D03*
X7750299Y82545200D03*
X4670301Y80545201D03*
X4670301Y81745199D03*
X7750299Y78545200D03*
X4670301Y80145199D03*
X4670301Y84145199D03*
X7750299Y84545198D03*
X7750299Y80545201D03*
X7750299Y78145201D03*
X4670301Y79345201D03*
X4670301Y79745200D03*
X7750299Y78945199D03*
X4670301Y78545200D03*
X7750299Y83745200D03*
X4670301Y84545198D03*
X7750299Y79345201D03*
X4670301Y82145201D03*
D11*
X-32905700Y86148200D03*
X6094300Y50148200D03*
D12*
X-43165000Y91470000D03*
X-40625000Y91470000D03*
X-43165000Y88930000D03*
X-40625000Y88930000D03*
X-58405000Y88930000D03*
X-45705000Y91470000D03*
X-45705000Y88930000D03*
X-48245000Y91470000D03*
X-48245000Y88930000D03*
X-50785000Y91470000D03*
X-63485000Y91470000D03*
X-50785000Y88930000D03*
X-53325000Y91470000D03*
X-60945000Y91470000D03*
X-53325000Y88930000D03*
X-55865000Y91470000D03*
X-55865000Y88930000D03*
X-58405000Y91470000D03*
X-60945000Y88930000D03*
D13*
X-63485000Y88930000D03*
D12*
X-58405000Y45790000D03*
X-45705000Y45790000D03*
X-50785000Y48330000D03*
X-43165000Y48330000D03*
X-48245000Y45790000D03*
X-40625000Y45790000D03*
X-55865000Y45790000D03*
D13*
X-63485000Y45790000D03*
D12*
X-45705000Y48330000D03*
X-60945000Y45790000D03*
X-48245000Y48330000D03*
X-43165000Y45790000D03*
X-58405000Y48330000D03*
X-55865000Y48330000D03*
X-50785000Y45790000D03*
X-40625000Y48330000D03*
X-53325000Y45790000D03*
X-60945000Y48330000D03*
X-53325000Y48330000D03*
X-63485000Y48330000D03*
D14*
X7874000Y25990000D03*
X7874000Y29890000D03*
X9144000Y25990000D03*
X9144000Y29890000D03*
X10414000Y25990000D03*
X10414000Y29890000D03*
X11684000Y25990000D03*
X11684000Y29890000D03*
X12954000Y25990000D03*
X12954000Y29890000D03*
G36*
G01*
X6520000Y36649000D02*
X6180000Y36649000D01*
G75*
G02*
X6040000Y36789000I0J140000D01*
G01*
X6040000Y37069000D01*
G75*
G02*
X6180000Y37209000I140000J0D01*
G01*
X6520000Y37209000D01*
G75*
G02*
X6660000Y37069000I0J-140000D01*
G01*
X6660000Y36789000D01*
G75*
G02*
X6520000Y36649000I-140000J0D01*
G01*
G37*
G36*
G01*
X6520000Y35689000D02*
X6180000Y35689000D01*
G75*
G02*
X6040000Y35829000I0J140000D01*
G01*
X6040000Y36109000D01*
G75*
G02*
X6180000Y36249000I140000J0D01*
G01*
X6520000Y36249000D01*
G75*
G02*
X6660000Y36109000I0J-140000D01*
G01*
X6660000Y35829000D01*
G75*
G02*
X6520000Y35689000I-140000J0D01*
G01*
G37*
D15*
X-12192000Y35814000D03*
X0Y35814000D03*
X-11176000Y33274000D03*
D16*
X-1016000Y33274000D03*
D17*
X-13614400Y17780000D03*
D15*
X-4064000Y35814000D03*
X-2032000Y35814000D03*
X-5080000Y33274000D03*
X-3048000Y33274000D03*
D18*
X-10922000Y26670000D03*
X-1270000Y26670000D03*
D17*
X-13614400Y20320000D03*
X-13614400Y22860000D03*
X1422400Y17780000D03*
X1422400Y20320000D03*
D15*
X-7112000Y33274000D03*
X-8128000Y35814000D03*
X-9144000Y33274000D03*
X-10160000Y35814000D03*
D19*
X-14884400Y26670000D03*
X2692400Y26670000D03*
D20*
X-21860000Y17780000D03*
X-23860000Y16830000D03*
X-23860000Y18730000D03*
X-23860000Y23810000D03*
X-23860000Y21910000D03*
X-21860000Y22860000D03*
G36*
G01*
X-18270000Y17965000D02*
X-18270000Y17595000D01*
G75*
G02*
X-18405000Y17460000I-135000J0D01*
G01*
X-18675000Y17460000D01*
G75*
G02*
X-18810000Y17595000I0J135000D01*
G01*
X-18810000Y17965000D01*
G75*
G02*
X-18675000Y18100000I135000J0D01*
G01*
X-18405000Y18100000D01*
G75*
G02*
X-18270000Y17965000I0J-135000D01*
G01*
G37*
G36*
G01*
X-19290000Y17965000D02*
X-19290000Y17595000D01*
G75*
G02*
X-19425000Y17460000I-135000J0D01*
G01*
X-19695000Y17460000D01*
G75*
G02*
X-19830000Y17595000I0J135000D01*
G01*
X-19830000Y17965000D01*
G75*
G02*
X-19695000Y18100000I135000J0D01*
G01*
X-19425000Y18100000D01*
G75*
G02*
X-19290000Y17965000I0J-135000D01*
G01*
G37*
G36*
G01*
X-19290000Y23045000D02*
X-19290000Y22675000D01*
G75*
G02*
X-19425000Y22540000I-135000J0D01*
G01*
X-19695000Y22540000D01*
G75*
G02*
X-19830000Y22675000I0J135000D01*
G01*
X-19830000Y23045000D01*
G75*
G02*
X-19695000Y23180000I135000J0D01*
G01*
X-19425000Y23180000D01*
G75*
G02*
X-19290000Y23045000I0J-135000D01*
G01*
G37*
G36*
G01*
X-18270000Y23045000D02*
X-18270000Y22675000D01*
G75*
G02*
X-18405000Y22540000I-135000J0D01*
G01*
X-18675000Y22540000D01*
G75*
G02*
X-18810000Y22675000I0J135000D01*
G01*
X-18810000Y23045000D01*
G75*
G02*
X-18675000Y23180000I135000J0D01*
G01*
X-18405000Y23180000D01*
G75*
G02*
X-18270000Y23045000I0J-135000D01*
G01*
G37*
G36*
G01*
X6789000Y18528000D02*
X6419000Y18528000D01*
G75*
G02*
X6284000Y18663000I0J135000D01*
G01*
X6284000Y18933000D01*
G75*
G02*
X6419000Y19068000I135000J0D01*
G01*
X6789000Y19068000D01*
G75*
G02*
X6924000Y18933000I0J-135000D01*
G01*
X6924000Y18663000D01*
G75*
G02*
X6789000Y18528000I-135000J0D01*
G01*
G37*
G36*
G01*
X6789000Y17508000D02*
X6419000Y17508000D01*
G75*
G02*
X6284000Y17643000I0J135000D01*
G01*
X6284000Y17913000D01*
G75*
G02*
X6419000Y18048000I135000J0D01*
G01*
X6789000Y18048000D01*
G75*
G02*
X6924000Y17913000I0J-135000D01*
G01*
X6924000Y17643000D01*
G75*
G02*
X6789000Y17508000I-135000J0D01*
G01*
G37*
G36*
G01*
X-36152000Y29410000D02*
X-36492000Y29410000D01*
G75*
G02*
X-36632000Y29550000I0J140000D01*
G01*
X-36632000Y29830000D01*
G75*
G02*
X-36492000Y29970000I140000J0D01*
G01*
X-36152000Y29970000D01*
G75*
G02*
X-36012000Y29830000I0J-140000D01*
G01*
X-36012000Y29550000D01*
G75*
G02*
X-36152000Y29410000I-140000J0D01*
G01*
G37*
G36*
G01*
X-36152000Y28450000D02*
X-36492000Y28450000D01*
G75*
G02*
X-36632000Y28590000I0J140000D01*
G01*
X-36632000Y28870000D01*
G75*
G02*
X-36492000Y29010000I140000J0D01*
G01*
X-36152000Y29010000D01*
G75*
G02*
X-36012000Y28870000I0J-140000D01*
G01*
X-36012000Y28590000D01*
G75*
G02*
X-36152000Y28450000I-140000J0D01*
G01*
G37*
G36*
G01*
X-35136000Y29410000D02*
X-35476000Y29410000D01*
G75*
G02*
X-35616000Y29550000I0J140000D01*
G01*
X-35616000Y29830000D01*
G75*
G02*
X-35476000Y29970000I140000J0D01*
G01*
X-35136000Y29970000D01*
G75*
G02*
X-34996000Y29830000I0J-140000D01*
G01*
X-34996000Y29550000D01*
G75*
G02*
X-35136000Y29410000I-140000J0D01*
G01*
G37*
G36*
G01*
X-35136000Y28450000D02*
X-35476000Y28450000D01*
G75*
G02*
X-35616000Y28590000I0J140000D01*
G01*
X-35616000Y28870000D01*
G75*
G02*
X-35476000Y29010000I140000J0D01*
G01*
X-35136000Y29010000D01*
G75*
G02*
X-34996000Y28870000I0J-140000D01*
G01*
X-34996000Y28590000D01*
G75*
G02*
X-35136000Y28450000I-140000J0D01*
G01*
G37*
G36*
G01*
X-32215000Y23497000D02*
X-32555000Y23497000D01*
G75*
G02*
X-32695000Y23637000I0J140000D01*
G01*
X-32695000Y23917000D01*
G75*
G02*
X-32555000Y24057000I140000J0D01*
G01*
X-32215000Y24057000D01*
G75*
G02*
X-32075000Y23917000I0J-140000D01*
G01*
X-32075000Y23637000D01*
G75*
G02*
X-32215000Y23497000I-140000J0D01*
G01*
G37*
G36*
G01*
X-32215000Y24457000D02*
X-32555000Y24457000D01*
G75*
G02*
X-32695000Y24597000I0J140000D01*
G01*
X-32695000Y24877000D01*
G75*
G02*
X-32555000Y25017000I140000J0D01*
G01*
X-32215000Y25017000D01*
G75*
G02*
X-32075000Y24877000I0J-140000D01*
G01*
X-32075000Y24597000D01*
G75*
G02*
X-32215000Y24457000I-140000J0D01*
G01*
G37*
D12*
X-40640000Y34290000D03*
X-43180000Y34290000D03*
D13*
X-45720000Y34290000D03*
D21*
X-28568000Y19939000D03*
X-31068000Y19939000D03*
X-33568000Y19939000D03*
G36*
G01*
X-36918000Y19214000D02*
X-36918000Y20664000D01*
G75*
G02*
X-36668000Y20914000I250000J0D01*
G01*
X-35468000Y20914000D01*
G75*
G02*
X-35218000Y20664000I0J-250000D01*
G01*
X-35218000Y19214000D01*
G75*
G02*
X-35468000Y18964000I-250000J0D01*
G01*
X-36668000Y18964000D01*
G75*
G02*
X-36918000Y19214000I0J250000D01*
G01*
G37*
G36*
G01*
X-31228000Y25839000D02*
X-31228000Y25469000D01*
G75*
G02*
X-31363000Y25334000I-135000J0D01*
G01*
X-31633000Y25334000D01*
G75*
G02*
X-31768000Y25469000I0J135000D01*
G01*
X-31768000Y25839000D01*
G75*
G02*
X-31633000Y25974000I135000J0D01*
G01*
X-31363000Y25974000D01*
G75*
G02*
X-31228000Y25839000I0J-135000D01*
G01*
G37*
G36*
G01*
X-30208000Y25839000D02*
X-30208000Y25469000D01*
G75*
G02*
X-30343000Y25334000I-135000J0D01*
G01*
X-30613000Y25334000D01*
G75*
G02*
X-30748000Y25469000I0J135000D01*
G01*
X-30748000Y25839000D01*
G75*
G02*
X-30613000Y25974000I135000J0D01*
G01*
X-30343000Y25974000D01*
G75*
G02*
X-30208000Y25839000I0J-135000D01*
G01*
G37*
G36*
G01*
X-33002000Y25839000D02*
X-33002000Y25469000D01*
G75*
G02*
X-33137000Y25334000I-135000J0D01*
G01*
X-33407000Y25334000D01*
G75*
G02*
X-33542000Y25469000I0J135000D01*
G01*
X-33542000Y25839000D01*
G75*
G02*
X-33407000Y25974000I135000J0D01*
G01*
X-33137000Y25974000D01*
G75*
G02*
X-33002000Y25839000I0J-135000D01*
G01*
G37*
G36*
G01*
X-34022000Y25839000D02*
X-34022000Y25469000D01*
G75*
G02*
X-34157000Y25334000I-135000J0D01*
G01*
X-34427000Y25334000D01*
G75*
G02*
X-34562000Y25469000I0J135000D01*
G01*
X-34562000Y25839000D01*
G75*
G02*
X-34427000Y25974000I135000J0D01*
G01*
X-34157000Y25974000D01*
G75*
G02*
X-34022000Y25839000I0J-135000D01*
G01*
G37*
D22*
X-31405000Y28237000D03*
X-32055000Y28237000D03*
X-32715000Y28237000D03*
X-33365000Y28237000D03*
X-33365000Y30437000D03*
X-32715000Y30437000D03*
X-32055000Y30437000D03*
X-31405000Y30437000D03*
D12*
X-58420000Y34290000D03*
X-60960000Y34290000D03*
D13*
X-63500000Y34290000D03*
X-66040000Y19812000D03*
X-60960000Y19812000D03*
X-63500000Y19812000D03*
X-58420000Y19812000D03*
G36*
G01*
X-44904000Y25316000D02*
X-44904000Y24976000D01*
G75*
G02*
X-45044000Y24836000I-140000J0D01*
G01*
X-45324000Y24836000D01*
G75*
G02*
X-45464000Y24976000I0J140000D01*
G01*
X-45464000Y25316000D01*
G75*
G02*
X-45324000Y25456000I140000J0D01*
G01*
X-45044000Y25456000D01*
G75*
G02*
X-44904000Y25316000I0J-140000D01*
G01*
G37*
G36*
G01*
X-43944000Y25316000D02*
X-43944000Y24976000D01*
G75*
G02*
X-44084000Y24836000I-140000J0D01*
G01*
X-44364000Y24836000D01*
G75*
G02*
X-44504000Y24976000I0J140000D01*
G01*
X-44504000Y25316000D01*
G75*
G02*
X-44364000Y25456000I140000J0D01*
G01*
X-44084000Y25456000D01*
G75*
G02*
X-43944000Y25316000I0J-140000D01*
G01*
G37*
G36*
G01*
X-40201000Y26910000D02*
X-40571000Y26910000D01*
G75*
G02*
X-40706000Y27045000I0J135000D01*
G01*
X-40706000Y27315000D01*
G75*
G02*
X-40571000Y27450000I135000J0D01*
G01*
X-40201000Y27450000D01*
G75*
G02*
X-40066000Y27315000I0J-135000D01*
G01*
X-40066000Y27045000D01*
G75*
G02*
X-40201000Y26910000I-135000J0D01*
G01*
G37*
G36*
G01*
X-40201000Y25890000D02*
X-40571000Y25890000D01*
G75*
G02*
X-40706000Y26025000I0J135000D01*
G01*
X-40706000Y26295000D01*
G75*
G02*
X-40571000Y26430000I135000J0D01*
G01*
X-40201000Y26430000D01*
G75*
G02*
X-40066000Y26295000I0J-135000D01*
G01*
X-40066000Y26025000D01*
G75*
G02*
X-40201000Y25890000I-135000J0D01*
G01*
G37*
G36*
G01*
X-42233000Y24859001D02*
X-42603000Y24859001D01*
G75*
G02*
X-42738000Y24994001I0J135000D01*
G01*
X-42738000Y25264001D01*
G75*
G02*
X-42603000Y25399001I135000J0D01*
G01*
X-42233000Y25399001D01*
G75*
G02*
X-42098000Y25264001I0J-135000D01*
G01*
X-42098000Y24994001D01*
G75*
G02*
X-42233000Y24859001I-135000J0D01*
G01*
G37*
G36*
G01*
X-42233000Y25879001D02*
X-42603000Y25879001D01*
G75*
G02*
X-42738000Y26014001I0J135000D01*
G01*
X-42738000Y26284001D01*
G75*
G02*
X-42603000Y26419001I135000J0D01*
G01*
X-42233000Y26419001D01*
G75*
G02*
X-42098000Y26284001I0J-135000D01*
G01*
X-42098000Y26014001D01*
G75*
G02*
X-42233000Y25879001I-135000J0D01*
G01*
G37*
D23*
X-49022000Y21844000D03*
X-42522000Y21844000D03*
X-49022000Y17344000D03*
X-42522000Y17344000D03*
D24*
X13970000Y58990000D03*
X13970000Y60390000D03*
G36*
G01*
X12388000Y58434000D02*
X12758000Y58434000D01*
G75*
G02*
X12893000Y58299000I0J-135000D01*
G01*
X12893000Y58029000D01*
G75*
G02*
X12758000Y57894000I-135000J0D01*
G01*
X12388000Y57894000D01*
G75*
G02*
X12253000Y58029000I0J135000D01*
G01*
X12253000Y58299000D01*
G75*
G02*
X12388000Y58434000I135000J0D01*
G01*
G37*
G36*
G01*
X12388000Y59454000D02*
X12758000Y59454000D01*
G75*
G02*
X12893000Y59319000I0J-135000D01*
G01*
X12893000Y59049000D01*
G75*
G02*
X12758000Y58914000I-135000J0D01*
G01*
X12388000Y58914000D01*
G75*
G02*
X12253000Y59049000I0J135000D01*
G01*
X12253000Y59319000D01*
G75*
G02*
X12388000Y59454000I135000J0D01*
G01*
G37*
G36*
G01*
X14591000Y56965000D02*
X14591000Y57335000D01*
G75*
G02*
X14726000Y57470000I135000J0D01*
G01*
X14996000Y57470000D01*
G75*
G02*
X15131000Y57335000I0J-135000D01*
G01*
X15131000Y56965000D01*
G75*
G02*
X14996000Y56830000I-135000J0D01*
G01*
X14726000Y56830000D01*
G75*
G02*
X14591000Y56965000I0J135000D01*
G01*
G37*
G36*
G01*
X13571000Y56965000D02*
X13571000Y57335000D01*
G75*
G02*
X13706000Y57470000I135000J0D01*
G01*
X13976000Y57470000D01*
G75*
G02*
X14111000Y57335000I0J-135000D01*
G01*
X14111000Y56965000D01*
G75*
G02*
X13976000Y56830000I-135000J0D01*
G01*
X13706000Y56830000D01*
G75*
G02*
X13571000Y56965000I0J135000D01*
G01*
G37*
G36*
G01*
X13571000Y55949000D02*
X13571000Y56319000D01*
G75*
G02*
X13706000Y56454000I135000J0D01*
G01*
X13976000Y56454000D01*
G75*
G02*
X14111000Y56319000I0J-135000D01*
G01*
X14111000Y55949000D01*
G75*
G02*
X13976000Y55814000I-135000J0D01*
G01*
X13706000Y55814000D01*
G75*
G02*
X13571000Y55949000I0J135000D01*
G01*
G37*
G36*
G01*
X14591000Y55949000D02*
X14591000Y56319000D01*
G75*
G02*
X14726000Y56454000I135000J0D01*
G01*
X14996000Y56454000D01*
G75*
G02*
X15131000Y56319000I0J-135000D01*
G01*
X15131000Y55949000D01*
G75*
G02*
X14996000Y55814000I-135000J0D01*
G01*
X14726000Y55814000D01*
G75*
G02*
X14591000Y55949000I0J135000D01*
G01*
G37*
G36*
G01*
X14591000Y53917000D02*
X14591000Y54287000D01*
G75*
G02*
X14726000Y54422000I135000J0D01*
G01*
X14996000Y54422000D01*
G75*
G02*
X15131000Y54287000I0J-135000D01*
G01*
X15131000Y53917000D01*
G75*
G02*
X14996000Y53782000I-135000J0D01*
G01*
X14726000Y53782000D01*
G75*
G02*
X14591000Y53917000I0J135000D01*
G01*
G37*
G36*
G01*
X13571000Y53917000D02*
X13571000Y54287000D01*
G75*
G02*
X13706000Y54422000I135000J0D01*
G01*
X13976000Y54422000D01*
G75*
G02*
X14111000Y54287000I0J-135000D01*
G01*
X14111000Y53917000D01*
G75*
G02*
X13976000Y53782000I-135000J0D01*
G01*
X13706000Y53782000D01*
G75*
G02*
X13571000Y53917000I0J135000D01*
G01*
G37*
G36*
G01*
X13571000Y54933000D02*
X13571000Y55303000D01*
G75*
G02*
X13706000Y55438000I135000J0D01*
G01*
X13976000Y55438000D01*
G75*
G02*
X14111000Y55303000I0J-135000D01*
G01*
X14111000Y54933000D01*
G75*
G02*
X13976000Y54798000I-135000J0D01*
G01*
X13706000Y54798000D01*
G75*
G02*
X13571000Y54933000I0J135000D01*
G01*
G37*
G36*
G01*
X14591000Y54933000D02*
X14591000Y55303000D01*
G75*
G02*
X14726000Y55438000I135000J0D01*
G01*
X14996000Y55438000D01*
G75*
G02*
X15131000Y55303000I0J-135000D01*
G01*
X15131000Y54933000D01*
G75*
G02*
X14996000Y54798000I-135000J0D01*
G01*
X14726000Y54798000D01*
G75*
G02*
X14591000Y54933000I0J135000D01*
G01*
G37*
G36*
G01*
X14591000Y52901000D02*
X14591000Y53271000D01*
G75*
G02*
X14726000Y53406000I135000J0D01*
G01*
X14996000Y53406000D01*
G75*
G02*
X15131000Y53271000I0J-135000D01*
G01*
X15131000Y52901000D01*
G75*
G02*
X14996000Y52766000I-135000J0D01*
G01*
X14726000Y52766000D01*
G75*
G02*
X14591000Y52901000I0J135000D01*
G01*
G37*
G36*
G01*
X13571000Y52901000D02*
X13571000Y53271000D01*
G75*
G02*
X13706000Y53406000I135000J0D01*
G01*
X13976000Y53406000D01*
G75*
G02*
X14111000Y53271000I0J-135000D01*
G01*
X14111000Y52901000D01*
G75*
G02*
X13976000Y52766000I-135000J0D01*
G01*
X13706000Y52766000D01*
G75*
G02*
X13571000Y52901000I0J135000D01*
G01*
G37*
D25*
X10248000Y34954500D03*
X10248000Y33879500D03*
D26*
X8473000Y34417000D03*
X10323000Y34417000D03*
D25*
X8548000Y33879500D03*
X8548000Y34954500D03*
D27*
X-42896500Y29122000D03*
X-43971500Y29122000D03*
D28*
X-43434000Y30897000D03*
X-43434000Y29047000D03*
D27*
X-43971500Y30822000D03*
X-42896500Y30822000D03*
D12*
X-58420000Y24892000D03*
X-60960000Y24892000D03*
X-63500000Y24892000D03*
D13*
X-66040000Y24892000D03*
M02*
