G04 #@! TF.GenerationSoftware,KiCad,Pcbnew,(5.1.9)-1*
G04 #@! TF.CreationDate,2021-04-08T22:59:59+09:00*
G04 #@! TF.ProjectId,EA1176_TiGANBoard,45413131-3736-45f5-9469-47414e426f61,rev?*
G04 #@! TF.SameCoordinates,Original*
G04 #@! TF.FileFunction,Soldermask,Bot*
G04 #@! TF.FilePolarity,Negative*
%FSLAX46Y46*%
G04 Gerber Fmt 4.6, Leading zero omitted, Abs format (unit mm)*
G04 Created by KiCad (PCBNEW (5.1.9)-1) date 2021-04-08 22:59:59*
%MOMM*%
%LPD*%
G01*
G04 APERTURE LIST*
%ADD10C,5.000000*%
%ADD11O,1.700000X1.700000*%
%ADD12R,1.700000X1.700000*%
%ADD13C,1.530000*%
%ADD14R,1.530000X1.530000*%
%ADD15C,1.905000*%
%ADD16C,3.250000*%
%ADD17C,2.355000*%
%ADD18O,1.700000X1.950000*%
%ADD19C,1.700000*%
G04 APERTURE END LIST*
D10*
X-32905700Y86148200D03*
X6094300Y50148200D03*
D11*
X-43165000Y91470000D03*
X-40625000Y91470000D03*
X-43165000Y88930000D03*
X-40625000Y88930000D03*
X-58405000Y88930000D03*
X-45705000Y91470000D03*
X-45705000Y88930000D03*
X-48245000Y91470000D03*
X-48245000Y88930000D03*
X-50785000Y91470000D03*
X-63485000Y91470000D03*
X-50785000Y88930000D03*
X-53325000Y91470000D03*
X-60945000Y91470000D03*
X-53325000Y88930000D03*
X-55865000Y91470000D03*
X-55865000Y88930000D03*
X-58405000Y91470000D03*
X-60945000Y88930000D03*
D12*
X-63485000Y88930000D03*
D11*
X-58405000Y45790000D03*
X-45705000Y45790000D03*
X-50785000Y48330000D03*
X-43165000Y48330000D03*
X-48245000Y45790000D03*
X-40625000Y45790000D03*
X-55865000Y45790000D03*
D12*
X-63485000Y45790000D03*
D11*
X-45705000Y48330000D03*
X-60945000Y45790000D03*
X-48245000Y48330000D03*
X-43165000Y45790000D03*
X-58405000Y48330000D03*
X-55865000Y48330000D03*
X-50785000Y45790000D03*
X-40625000Y48330000D03*
X-53325000Y45790000D03*
X-60945000Y48330000D03*
X-53325000Y48330000D03*
X-63485000Y48330000D03*
D13*
X-12192000Y35814000D03*
X0Y35814000D03*
X-11176000Y33274000D03*
D14*
X-1016000Y33274000D03*
D15*
X-13614400Y17780000D03*
D13*
X-4064000Y35814000D03*
X-2032000Y35814000D03*
X-5080000Y33274000D03*
X-3048000Y33274000D03*
D16*
X-10922000Y26670000D03*
X-1270000Y26670000D03*
D15*
X-13614400Y20320000D03*
X-13614400Y22860000D03*
X1422400Y17780000D03*
X1422400Y20320000D03*
D13*
X-7112000Y33274000D03*
X-8128000Y35814000D03*
X-9144000Y33274000D03*
X-10160000Y35814000D03*
D17*
X-14884400Y26670000D03*
X2692400Y26670000D03*
D11*
X-40640000Y34290000D03*
X-43180000Y34290000D03*
D12*
X-45720000Y34290000D03*
D18*
X-28568000Y19939000D03*
X-31068000Y19939000D03*
X-33568000Y19939000D03*
G36*
G01*
X-36918000Y19214000D02*
X-36918000Y20664000D01*
G75*
G02*
X-36668000Y20914000I250000J0D01*
G01*
X-35468000Y20914000D01*
G75*
G02*
X-35218000Y20664000I0J-250000D01*
G01*
X-35218000Y19214000D01*
G75*
G02*
X-35468000Y18964000I-250000J0D01*
G01*
X-36668000Y18964000D01*
G75*
G02*
X-36918000Y19214000I0J250000D01*
G01*
G37*
D11*
X-58420000Y34290000D03*
X-60960000Y34290000D03*
D12*
X-63500000Y34290000D03*
X-66040000Y19812000D03*
X-60960000Y19812000D03*
X-63500000Y19812000D03*
X-58420000Y19812000D03*
D19*
X-49022000Y21844000D03*
X-42522000Y21844000D03*
X-49022000Y17344000D03*
X-42522000Y17344000D03*
D11*
X-58420000Y24892000D03*
X-60960000Y24892000D03*
X-63500000Y24892000D03*
D12*
X-66040000Y24892000D03*
M02*
