G04 #@! TF.GenerationSoftware,KiCad,Pcbnew,(5.1.9)-1*
G04 #@! TF.CreationDate,2021-04-08T22:59:59+09:00*
G04 #@! TF.ProjectId,EA1176_TiGANBoard,45413131-3736-45f5-9469-47414e426f61,rev?*
G04 #@! TF.SameCoordinates,Original*
G04 #@! TF.FileFunction,Copper,L4,Bot*
G04 #@! TF.FilePolarity,Positive*
%FSLAX46Y46*%
G04 Gerber Fmt 4.6, Leading zero omitted, Abs format (unit mm)*
G04 Created by KiCad (PCBNEW (5.1.9)-1) date 2021-04-08 22:59:59*
%MOMM*%
%LPD*%
G01*
G04 APERTURE LIST*
G04 #@! TA.AperFunction,ComponentPad*
%ADD10C,5.000000*%
G04 #@! TD*
G04 #@! TA.AperFunction,ComponentPad*
%ADD11O,1.700000X1.700000*%
G04 #@! TD*
G04 #@! TA.AperFunction,ComponentPad*
%ADD12R,1.700000X1.700000*%
G04 #@! TD*
G04 #@! TA.AperFunction,ComponentPad*
%ADD13C,1.530000*%
G04 #@! TD*
G04 #@! TA.AperFunction,ComponentPad*
%ADD14R,1.530000X1.530000*%
G04 #@! TD*
G04 #@! TA.AperFunction,ComponentPad*
%ADD15C,1.905000*%
G04 #@! TD*
G04 #@! TA.AperFunction,ComponentPad*
%ADD16C,2.355000*%
G04 #@! TD*
G04 #@! TA.AperFunction,ComponentPad*
%ADD17O,1.700000X1.950000*%
G04 #@! TD*
G04 #@! TA.AperFunction,ComponentPad*
%ADD18C,1.700000*%
G04 #@! TD*
G04 #@! TA.AperFunction,ViaPad*
%ADD19C,0.600000*%
G04 #@! TD*
G04 #@! TA.AperFunction,Conductor*
%ADD20C,0.200000*%
G04 #@! TD*
G04 #@! TA.AperFunction,Conductor*
%ADD21C,0.600000*%
G04 #@! TD*
G04 #@! TA.AperFunction,Conductor*
%ADD22C,0.152400*%
G04 #@! TD*
G04 #@! TA.AperFunction,Conductor*
%ADD23C,0.150000*%
G04 #@! TD*
G04 #@! TA.AperFunction,Conductor*
%ADD24C,0.254000*%
G04 #@! TD*
G04 #@! TA.AperFunction,Conductor*
%ADD25C,0.100000*%
G04 #@! TD*
G04 APERTURE END LIST*
D10*
X-32905700Y86148200D03*
X6094300Y50148200D03*
D11*
X-43165000Y91470000D03*
X-40625000Y91470000D03*
X-43165000Y88930000D03*
X-40625000Y88930000D03*
X-58405000Y88930000D03*
X-45705000Y91470000D03*
X-45705000Y88930000D03*
X-48245000Y91470000D03*
X-48245000Y88930000D03*
X-50785000Y91470000D03*
X-63485000Y91470000D03*
X-50785000Y88930000D03*
X-53325000Y91470000D03*
X-60945000Y91470000D03*
X-53325000Y88930000D03*
X-55865000Y91470000D03*
X-55865000Y88930000D03*
X-58405000Y91470000D03*
X-60945000Y88930000D03*
D12*
X-63485000Y88930000D03*
D11*
X-58405000Y45790000D03*
X-45705000Y45790000D03*
X-50785000Y48330000D03*
X-43165000Y48330000D03*
X-48245000Y45790000D03*
X-40625000Y45790000D03*
X-55865000Y45790000D03*
D12*
X-63485000Y45790000D03*
D11*
X-45705000Y48330000D03*
X-60945000Y45790000D03*
X-48245000Y48330000D03*
X-43165000Y45790000D03*
X-58405000Y48330000D03*
X-55865000Y48330000D03*
X-50785000Y45790000D03*
X-40625000Y48330000D03*
X-53325000Y45790000D03*
X-60945000Y48330000D03*
X-53325000Y48330000D03*
X-63485000Y48330000D03*
D13*
X-12192000Y35814000D03*
X0Y35814000D03*
X-11176000Y33274000D03*
D14*
X-1016000Y33274000D03*
D15*
X-13614400Y17780000D03*
D13*
X-4064000Y35814000D03*
X-2032000Y35814000D03*
X-5080000Y33274000D03*
X-3048000Y33274000D03*
D15*
X-13614400Y20320000D03*
X-13614400Y22860000D03*
X1422400Y17780000D03*
X1422400Y20320000D03*
D13*
X-7112000Y33274000D03*
X-8128000Y35814000D03*
X-9144000Y33274000D03*
X-10160000Y35814000D03*
D16*
X-14884400Y26670000D03*
X2692400Y26670000D03*
D11*
X-40640000Y34290000D03*
X-43180000Y34290000D03*
D12*
X-45720000Y34290000D03*
D17*
X-28568000Y19939000D03*
X-31068000Y19939000D03*
X-33568000Y19939000D03*
G04 #@! TA.AperFunction,ComponentPad*
G36*
G01*
X-36918000Y19214000D02*
X-36918000Y20664000D01*
G75*
G02*
X-36668000Y20914000I250000J0D01*
G01*
X-35468000Y20914000D01*
G75*
G02*
X-35218000Y20664000I0J-250000D01*
G01*
X-35218000Y19214000D01*
G75*
G02*
X-35468000Y18964000I-250000J0D01*
G01*
X-36668000Y18964000D01*
G75*
G02*
X-36918000Y19214000I0J250000D01*
G01*
G37*
G04 #@! TD.AperFunction*
D11*
X-58420000Y34290000D03*
X-60960000Y34290000D03*
D12*
X-63500000Y34290000D03*
X-66040000Y19812000D03*
X-60960000Y19812000D03*
X-63500000Y19812000D03*
X-58420000Y19812000D03*
D18*
X-49022000Y21844000D03*
X-42522000Y21844000D03*
X-49022000Y17344000D03*
X-42522000Y17344000D03*
D11*
X-58420000Y24892000D03*
X-60960000Y24892000D03*
X-63500000Y24892000D03*
D12*
X-66040000Y24892000D03*
D19*
X-38608000Y51816000D03*
X-39878000Y30226000D03*
X-39304300Y49405200D03*
X-39304300Y43182200D03*
X6027199Y69527199D03*
X2608801Y69527199D03*
X-33655000Y46990000D03*
X-34290000Y45021500D03*
X5913899Y64008000D03*
X2667000Y64008000D03*
X-28384500Y46609000D03*
X-38100000Y29972000D03*
X-2921000Y60731400D03*
X-1625600Y60731400D03*
X9652000Y74422000D03*
X9652000Y76581000D03*
X-53320000Y82491840D03*
X-53320000Y79522000D03*
X508000Y74612500D03*
X508000Y72199500D03*
X-254000Y74612500D03*
X-254000Y72199500D03*
X6861799Y57527201D03*
X5588000Y57527201D03*
X5588000Y58727201D03*
X6858000Y61341000D03*
X5585800Y60327200D03*
X5588000Y62992000D03*
X6881799Y65127201D03*
X5643801Y67127199D03*
X6913801Y67127199D03*
X6858000Y68961000D03*
X6817799Y78145201D03*
X5547799Y78145201D03*
X5558201Y79345201D03*
X6828201Y79345201D03*
X6830799Y80545201D03*
X6802199Y84145199D03*
X6815199Y82945199D03*
X6815199Y81745199D03*
X5560799Y84145199D03*
X5560799Y82945199D03*
X5560799Y81745199D03*
X5560799Y80545201D03*
X-35814000Y77851000D03*
X-29732398Y77836602D03*
X-33655000Y74023200D03*
X-32258000Y74023200D03*
X-32258000Y71437500D03*
X-32258000Y66421000D03*
X-32258000Y64008000D03*
X-32258000Y62039500D03*
X-33655000Y72023199D03*
X-33655000Y70023200D03*
X-33655000Y68023199D03*
X-33655000Y66023201D03*
X-33655000Y64023200D03*
X-32258000Y51005199D03*
X-32258000Y53005200D03*
X-32258000Y55005199D03*
X-32258000Y57005200D03*
X-25400000Y19304000D03*
X-40640000Y36830000D03*
X-58420000Y36830000D03*
X-55880000Y19812000D03*
X-32263010Y18536990D03*
X-32385000Y22860000D03*
X-33528000Y62230000D03*
X-35842000Y27206000D03*
X-46228000Y25146000D03*
X-45775000Y17344000D03*
X5588000Y70289298D03*
X18669000Y14351000D03*
X18669000Y16891000D03*
X18669000Y19431000D03*
X18669000Y21971000D03*
X18669000Y24511000D03*
X18669000Y27051000D03*
X18669000Y29591000D03*
X18669000Y32131000D03*
X18669000Y34671000D03*
X18669000Y37211000D03*
X18669000Y39751000D03*
X18669000Y42291000D03*
X18669000Y44831000D03*
X18669000Y47371000D03*
X18669000Y49911000D03*
X18669000Y52451000D03*
X18669000Y54991000D03*
X18669000Y57531000D03*
X18669000Y60071000D03*
X18669000Y62611000D03*
X18669000Y65151000D03*
X18669000Y67691000D03*
X18669000Y70231000D03*
X18669000Y72771000D03*
X18669000Y75311000D03*
X18669000Y77851000D03*
X18669000Y80391000D03*
X18669000Y82931000D03*
X18669000Y85471000D03*
X18669000Y88011000D03*
X18669000Y90551000D03*
X18669000Y93091000D03*
X18669000Y95631000D03*
X18669000Y98171000D03*
X18669000Y100711000D03*
X18669000Y103251000D03*
X18669000Y105791000D03*
X18669000Y108331000D03*
X-74549000Y14351000D03*
X-74549000Y16891000D03*
X-74549000Y19431000D03*
X-74549000Y21971000D03*
X-74549000Y24511000D03*
X-74549000Y27051000D03*
X-74549000Y29591000D03*
X-74549000Y32131000D03*
X-74549000Y34671000D03*
X-74549000Y37211000D03*
X-74549000Y39751000D03*
X-74549000Y42291000D03*
X-74549000Y44831000D03*
X-74549000Y47371000D03*
X-74549000Y49911000D03*
X-74549000Y52451000D03*
X-74549000Y54991000D03*
X-74549000Y57531000D03*
X-74549000Y60071000D03*
X-74549000Y62611000D03*
X-74549000Y65151000D03*
X-74549000Y67691000D03*
X-74549000Y70231000D03*
X-74549000Y72771000D03*
X-74549000Y75311000D03*
X-74549000Y77851000D03*
X-74549000Y80391000D03*
X-74549000Y82931000D03*
X-74549000Y85471000D03*
X-74549000Y88011000D03*
X-74549000Y90551000D03*
X-74549000Y93091000D03*
X-74549000Y95631000D03*
X-74549000Y98171000D03*
X-74549000Y100711000D03*
X-74549000Y103251000D03*
X-74549000Y105791000D03*
X-74549000Y108331000D03*
X16129000Y14351000D03*
X13589000Y14351000D03*
X11049000Y14351000D03*
X8509000Y14351000D03*
X5969000Y14351000D03*
X3429000Y14351000D03*
X889000Y14351000D03*
X-1651000Y14351000D03*
X-4191000Y14351000D03*
X-6731000Y14351000D03*
X-9271000Y14351000D03*
X-11811000Y14351000D03*
X-14351000Y14351000D03*
X-16891000Y14351000D03*
X-19431000Y14351000D03*
X-21971000Y14351000D03*
X-24511000Y14351000D03*
X-27051000Y14351000D03*
X-29591000Y14351000D03*
X-32131000Y14351000D03*
X-34671000Y14351000D03*
X-37211000Y14351000D03*
X-39751000Y14351000D03*
X-42291000Y14351000D03*
X-44831000Y14351000D03*
X-47371000Y14351000D03*
X-49911000Y14351000D03*
X-52451000Y14351000D03*
X-54991000Y14351000D03*
X-57531000Y14351000D03*
X-60071000Y14351000D03*
X-62611000Y14351000D03*
X-65151000Y14351000D03*
X-67691000Y14351000D03*
X-70231000Y14351000D03*
X-72771000Y14351000D03*
X11049000Y108331000D03*
X8509000Y108331000D03*
X5969000Y108331000D03*
X3429000Y108331000D03*
X889000Y108331000D03*
X-1651000Y108331000D03*
X-4191000Y108331000D03*
X-6731000Y108331000D03*
X-9271000Y108331000D03*
X-11811000Y108331000D03*
X-14351000Y108331000D03*
X-16891000Y108331000D03*
X-19431000Y108331000D03*
X-21971000Y108331000D03*
X-24511000Y108331000D03*
X-27051000Y108331000D03*
X-29591000Y108331000D03*
X-32131000Y108331000D03*
X-34671000Y108331000D03*
X-37211000Y108331000D03*
X-39751000Y108331000D03*
X-42291000Y108331000D03*
X-44831000Y108331000D03*
X-47371000Y108331000D03*
X-49911000Y108331000D03*
X-52451000Y108331000D03*
X-54991000Y108331000D03*
X-57531000Y108331000D03*
X-60071000Y108331000D03*
X-62611000Y108331000D03*
X-65151000Y108331000D03*
X-67691000Y108331000D03*
X14861000Y52197000D03*
X7048500Y34417000D03*
X6350000Y38100000D03*
X9842500Y32258000D03*
X-55880000Y24892000D03*
X-44900999Y31299001D03*
X5842000Y55753000D03*
X-1317935Y55038935D03*
X-909122Y57700200D03*
X-714065Y54435065D03*
X-909122Y58554200D03*
X2875000Y52578000D03*
X809935Y53292065D03*
X3729000Y52578000D03*
X206065Y53895935D03*
X-28956000Y62230000D03*
X-28956000Y65786000D03*
X-21844000Y20320000D03*
X-26416000Y20320000D03*
X-32766000Y44450000D03*
X-33591500Y59626500D03*
X-32004000Y44450000D03*
X-32766000Y59626500D03*
X5983199Y65927199D03*
X2681199Y65927199D03*
X-37084000Y26924000D03*
X-27432000Y46990000D03*
X15875000Y52832000D03*
X18415000Y53721000D03*
X15621000Y54102000D03*
X16637000Y54102000D03*
X17018000Y56134000D03*
X15621000Y56134000D03*
X-36576000Y46736000D03*
X-38619692Y31484308D03*
X-35814000Y46736000D03*
X-38608000Y30734000D03*
D20*
X-38608000Y51816000D02*
X-38608000Y33274000D01*
X-38608000Y33274000D02*
X-39497000Y32385000D01*
X-39497000Y30607000D02*
X-40005000Y30099000D01*
X-39497000Y32385000D02*
X-39497000Y30607000D01*
X-39304300Y49405200D02*
X-39304300Y43182200D01*
X-39304300Y43182200D02*
X-39304300Y43182200D01*
X6027199Y69527199D02*
X2608801Y69527199D01*
X2608801Y69527199D02*
X2608801Y69527199D01*
X-34290000Y46355000D02*
X-33655000Y46990000D01*
X-33655000Y46990000D02*
X-33655000Y46990000D01*
X-34290000Y45021500D02*
X-34290000Y46355000D01*
X5913899Y64008000D02*
X2667000Y64008000D01*
X-34742951Y34045510D02*
X-30678950Y34045510D01*
X-28384500Y36339960D02*
X-28933230Y35791230D01*
X-28384500Y46545500D02*
X-28384500Y36339960D01*
X-30678950Y34045510D02*
X-28933230Y35791230D01*
X-37411010Y31377451D02*
X-37061231Y31727230D01*
X-37061231Y31727231D02*
X-34742951Y34045510D01*
X-37061231Y31727230D02*
X-37061231Y31727231D01*
X-38100000Y29972000D02*
X-37411010Y30660990D01*
X-37411010Y31061010D02*
X-37411010Y31377451D01*
X-37411010Y30660990D02*
X-37411010Y31061010D01*
X-2921000Y60731400D02*
X-1625600Y60731400D01*
X-1625600Y60731400D02*
X-1625600Y60731400D01*
X9652000Y74422000D02*
X9652000Y76581000D01*
X9652000Y76581000D02*
X9652000Y76581000D01*
X-53320000Y82491840D02*
X-53320000Y79522000D01*
X508000Y74612500D02*
X508000Y72199500D01*
X-254000Y74612500D02*
X-254000Y72199500D01*
D21*
X-60945000Y48330000D02*
X-60945000Y50434000D01*
X-60945000Y48330000D02*
X-59436000Y49839000D01*
X-60945000Y48330000D02*
X-62484000Y49869000D01*
D22*
X-1317935Y55038935D02*
X-1001434Y55038935D01*
X-685322Y57924000D02*
X-680370Y57924000D01*
X-909122Y57700200D02*
X-685322Y57924000D01*
X-680370Y57924000D02*
X-76200Y57319830D01*
X-76200Y55964169D02*
X-76200Y57319830D01*
X-1001434Y55038935D02*
X-76200Y55964169D01*
X-714065Y54435065D02*
X-714065Y54751566D01*
X-685322Y58330400D02*
X-512030Y58330400D01*
X-909122Y58554200D02*
X-685322Y58330400D01*
X-512030Y58330400D02*
X330200Y57488170D01*
X330200Y55795831D02*
X330200Y57488170D01*
X-714065Y54751566D02*
X330200Y55795831D01*
X2875000Y52578000D02*
X3098800Y52801800D01*
X3098800Y52801800D02*
X3098800Y53509830D01*
X3098800Y53509830D02*
X2582830Y54025800D01*
X809935Y53608566D02*
X809935Y53292065D01*
X1227169Y54025800D02*
X809935Y53608566D01*
X2582830Y54025800D02*
X1227169Y54025800D01*
X3729000Y52578000D02*
X3505200Y52801800D01*
X3505200Y52801800D02*
X3505200Y53678170D01*
X3505200Y53678170D02*
X2751170Y54432200D01*
X522566Y53895935D02*
X206065Y53895935D01*
X1058831Y54432200D02*
X522566Y53895935D01*
X2751170Y54432200D02*
X1058831Y54432200D01*
D21*
X-28956000Y62230000D02*
X-28956000Y65786000D01*
X-28956000Y65786000D02*
X-28956000Y65786000D01*
D20*
X-21844000Y20320000D02*
X-25163962Y20320000D01*
X-25163962Y20320000D02*
X-26416000Y20320000D01*
X-26416000Y20320000D02*
X-26416000Y20320000D01*
X-33219480Y50156020D02*
X-32766000Y49702540D01*
X-33528000Y59626500D02*
X-33528000Y59436000D01*
X-33347010Y59445510D02*
X-33528000Y59626500D01*
X-33347010Y50283550D02*
X-33347010Y59445510D01*
X-33219480Y50156020D02*
X-33347010Y50283550D01*
X-32521510Y44694490D02*
X-32766000Y44450000D01*
X-32521510Y49458050D02*
X-32521510Y44694490D01*
X-33219480Y50156020D02*
X-32521510Y49458050D01*
X-33020000Y50419000D02*
X-32670750Y50069750D01*
X-33020000Y59436000D02*
X-33020000Y50419000D01*
X-32829500Y59626500D02*
X-33020000Y59436000D01*
X-32194500Y44640500D02*
X-32004000Y44450000D01*
X-32194500Y49593501D02*
X-32194500Y44640500D01*
X-32829500Y50228500D02*
X-32194500Y49593501D01*
X5983199Y65927199D02*
X2681199Y65927199D01*
X2681199Y65927199D02*
X2681199Y65927199D01*
X-37084000Y26924000D02*
X-37084000Y31242000D01*
X-37084000Y31242000D02*
X-37084000Y30734000D01*
X-37084000Y31242000D02*
X-35750500Y32575500D01*
X-35750500Y32575500D02*
X-34607500Y33718500D01*
X-34607500Y33718500D02*
X-30543500Y33718500D01*
X-30543500Y33718500D02*
X-27813000Y36449000D01*
X-27813000Y46482000D02*
X-27813000Y46609000D01*
X-27813000Y36449000D02*
X-27813000Y46482000D01*
X-27813000Y46609000D02*
X-27432000Y46990000D01*
X-27432000Y46990000D02*
X-27432000Y46990000D01*
D23*
X15875000Y52832000D02*
X17526000Y52832000D01*
X17526000Y52832000D02*
X18161000Y53467000D01*
X18161000Y53467000D02*
X18415000Y53721000D01*
X18415000Y53721000D02*
X18415000Y53721000D01*
X15748000Y54102000D02*
X16637000Y54102000D01*
X15748000Y56134000D02*
X17018000Y56134000D01*
X-36576000Y46736000D02*
X-36576000Y35306000D01*
X-36576000Y35306000D02*
X-36576000Y33031317D01*
X-36576000Y33031317D02*
X-37857317Y31750000D01*
X-38123009Y31484308D02*
X-38619692Y31484308D01*
X-37857317Y31750000D02*
X-38123009Y31484308D01*
X-35814000Y46736000D02*
X-35814000Y35306000D01*
X-35814000Y35306000D02*
X-35814000Y33401567D01*
X-37401783Y31813783D02*
X-38481566Y30734000D01*
X-35814000Y33401567D02*
X-37401783Y31813783D01*
X-37401783Y31813783D02*
X-37846000Y31369567D01*
X-38481566Y30734000D02*
X-38608000Y30734000D01*
X-38608000Y30734000D02*
X-38608000Y30734000D01*
D24*
X-71825392Y109005365D02*
X-72265494Y108823069D01*
X-72661576Y108558415D01*
X-72998415Y108221576D01*
X-73263069Y107825494D01*
X-73445365Y107385392D01*
X-73538299Y106918182D01*
X-73538299Y106441818D01*
X-73445365Y105974608D01*
X-73263069Y105534506D01*
X-72998415Y105138424D01*
X-72661576Y104801585D01*
X-72265494Y104536931D01*
X-71825392Y104354635D01*
X-71358182Y104261701D01*
X-70881818Y104261701D01*
X-70414608Y104354635D01*
X-69974506Y104536931D01*
X-69578424Y104801585D01*
X-69241585Y105138424D01*
X-68976931Y105534506D01*
X-68794635Y105974608D01*
X-68701701Y106441818D01*
X-68701701Y106918182D01*
X-68794635Y107385392D01*
X-68976931Y107825494D01*
X-69241585Y108221576D01*
X-69578424Y108558415D01*
X-69974506Y108823069D01*
X-70414608Y109005365D01*
X-70855178Y109093000D01*
X14975178Y109093000D01*
X14534608Y109005365D01*
X14094506Y108823069D01*
X13698424Y108558415D01*
X13361585Y108221576D01*
X13096931Y107825494D01*
X12914635Y107385392D01*
X12821701Y106918182D01*
X12821701Y106441818D01*
X12914635Y105974608D01*
X13096931Y105534506D01*
X13361585Y105138424D01*
X13698424Y104801585D01*
X14094506Y104536931D01*
X14534608Y104354635D01*
X15001818Y104261701D01*
X15478182Y104261701D01*
X15945392Y104354635D01*
X16385494Y104536931D01*
X16781576Y104801585D01*
X17118415Y105138424D01*
X17383069Y105534506D01*
X17565365Y105974608D01*
X17658299Y106441818D01*
X17658299Y106918182D01*
X17565365Y107385392D01*
X17383069Y107825494D01*
X17118415Y108221576D01*
X16781576Y108558415D01*
X16385494Y108823069D01*
X15945392Y109005365D01*
X15504822Y109093000D01*
X18923000Y109093000D01*
X18923000Y54506080D01*
X18857889Y54549586D01*
X18687729Y54620068D01*
X18507089Y54656000D01*
X18322911Y54656000D01*
X18142271Y54620068D01*
X17972111Y54549586D01*
X17818972Y54447262D01*
X17688738Y54317028D01*
X17586414Y54163889D01*
X17572000Y54129090D01*
X17572000Y54194089D01*
X17536068Y54374729D01*
X17465586Y54544889D01*
X17363262Y54698028D01*
X17233028Y54828262D01*
X17079889Y54930586D01*
X16909729Y55001068D01*
X16729089Y55037000D01*
X16544911Y55037000D01*
X16364271Y55001068D01*
X16194111Y54930586D01*
X16129000Y54887080D01*
X16063889Y54930586D01*
X15893729Y55001068D01*
X15713089Y55037000D01*
X15528911Y55037000D01*
X15348271Y55001068D01*
X15178111Y54930586D01*
X15024972Y54828262D01*
X14894738Y54698028D01*
X14792414Y54544889D01*
X14721932Y54374729D01*
X14686000Y54194089D01*
X14686000Y54009911D01*
X14721932Y53829271D01*
X14792414Y53659111D01*
X14894738Y53505972D01*
X15024972Y53375738D01*
X15086382Y53334705D01*
X15046414Y53274889D01*
X14975932Y53104729D01*
X14940000Y52924089D01*
X14940000Y52739911D01*
X14975932Y52559271D01*
X15046414Y52389111D01*
X15148738Y52235972D01*
X15278972Y52105738D01*
X15432111Y52003414D01*
X15602271Y51932932D01*
X15782911Y51897000D01*
X15967089Y51897000D01*
X16147729Y51932932D01*
X16317889Y52003414D01*
X16471028Y52105738D01*
X16487290Y52122000D01*
X17491125Y52122000D01*
X17526000Y52118565D01*
X17560875Y52122000D01*
X17560877Y52122000D01*
X17665184Y52132273D01*
X17799020Y52172872D01*
X17922363Y52238800D01*
X18030475Y52327525D01*
X18052712Y52354621D01*
X18484091Y52786000D01*
X18507089Y52786000D01*
X18687729Y52821932D01*
X18857889Y52892414D01*
X18923000Y52935920D01*
X18923000Y14097000D01*
X-74803000Y14097000D01*
X-74803000Y18018182D01*
X-73538299Y18018182D01*
X-73538299Y17541818D01*
X-73445365Y17074608D01*
X-73263069Y16634506D01*
X-72998415Y16238424D01*
X-72661576Y15901585D01*
X-72265494Y15636931D01*
X-71825392Y15454635D01*
X-71358182Y15361701D01*
X-70881818Y15361701D01*
X-70414608Y15454635D01*
X-69974506Y15636931D01*
X-69578424Y15901585D01*
X-69241585Y16238424D01*
X-69190016Y16315603D01*
X-49870792Y16315603D01*
X-49793157Y16066528D01*
X-49529117Y15940629D01*
X-49245589Y15868661D01*
X-48953469Y15853389D01*
X-48663981Y15895401D01*
X-48388253Y15993081D01*
X-48250843Y16066528D01*
X-48173208Y16315603D01*
X-43370792Y16315603D01*
X-43293157Y16066528D01*
X-43029117Y15940629D01*
X-42745589Y15868661D01*
X-42453469Y15853389D01*
X-42163981Y15895401D01*
X-41888253Y15993081D01*
X-41750843Y16066528D01*
X-41673208Y16315603D01*
X-42522000Y17164395D01*
X-43370792Y16315603D01*
X-48173208Y16315603D01*
X-49022000Y17164395D01*
X-49870792Y16315603D01*
X-69190016Y16315603D01*
X-68976931Y16634506D01*
X-68794635Y17074608D01*
X-68754682Y17275469D01*
X-50512611Y17275469D01*
X-50470599Y16985981D01*
X-50372919Y16710253D01*
X-50299472Y16572843D01*
X-50050397Y16495208D01*
X-49201605Y17344000D01*
X-48842395Y17344000D01*
X-47993603Y16495208D01*
X-47744528Y16572843D01*
X-47618629Y16836883D01*
X-47546661Y17120411D01*
X-47538555Y17275469D01*
X-44012611Y17275469D01*
X-43970599Y16985981D01*
X-43872919Y16710253D01*
X-43799472Y16572843D01*
X-43550397Y16495208D01*
X-42701605Y17344000D01*
X-42342395Y17344000D01*
X-41493603Y16495208D01*
X-41244528Y16572843D01*
X-41118629Y16836883D01*
X-41046661Y17120411D01*
X-41031389Y17412531D01*
X-41073401Y17702019D01*
X-41171081Y17977747D01*
X-41244528Y18115157D01*
X-41493603Y18192792D01*
X-42342395Y17344000D01*
X-42701605Y17344000D01*
X-43550397Y18192792D01*
X-43799472Y18115157D01*
X-43925371Y17851117D01*
X-43997339Y17567589D01*
X-44012611Y17275469D01*
X-47538555Y17275469D01*
X-47531389Y17412531D01*
X-47573401Y17702019D01*
X-47671081Y17977747D01*
X-47744528Y18115157D01*
X-47993603Y18192792D01*
X-48842395Y17344000D01*
X-49201605Y17344000D01*
X-50050397Y18192792D01*
X-50299472Y18115157D01*
X-50425371Y17851117D01*
X-50497339Y17567589D01*
X-50512611Y17275469D01*
X-68754682Y17275469D01*
X-68701701Y17541818D01*
X-68701701Y18018182D01*
X-68794635Y18485392D01*
X-68976931Y18925494D01*
X-69241585Y19321576D01*
X-69578424Y19658415D01*
X-69974506Y19923069D01*
X-70414608Y20105365D01*
X-70881818Y20198299D01*
X-71358182Y20198299D01*
X-71825392Y20105365D01*
X-72265494Y19923069D01*
X-72661576Y19658415D01*
X-72998415Y19321576D01*
X-73263069Y18925494D01*
X-73445365Y18485392D01*
X-73538299Y18018182D01*
X-74803000Y18018182D01*
X-74803000Y20662000D01*
X-67528072Y20662000D01*
X-67528072Y18962000D01*
X-67515812Y18837518D01*
X-67479502Y18717820D01*
X-67420537Y18607506D01*
X-67341185Y18510815D01*
X-67244494Y18431463D01*
X-67134180Y18372498D01*
X-67014482Y18336188D01*
X-66890000Y18323928D01*
X-65190000Y18323928D01*
X-65065518Y18336188D01*
X-64945820Y18372498D01*
X-64835506Y18431463D01*
X-64770000Y18485222D01*
X-64704494Y18431463D01*
X-64594180Y18372498D01*
X-64474482Y18336188D01*
X-64350000Y18323928D01*
X-62650000Y18323928D01*
X-62525518Y18336188D01*
X-62405820Y18372498D01*
X-62295506Y18431463D01*
X-62230000Y18485222D01*
X-62164494Y18431463D01*
X-62054180Y18372498D01*
X-61934482Y18336188D01*
X-61810000Y18323928D01*
X-60110000Y18323928D01*
X-59985518Y18336188D01*
X-59865820Y18372498D01*
X-59755506Y18431463D01*
X-59690000Y18485222D01*
X-59624494Y18431463D01*
X-59514180Y18372498D01*
X-59394482Y18336188D01*
X-59270000Y18323928D01*
X-58705750Y18327000D01*
X-58547000Y18485750D01*
X-58547000Y19685000D01*
X-58293000Y19685000D01*
X-58293000Y18485750D01*
X-58134250Y18327000D01*
X-57570000Y18323928D01*
X-57445518Y18336188D01*
X-57326153Y18372397D01*
X-49870792Y18372397D01*
X-49022000Y17523605D01*
X-48173208Y18372397D01*
X-43370792Y18372397D01*
X-42522000Y17523605D01*
X-41673208Y18372397D01*
X-41750843Y18621472D01*
X-42014883Y18747371D01*
X-42298411Y18819339D01*
X-42590531Y18834611D01*
X-42880019Y18792599D01*
X-43155747Y18694919D01*
X-43293157Y18621472D01*
X-43370792Y18372397D01*
X-48173208Y18372397D01*
X-48250843Y18621472D01*
X-48514883Y18747371D01*
X-48798411Y18819339D01*
X-49090531Y18834611D01*
X-49380019Y18792599D01*
X-49655747Y18694919D01*
X-49793157Y18621472D01*
X-49870792Y18372397D01*
X-57326153Y18372397D01*
X-57325820Y18372498D01*
X-57215506Y18431463D01*
X-57118815Y18510815D01*
X-57039463Y18607506D01*
X-56980498Y18717820D01*
X-56944188Y18837518D01*
X-56931928Y18962000D01*
X-56931938Y18964000D01*
X-37556072Y18964000D01*
X-37543812Y18839518D01*
X-37507502Y18719820D01*
X-37448537Y18609506D01*
X-37369185Y18512815D01*
X-37272494Y18433463D01*
X-37162180Y18374498D01*
X-37042482Y18338188D01*
X-36918000Y18325928D01*
X-36353750Y18329000D01*
X-36195000Y18487750D01*
X-36195000Y19812000D01*
X-37394250Y19812000D01*
X-37553000Y19653250D01*
X-37556072Y18964000D01*
X-56931938Y18964000D01*
X-56935000Y19526250D01*
X-57093750Y19685000D01*
X-58293000Y19685000D01*
X-58547000Y19685000D01*
X-58567000Y19685000D01*
X-58567000Y19939000D01*
X-58547000Y19939000D01*
X-58547000Y21138250D01*
X-58293000Y21138250D01*
X-58293000Y19939000D01*
X-57093750Y19939000D01*
X-56935000Y20097750D01*
X-56931928Y20662000D01*
X-56944188Y20786482D01*
X-56980498Y20906180D01*
X-57039463Y21016494D01*
X-57118815Y21113185D01*
X-57215506Y21192537D01*
X-57325820Y21251502D01*
X-57445518Y21287812D01*
X-57570000Y21300072D01*
X-58134250Y21297000D01*
X-58293000Y21138250D01*
X-58547000Y21138250D01*
X-58705750Y21297000D01*
X-59270000Y21300072D01*
X-59394482Y21287812D01*
X-59514180Y21251502D01*
X-59624494Y21192537D01*
X-59690000Y21138778D01*
X-59755506Y21192537D01*
X-59865820Y21251502D01*
X-59985518Y21287812D01*
X-60110000Y21300072D01*
X-61810000Y21300072D01*
X-61934482Y21287812D01*
X-62054180Y21251502D01*
X-62164494Y21192537D01*
X-62230000Y21138778D01*
X-62295506Y21192537D01*
X-62405820Y21251502D01*
X-62525518Y21287812D01*
X-62650000Y21300072D01*
X-64350000Y21300072D01*
X-64474482Y21287812D01*
X-64594180Y21251502D01*
X-64704494Y21192537D01*
X-64770000Y21138778D01*
X-64835506Y21192537D01*
X-64945820Y21251502D01*
X-65065518Y21287812D01*
X-65190000Y21300072D01*
X-66890000Y21300072D01*
X-67014482Y21287812D01*
X-67134180Y21251502D01*
X-67244494Y21192537D01*
X-67341185Y21113185D01*
X-67420537Y21016494D01*
X-67479502Y20906180D01*
X-67515812Y20786482D01*
X-67528072Y20662000D01*
X-74803000Y20662000D01*
X-74803000Y21990260D01*
X-50507000Y21990260D01*
X-50507000Y21697740D01*
X-50449932Y21410842D01*
X-50337990Y21140589D01*
X-50175475Y20897368D01*
X-49968632Y20690525D01*
X-49725411Y20528010D01*
X-49455158Y20416068D01*
X-49168260Y20359000D01*
X-48875740Y20359000D01*
X-48588842Y20416068D01*
X-48318589Y20528010D01*
X-48075368Y20690525D01*
X-47868525Y20897368D01*
X-47706010Y21140589D01*
X-47594068Y21410842D01*
X-47537000Y21697740D01*
X-47537000Y21990260D01*
X-44007000Y21990260D01*
X-44007000Y21697740D01*
X-43949932Y21410842D01*
X-43837990Y21140589D01*
X-43675475Y20897368D01*
X-43468632Y20690525D01*
X-43225411Y20528010D01*
X-42955158Y20416068D01*
X-42668260Y20359000D01*
X-42375740Y20359000D01*
X-42088842Y20416068D01*
X-41818589Y20528010D01*
X-41575368Y20690525D01*
X-41368525Y20897368D01*
X-41357412Y20914000D01*
X-37556072Y20914000D01*
X-37553000Y20224750D01*
X-37394250Y20066000D01*
X-36195000Y20066000D01*
X-36195000Y21390250D01*
X-35941000Y21390250D01*
X-35941000Y20066000D01*
X-35921000Y20066000D01*
X-35921000Y19812000D01*
X-35941000Y19812000D01*
X-35941000Y18487750D01*
X-35782250Y18329000D01*
X-35218000Y18325928D01*
X-35093518Y18338188D01*
X-34973820Y18374498D01*
X-34863506Y18433463D01*
X-34766815Y18512815D01*
X-34687463Y18609506D01*
X-34628498Y18719820D01*
X-34617945Y18754608D01*
X-34397013Y18573294D01*
X-34139033Y18435401D01*
X-33859110Y18350487D01*
X-33568000Y18321815D01*
X-33276889Y18350487D01*
X-32996966Y18435401D01*
X-32738986Y18573294D01*
X-32512866Y18758866D01*
X-32327294Y18984986D01*
X-32318000Y19002374D01*
X-32308706Y18984986D01*
X-32123134Y18758866D01*
X-31897013Y18573294D01*
X-31639033Y18435401D01*
X-31359110Y18350487D01*
X-31068000Y18321815D01*
X-30776889Y18350487D01*
X-30496966Y18435401D01*
X-30238986Y18573294D01*
X-30012866Y18758866D01*
X-29827294Y18984986D01*
X-29813538Y19010722D01*
X-29657049Y18804571D01*
X-29439193Y18611504D01*
X-29187858Y18464648D01*
X-28924890Y18372524D01*
X-28695000Y18493845D01*
X-28695000Y19812000D01*
X-28715000Y19812000D01*
X-28715000Y20066000D01*
X-28695000Y20066000D01*
X-28695000Y21384155D01*
X-28441000Y21384155D01*
X-28441000Y20066000D01*
X-28421000Y20066000D01*
X-28421000Y19812000D01*
X-28441000Y19812000D01*
X-28441000Y18493845D01*
X-28211110Y18372524D01*
X-27948142Y18464648D01*
X-27696807Y18611504D01*
X-27478951Y18804571D01*
X-27302947Y19036430D01*
X-27175558Y19298170D01*
X-27101680Y19579733D01*
X-27241834Y19811998D01*
X-27201079Y19811998D01*
X-27142262Y19723972D01*
X-27012028Y19593738D01*
X-26858889Y19491414D01*
X-26688729Y19420932D01*
X-26508089Y19385000D01*
X-26323911Y19385000D01*
X-26143271Y19420932D01*
X-25973111Y19491414D01*
X-25833049Y19585000D01*
X-22426951Y19585000D01*
X-22286889Y19491414D01*
X-22116729Y19420932D01*
X-21936089Y19385000D01*
X-21751911Y19385000D01*
X-21571271Y19420932D01*
X-21401111Y19491414D01*
X-21247972Y19593738D01*
X-21117738Y19723972D01*
X-21015414Y19877111D01*
X-20944932Y20047271D01*
X-20909000Y20227911D01*
X-20909000Y20412089D01*
X-20944932Y20592729D01*
X-21015414Y20762889D01*
X-21117738Y20916028D01*
X-21247972Y21046262D01*
X-21401111Y21148586D01*
X-21571271Y21219068D01*
X-21751911Y21255000D01*
X-21936089Y21255000D01*
X-22116729Y21219068D01*
X-22286889Y21148586D01*
X-22426951Y21055000D01*
X-25833049Y21055000D01*
X-25973111Y21148586D01*
X-26143271Y21219068D01*
X-26323911Y21255000D01*
X-26508089Y21255000D01*
X-26688729Y21219068D01*
X-26858889Y21148586D01*
X-27012028Y21046262D01*
X-27142262Y20916028D01*
X-27244586Y20762889D01*
X-27253812Y20740615D01*
X-27302947Y20841570D01*
X-27478951Y21073429D01*
X-27696807Y21266496D01*
X-27948142Y21413352D01*
X-28211110Y21505476D01*
X-28441000Y21384155D01*
X-28695000Y21384155D01*
X-28924890Y21505476D01*
X-29187858Y21413352D01*
X-29439193Y21266496D01*
X-29657049Y21073429D01*
X-29813538Y20867278D01*
X-29827294Y20893014D01*
X-30012866Y21119134D01*
X-30238987Y21304706D01*
X-30496967Y21442599D01*
X-30776890Y21527513D01*
X-31068000Y21556185D01*
X-31359111Y21527513D01*
X-31639034Y21442599D01*
X-31897014Y21304706D01*
X-32123134Y21119134D01*
X-32308706Y20893013D01*
X-32318000Y20875626D01*
X-32327294Y20893014D01*
X-32512866Y21119134D01*
X-32738987Y21304706D01*
X-32996967Y21442599D01*
X-33276890Y21527513D01*
X-33568000Y21556185D01*
X-33859111Y21527513D01*
X-34139034Y21442599D01*
X-34397014Y21304706D01*
X-34617945Y21123392D01*
X-34628498Y21158180D01*
X-34687463Y21268494D01*
X-34766815Y21365185D01*
X-34863506Y21444537D01*
X-34973820Y21503502D01*
X-35093518Y21539812D01*
X-35218000Y21552072D01*
X-35782250Y21549000D01*
X-35941000Y21390250D01*
X-36195000Y21390250D01*
X-36353750Y21549000D01*
X-36918000Y21552072D01*
X-37042482Y21539812D01*
X-37162180Y21503502D01*
X-37272494Y21444537D01*
X-37369185Y21365185D01*
X-37448537Y21268494D01*
X-37507502Y21158180D01*
X-37543812Y21038482D01*
X-37556072Y20914000D01*
X-41357412Y20914000D01*
X-41206010Y21140589D01*
X-41094068Y21410842D01*
X-41037000Y21697740D01*
X-41037000Y21990260D01*
X-41094068Y22277158D01*
X-41206010Y22547411D01*
X-41368525Y22790632D01*
X-41575368Y22997475D01*
X-41603623Y23016355D01*
X-15201900Y23016355D01*
X-15201900Y22703645D01*
X-15140893Y22396943D01*
X-15021224Y22108037D01*
X-14847492Y21848028D01*
X-14626372Y21626908D01*
X-14571135Y21590000D01*
X-14626372Y21553092D01*
X-14847492Y21331972D01*
X-15021224Y21071963D01*
X-15140893Y20783057D01*
X-15201900Y20476355D01*
X-15201900Y20163645D01*
X-15140893Y19856943D01*
X-15021224Y19568037D01*
X-14847492Y19308028D01*
X-14626372Y19086908D01*
X-14571135Y19050000D01*
X-14626372Y19013092D01*
X-14847492Y18791972D01*
X-15021224Y18531963D01*
X-15140893Y18243057D01*
X-15201900Y17936355D01*
X-15201900Y17623645D01*
X-15140893Y17316943D01*
X-15021224Y17028037D01*
X-14847492Y16768028D01*
X-14626372Y16546908D01*
X-14366363Y16373176D01*
X-14077457Y16253507D01*
X-13770755Y16192500D01*
X-13458045Y16192500D01*
X-13151343Y16253507D01*
X-12862437Y16373176D01*
X-12602428Y16546908D01*
X-12381308Y16768028D01*
X-12207576Y17028037D01*
X-12087907Y17316943D01*
X-12026900Y17623645D01*
X-12026900Y17936355D01*
X-165100Y17936355D01*
X-165100Y17623645D01*
X-104093Y17316943D01*
X15576Y17028037D01*
X189308Y16768028D01*
X410428Y16546908D01*
X670437Y16373176D01*
X959343Y16253507D01*
X1266045Y16192500D01*
X1578755Y16192500D01*
X1885457Y16253507D01*
X2174363Y16373176D01*
X2434372Y16546908D01*
X2655492Y16768028D01*
X2829224Y17028037D01*
X2948893Y17316943D01*
X3009900Y17623645D01*
X3009900Y17936355D01*
X2993624Y18018182D01*
X12821701Y18018182D01*
X12821701Y17541818D01*
X12914635Y17074608D01*
X13096931Y16634506D01*
X13361585Y16238424D01*
X13698424Y15901585D01*
X14094506Y15636931D01*
X14534608Y15454635D01*
X15001818Y15361701D01*
X15478182Y15361701D01*
X15945392Y15454635D01*
X16385494Y15636931D01*
X16781576Y15901585D01*
X17118415Y16238424D01*
X17383069Y16634506D01*
X17565365Y17074608D01*
X17658299Y17541818D01*
X17658299Y18018182D01*
X17565365Y18485392D01*
X17383069Y18925494D01*
X17118415Y19321576D01*
X16781576Y19658415D01*
X16385494Y19923069D01*
X15945392Y20105365D01*
X15478182Y20198299D01*
X15001818Y20198299D01*
X14534608Y20105365D01*
X14094506Y19923069D01*
X13698424Y19658415D01*
X13361585Y19321576D01*
X13096931Y18925494D01*
X12914635Y18485392D01*
X12821701Y18018182D01*
X2993624Y18018182D01*
X2948893Y18243057D01*
X2829224Y18531963D01*
X2655492Y18791972D01*
X2434372Y19013092D01*
X2303439Y19100578D01*
X2344330Y19218465D01*
X1422400Y20140395D01*
X500470Y19218465D01*
X541361Y19100578D01*
X410428Y19013092D01*
X189308Y18791972D01*
X15576Y18531963D01*
X-104093Y18243057D01*
X-165100Y17936355D01*
X-12026900Y17936355D01*
X-12087907Y18243057D01*
X-12207576Y18531963D01*
X-12381308Y18791972D01*
X-12602428Y19013092D01*
X-12657665Y19050000D01*
X-12602428Y19086908D01*
X-12381308Y19308028D01*
X-12207576Y19568037D01*
X-12087907Y19856943D01*
X-12026900Y20163645D01*
X-12026900Y20255526D01*
X-171477Y20255526D01*
X-128272Y19945815D01*
X-25477Y19650484D01*
X61319Y19488098D01*
X320865Y19398070D01*
X1242795Y20320000D01*
X1602005Y20320000D01*
X2523935Y19398070D01*
X2783481Y19488098D01*
X2919624Y19769616D01*
X2998229Y20072286D01*
X3016277Y20384474D01*
X2973072Y20694185D01*
X2870277Y20989516D01*
X2783481Y21151902D01*
X2523935Y21241930D01*
X1602005Y20320000D01*
X1242795Y20320000D01*
X320865Y21241930D01*
X61319Y21151902D01*
X-74824Y20870384D01*
X-153429Y20567714D01*
X-171477Y20255526D01*
X-12026900Y20255526D01*
X-12026900Y20476355D01*
X-12087907Y20783057D01*
X-12207576Y21071963D01*
X-12381308Y21331972D01*
X-12470871Y21421535D01*
X500470Y21421535D01*
X1422400Y20499605D01*
X2344330Y21421535D01*
X2254302Y21681081D01*
X1972784Y21817224D01*
X1670114Y21895829D01*
X1357926Y21913877D01*
X1048215Y21870672D01*
X752884Y21767877D01*
X590498Y21681081D01*
X500470Y21421535D01*
X-12470871Y21421535D01*
X-12602428Y21553092D01*
X-12657665Y21590000D01*
X-12602428Y21626908D01*
X-12381308Y21848028D01*
X-12207576Y22108037D01*
X-12087907Y22396943D01*
X-12026900Y22703645D01*
X-12026900Y23016355D01*
X-12087907Y23323057D01*
X-12207576Y23611963D01*
X-12381308Y23871972D01*
X-12602428Y24093092D01*
X-12862437Y24266824D01*
X-13151343Y24386493D01*
X-13458045Y24447500D01*
X-13770755Y24447500D01*
X-14077457Y24386493D01*
X-14366363Y24266824D01*
X-14626372Y24093092D01*
X-14847492Y23871972D01*
X-15021224Y23611963D01*
X-15140893Y23323057D01*
X-15201900Y23016355D01*
X-41603623Y23016355D01*
X-41818589Y23159990D01*
X-42088842Y23271932D01*
X-42375740Y23329000D01*
X-42668260Y23329000D01*
X-42955158Y23271932D01*
X-43225411Y23159990D01*
X-43468632Y22997475D01*
X-43675475Y22790632D01*
X-43837990Y22547411D01*
X-43949932Y22277158D01*
X-44007000Y21990260D01*
X-47537000Y21990260D01*
X-47594068Y22277158D01*
X-47706010Y22547411D01*
X-47868525Y22790632D01*
X-48075368Y22997475D01*
X-48318589Y23159990D01*
X-48588842Y23271932D01*
X-48875740Y23329000D01*
X-49168260Y23329000D01*
X-49455158Y23271932D01*
X-49725411Y23159990D01*
X-49968632Y22997475D01*
X-50175475Y22790632D01*
X-50337990Y22547411D01*
X-50449932Y22277158D01*
X-50507000Y21990260D01*
X-74803000Y21990260D01*
X-74803000Y25742000D01*
X-67528072Y25742000D01*
X-67528072Y24042000D01*
X-67515812Y23917518D01*
X-67479502Y23797820D01*
X-67420537Y23687506D01*
X-67341185Y23590815D01*
X-67244494Y23511463D01*
X-67134180Y23452498D01*
X-67014482Y23416188D01*
X-66890000Y23403928D01*
X-65190000Y23403928D01*
X-65065518Y23416188D01*
X-64945820Y23452498D01*
X-64835506Y23511463D01*
X-64738815Y23590815D01*
X-64659463Y23687506D01*
X-64600498Y23797820D01*
X-64578487Y23870380D01*
X-64446632Y23738525D01*
X-64203411Y23576010D01*
X-63933158Y23464068D01*
X-63646260Y23407000D01*
X-63353740Y23407000D01*
X-63066842Y23464068D01*
X-62796589Y23576010D01*
X-62553368Y23738525D01*
X-62346525Y23945368D01*
X-62230000Y24119760D01*
X-62113475Y23945368D01*
X-61906632Y23738525D01*
X-61663411Y23576010D01*
X-61393158Y23464068D01*
X-61106260Y23407000D01*
X-60813740Y23407000D01*
X-60526842Y23464068D01*
X-60256589Y23576010D01*
X-60013368Y23738525D01*
X-59806525Y23945368D01*
X-59684805Y24127534D01*
X-59615178Y24010645D01*
X-59420269Y23794412D01*
X-59186920Y23620359D01*
X-58924099Y23495175D01*
X-58776890Y23450524D01*
X-58547000Y23571845D01*
X-58547000Y24765000D01*
X-58293000Y24765000D01*
X-58293000Y23571845D01*
X-58063110Y23450524D01*
X-57915901Y23495175D01*
X-57653080Y23620359D01*
X-57419731Y23794412D01*
X-57224822Y24010645D01*
X-57075843Y24260748D01*
X-56978519Y24535109D01*
X-57099186Y24765000D01*
X-58293000Y24765000D01*
X-58547000Y24765000D01*
X-58567000Y24765000D01*
X-58567000Y25019000D01*
X-58547000Y25019000D01*
X-58547000Y26212155D01*
X-58293000Y26212155D01*
X-58293000Y25019000D01*
X-57099186Y25019000D01*
X-56978519Y25248891D01*
X-57034978Y25408053D01*
X-15966741Y25408053D01*
X-15849565Y25125499D01*
X-15529703Y24966882D01*
X-15185042Y24873715D01*
X-14828828Y24849578D01*
X-14474748Y24895399D01*
X-14136413Y25009416D01*
X-13919235Y25125499D01*
X-13802059Y25408053D01*
X-14884400Y26490395D01*
X-15966741Y25408053D01*
X-57034978Y25408053D01*
X-57075843Y25523252D01*
X-57224822Y25773355D01*
X-57419731Y25989588D01*
X-57653080Y26163641D01*
X-57915901Y26288825D01*
X-58063110Y26333476D01*
X-58293000Y26212155D01*
X-58547000Y26212155D01*
X-58776890Y26333476D01*
X-58924099Y26288825D01*
X-59186920Y26163641D01*
X-59420269Y25989588D01*
X-59615178Y25773355D01*
X-59684805Y25656466D01*
X-59806525Y25838632D01*
X-60013368Y26045475D01*
X-60256589Y26207990D01*
X-60526842Y26319932D01*
X-60813740Y26377000D01*
X-61106260Y26377000D01*
X-61393158Y26319932D01*
X-61663411Y26207990D01*
X-61906632Y26045475D01*
X-62113475Y25838632D01*
X-62230000Y25664240D01*
X-62346525Y25838632D01*
X-62553368Y26045475D01*
X-62796589Y26207990D01*
X-63066842Y26319932D01*
X-63353740Y26377000D01*
X-63646260Y26377000D01*
X-63933158Y26319932D01*
X-64203411Y26207990D01*
X-64446632Y26045475D01*
X-64578487Y25913620D01*
X-64600498Y25986180D01*
X-64659463Y26096494D01*
X-64738815Y26193185D01*
X-64835506Y26272537D01*
X-64945820Y26331502D01*
X-65065518Y26367812D01*
X-65190000Y26380072D01*
X-66890000Y26380072D01*
X-67014482Y26367812D01*
X-67134180Y26331502D01*
X-67244494Y26272537D01*
X-67341185Y26193185D01*
X-67420537Y26096494D01*
X-67479502Y25986180D01*
X-67515812Y25866482D01*
X-67528072Y25742000D01*
X-74803000Y25742000D01*
X-74803000Y36443200D01*
X-73054252Y36443200D01*
X-73054252Y35956800D01*
X-72959360Y35479746D01*
X-72773223Y35030370D01*
X-72502994Y34625943D01*
X-72159057Y34282006D01*
X-71754630Y34011777D01*
X-71305254Y33825640D01*
X-70828200Y33730748D01*
X-70341800Y33730748D01*
X-69864746Y33825640D01*
X-69415370Y34011777D01*
X-69010943Y34282006D01*
X-68667006Y34625943D01*
X-68396777Y35030370D01*
X-68351367Y35140000D01*
X-64988072Y35140000D01*
X-64988072Y33440000D01*
X-64975812Y33315518D01*
X-64939502Y33195820D01*
X-64880537Y33085506D01*
X-64801185Y32988815D01*
X-64704494Y32909463D01*
X-64594180Y32850498D01*
X-64474482Y32814188D01*
X-64350000Y32801928D01*
X-62650000Y32801928D01*
X-62525518Y32814188D01*
X-62405820Y32850498D01*
X-62295506Y32909463D01*
X-62198815Y32988815D01*
X-62119463Y33085506D01*
X-62060498Y33195820D01*
X-62038487Y33268380D01*
X-61906632Y33136525D01*
X-61663411Y32974010D01*
X-61393158Y32862068D01*
X-61106260Y32805000D01*
X-60813740Y32805000D01*
X-60526842Y32862068D01*
X-60256589Y32974010D01*
X-60013368Y33136525D01*
X-59806525Y33343368D01*
X-59684805Y33525534D01*
X-59615178Y33408645D01*
X-59420269Y33192412D01*
X-59186920Y33018359D01*
X-58924099Y32893175D01*
X-58776890Y32848524D01*
X-58547000Y32969845D01*
X-58547000Y34163000D01*
X-58293000Y34163000D01*
X-58293000Y32969845D01*
X-58063110Y32848524D01*
X-57915901Y32893175D01*
X-57653080Y33018359D01*
X-57419731Y33192412D01*
X-57224822Y33408645D01*
X-57075843Y33658748D01*
X-56978519Y33933109D01*
X-57099186Y34163000D01*
X-58293000Y34163000D01*
X-58547000Y34163000D01*
X-58567000Y34163000D01*
X-58567000Y34417000D01*
X-58547000Y34417000D01*
X-58547000Y35610155D01*
X-58293000Y35610155D01*
X-58293000Y34417000D01*
X-57099186Y34417000D01*
X-56978519Y34646891D01*
X-57075843Y34921252D01*
X-57206144Y35140000D01*
X-47208072Y35140000D01*
X-47208072Y33440000D01*
X-47195812Y33315518D01*
X-47159502Y33195820D01*
X-47100537Y33085506D01*
X-47021185Y32988815D01*
X-46924494Y32909463D01*
X-46814180Y32850498D01*
X-46694482Y32814188D01*
X-46570000Y32801928D01*
X-44870000Y32801928D01*
X-44745518Y32814188D01*
X-44625820Y32850498D01*
X-44515506Y32909463D01*
X-44418815Y32988815D01*
X-44339463Y33085506D01*
X-44280498Y33195820D01*
X-44258487Y33268380D01*
X-44126632Y33136525D01*
X-43883411Y32974010D01*
X-43613158Y32862068D01*
X-43326260Y32805000D01*
X-43033740Y32805000D01*
X-42746842Y32862068D01*
X-42476589Y32974010D01*
X-42233368Y33136525D01*
X-42026525Y33343368D01*
X-41904805Y33525534D01*
X-41835178Y33408645D01*
X-41640269Y33192412D01*
X-41406920Y33018359D01*
X-41144099Y32893175D01*
X-40996890Y32848524D01*
X-40767000Y32969845D01*
X-40767000Y34163000D01*
X-40787000Y34163000D01*
X-40787000Y34417000D01*
X-40767000Y34417000D01*
X-40767000Y35610155D01*
X-40996890Y35731476D01*
X-41144099Y35686825D01*
X-41406920Y35561641D01*
X-41640269Y35387588D01*
X-41835178Y35171355D01*
X-41904805Y35054466D01*
X-42026525Y35236632D01*
X-42233368Y35443475D01*
X-42476589Y35605990D01*
X-42746842Y35717932D01*
X-43033740Y35775000D01*
X-43326260Y35775000D01*
X-43613158Y35717932D01*
X-43883411Y35605990D01*
X-44126632Y35443475D01*
X-44258487Y35311620D01*
X-44280498Y35384180D01*
X-44339463Y35494494D01*
X-44418815Y35591185D01*
X-44515506Y35670537D01*
X-44625820Y35729502D01*
X-44745518Y35765812D01*
X-44870000Y35778072D01*
X-46570000Y35778072D01*
X-46694482Y35765812D01*
X-46814180Y35729502D01*
X-46924494Y35670537D01*
X-47021185Y35591185D01*
X-47100537Y35494494D01*
X-47159502Y35384180D01*
X-47195812Y35264482D01*
X-47208072Y35140000D01*
X-57206144Y35140000D01*
X-57224822Y35171355D01*
X-57419731Y35387588D01*
X-57653080Y35561641D01*
X-57915901Y35686825D01*
X-58063110Y35731476D01*
X-58293000Y35610155D01*
X-58547000Y35610155D01*
X-58776890Y35731476D01*
X-58924099Y35686825D01*
X-59186920Y35561641D01*
X-59420269Y35387588D01*
X-59615178Y35171355D01*
X-59684805Y35054466D01*
X-59806525Y35236632D01*
X-60013368Y35443475D01*
X-60256589Y35605990D01*
X-60526842Y35717932D01*
X-60813740Y35775000D01*
X-61106260Y35775000D01*
X-61393158Y35717932D01*
X-61663411Y35605990D01*
X-61906632Y35443475D01*
X-62038487Y35311620D01*
X-62060498Y35384180D01*
X-62119463Y35494494D01*
X-62198815Y35591185D01*
X-62295506Y35670537D01*
X-62405820Y35729502D01*
X-62525518Y35765812D01*
X-62650000Y35778072D01*
X-64350000Y35778072D01*
X-64474482Y35765812D01*
X-64594180Y35729502D01*
X-64704494Y35670537D01*
X-64801185Y35591185D01*
X-64880537Y35494494D01*
X-64939502Y35384180D01*
X-64975812Y35264482D01*
X-64988072Y35140000D01*
X-68351367Y35140000D01*
X-68210640Y35479746D01*
X-68115748Y35956800D01*
X-68115748Y36443200D01*
X-68210640Y36920254D01*
X-68396777Y37369630D01*
X-68667006Y37774057D01*
X-69010943Y38117994D01*
X-69415370Y38388223D01*
X-69864746Y38574360D01*
X-70341800Y38669252D01*
X-70828200Y38669252D01*
X-71305254Y38574360D01*
X-71754630Y38388223D01*
X-72159057Y38117994D01*
X-72502994Y37774057D01*
X-72773223Y37369630D01*
X-72959360Y36920254D01*
X-73054252Y36443200D01*
X-74803000Y36443200D01*
X-74803000Y46640000D01*
X-64973072Y46640000D01*
X-64973072Y44940000D01*
X-64960812Y44815518D01*
X-64924502Y44695820D01*
X-64865537Y44585506D01*
X-64786185Y44488815D01*
X-64689494Y44409463D01*
X-64579180Y44350498D01*
X-64459482Y44314188D01*
X-64335000Y44301928D01*
X-62635000Y44301928D01*
X-62510518Y44314188D01*
X-62390820Y44350498D01*
X-62280506Y44409463D01*
X-62183815Y44488815D01*
X-62104463Y44585506D01*
X-62045498Y44695820D01*
X-62023487Y44768380D01*
X-61891632Y44636525D01*
X-61648411Y44474010D01*
X-61378158Y44362068D01*
X-61091260Y44305000D01*
X-60798740Y44305000D01*
X-60511842Y44362068D01*
X-60241589Y44474010D01*
X-59998368Y44636525D01*
X-59791525Y44843368D01*
X-59675000Y45017760D01*
X-59558475Y44843368D01*
X-59351632Y44636525D01*
X-59108411Y44474010D01*
X-58838158Y44362068D01*
X-58551260Y44305000D01*
X-58258740Y44305000D01*
X-57971842Y44362068D01*
X-57701589Y44474010D01*
X-57458368Y44636525D01*
X-57251525Y44843368D01*
X-57135000Y45017760D01*
X-57018475Y44843368D01*
X-56811632Y44636525D01*
X-56568411Y44474010D01*
X-56298158Y44362068D01*
X-56011260Y44305000D01*
X-55718740Y44305000D01*
X-55431842Y44362068D01*
X-55161589Y44474010D01*
X-54918368Y44636525D01*
X-54711525Y44843368D01*
X-54595000Y45017760D01*
X-54478475Y44843368D01*
X-54271632Y44636525D01*
X-54028411Y44474010D01*
X-53758158Y44362068D01*
X-53471260Y44305000D01*
X-53178740Y44305000D01*
X-52891842Y44362068D01*
X-52621589Y44474010D01*
X-52378368Y44636525D01*
X-52171525Y44843368D01*
X-52055000Y45017760D01*
X-51938475Y44843368D01*
X-51731632Y44636525D01*
X-51488411Y44474010D01*
X-51218158Y44362068D01*
X-50931260Y44305000D01*
X-50638740Y44305000D01*
X-50351842Y44362068D01*
X-50081589Y44474010D01*
X-49838368Y44636525D01*
X-49631525Y44843368D01*
X-49515000Y45017760D01*
X-49398475Y44843368D01*
X-49191632Y44636525D01*
X-48948411Y44474010D01*
X-48678158Y44362068D01*
X-48391260Y44305000D01*
X-48098740Y44305000D01*
X-47811842Y44362068D01*
X-47541589Y44474010D01*
X-47298368Y44636525D01*
X-47091525Y44843368D01*
X-46975000Y45017760D01*
X-46858475Y44843368D01*
X-46651632Y44636525D01*
X-46408411Y44474010D01*
X-46138158Y44362068D01*
X-45851260Y44305000D01*
X-45558740Y44305000D01*
X-45271842Y44362068D01*
X-45001589Y44474010D01*
X-44758368Y44636525D01*
X-44551525Y44843368D01*
X-44435000Y45017760D01*
X-44318475Y44843368D01*
X-44111632Y44636525D01*
X-43868411Y44474010D01*
X-43598158Y44362068D01*
X-43311260Y44305000D01*
X-43018740Y44305000D01*
X-42731842Y44362068D01*
X-42461589Y44474010D01*
X-42218368Y44636525D01*
X-42011525Y44843368D01*
X-41895000Y45017760D01*
X-41778475Y44843368D01*
X-41571632Y44636525D01*
X-41328411Y44474010D01*
X-41058158Y44362068D01*
X-40771260Y44305000D01*
X-40478740Y44305000D01*
X-40191842Y44362068D01*
X-40039299Y44425253D01*
X-40039299Y43765152D01*
X-40132886Y43625089D01*
X-40203368Y43454929D01*
X-40239300Y43274289D01*
X-40239300Y43090111D01*
X-40203368Y42909471D01*
X-40132886Y42739311D01*
X-40030562Y42586172D01*
X-39900328Y42455938D01*
X-39747189Y42353614D01*
X-39577029Y42283132D01*
X-39396389Y42247200D01*
X-39342999Y42247200D01*
X-39342999Y35000417D01*
X-39444822Y35171355D01*
X-39639731Y35387588D01*
X-39873080Y35561641D01*
X-40135901Y35686825D01*
X-40283110Y35731476D01*
X-40513000Y35610155D01*
X-40513000Y34417000D01*
X-40493000Y34417000D01*
X-40493000Y34163000D01*
X-40513000Y34163000D01*
X-40513000Y32969845D01*
X-40283110Y32848524D01*
X-40135901Y32893175D01*
X-39930379Y32991067D01*
X-39991192Y32930254D01*
X-40019238Y32907237D01*
X-40111087Y32795319D01*
X-40179337Y32667632D01*
X-40189250Y32634953D01*
X-40221365Y32529085D01*
X-40235556Y32385000D01*
X-40232000Y32348895D01*
X-40231999Y31091405D01*
X-40320889Y31054586D01*
X-40474028Y30952262D01*
X-40604262Y30822028D01*
X-40706586Y30668889D01*
X-40777068Y30498729D01*
X-40813000Y30318089D01*
X-40813000Y30133911D01*
X-40777068Y29953271D01*
X-40706586Y29783111D01*
X-40604262Y29629972D01*
X-40474028Y29499738D01*
X-40320889Y29397414D01*
X-40150729Y29326932D01*
X-39970089Y29291000D01*
X-39785911Y29291000D01*
X-39605271Y29326932D01*
X-39435111Y29397414D01*
X-39281972Y29499738D01*
X-39151738Y29629972D01*
X-39049414Y29783111D01*
X-39026668Y29838025D01*
X-38999068Y29699271D01*
X-38928586Y29529111D01*
X-38826262Y29375972D01*
X-38696028Y29245738D01*
X-38542889Y29143414D01*
X-38372729Y29072932D01*
X-38192089Y29037000D01*
X-38007911Y29037000D01*
X-37827271Y29072932D01*
X-37819000Y29076358D01*
X-37819000Y27506951D01*
X-37912586Y27366889D01*
X-37983068Y27196729D01*
X-38019000Y27016089D01*
X-38019000Y26831911D01*
X-37983068Y26651271D01*
X-37912586Y26481111D01*
X-37810262Y26327972D01*
X-37680028Y26197738D01*
X-37526889Y26095414D01*
X-37356729Y26024932D01*
X-37176089Y25989000D01*
X-36991911Y25989000D01*
X-36811271Y26024932D01*
X-36641111Y26095414D01*
X-36487972Y26197738D01*
X-36357738Y26327972D01*
X-36255414Y26481111D01*
X-36200193Y26614428D01*
X-16704822Y26614428D01*
X-16659001Y26260348D01*
X-16544984Y25922013D01*
X-16428901Y25704835D01*
X-16146347Y25587659D01*
X-15064005Y26670000D01*
X-14704795Y26670000D01*
X-13622453Y25587659D01*
X-13339899Y25704835D01*
X-13181282Y26024697D01*
X-13133257Y26202361D01*
X-13095149Y26010782D01*
X-12924786Y25599489D01*
X-12677456Y25229334D01*
X-12362666Y24914544D01*
X-11992511Y24667214D01*
X-11581218Y24496851D01*
X-11144591Y24410000D01*
X-10699409Y24410000D01*
X-10262782Y24496851D01*
X-9851489Y24667214D01*
X-9481334Y24914544D01*
X-9166544Y25229334D01*
X-8919214Y25599489D01*
X-8748851Y26010782D01*
X-8662000Y26447409D01*
X-8662000Y26892591D01*
X-3530000Y26892591D01*
X-3530000Y26447409D01*
X-3443149Y26010782D01*
X-3272786Y25599489D01*
X-3025456Y25229334D01*
X-2710666Y24914544D01*
X-2340511Y24667214D01*
X-1929218Y24496851D01*
X-1492591Y24410000D01*
X-1047409Y24410000D01*
X-610782Y24496851D01*
X-199489Y24667214D01*
X170666Y24914544D01*
X485456Y25229334D01*
X604872Y25408053D01*
X1610059Y25408053D01*
X1727235Y25125499D01*
X2047097Y24966882D01*
X2391758Y24873715D01*
X2747972Y24849578D01*
X3102052Y24895399D01*
X3440387Y25009416D01*
X3657565Y25125499D01*
X3774741Y25408053D01*
X2692400Y26490395D01*
X1610059Y25408053D01*
X604872Y25408053D01*
X732786Y25599489D01*
X903149Y26010782D01*
X939803Y26195053D01*
X1031816Y25922013D01*
X1147899Y25704835D01*
X1430453Y25587659D01*
X2512795Y26670000D01*
X2872005Y26670000D01*
X3954347Y25587659D01*
X4236901Y25704835D01*
X4395518Y26024697D01*
X4488685Y26369358D01*
X4512822Y26725572D01*
X4467001Y27079652D01*
X4352984Y27417987D01*
X4236901Y27635165D01*
X3954347Y27752341D01*
X2872005Y26670000D01*
X2512795Y26670000D01*
X1430453Y27752341D01*
X1147899Y27635165D01*
X989282Y27315303D01*
X941257Y27137639D01*
X903149Y27329218D01*
X732786Y27740511D01*
X604873Y27931947D01*
X1610059Y27931947D01*
X2692400Y26849605D01*
X3774741Y27931947D01*
X3657565Y28214501D01*
X3337703Y28373118D01*
X2993042Y28466285D01*
X2636828Y28490422D01*
X2282748Y28444601D01*
X1944413Y28330584D01*
X1727235Y28214501D01*
X1610059Y27931947D01*
X604873Y27931947D01*
X485456Y28110666D01*
X170666Y28425456D01*
X-199489Y28672786D01*
X-610782Y28843149D01*
X-1047409Y28930000D01*
X-1492591Y28930000D01*
X-1929218Y28843149D01*
X-2340511Y28672786D01*
X-2710666Y28425456D01*
X-3025456Y28110666D01*
X-3272786Y27740511D01*
X-3443149Y27329218D01*
X-3530000Y26892591D01*
X-8662000Y26892591D01*
X-8748851Y27329218D01*
X-8919214Y27740511D01*
X-9166544Y28110666D01*
X-9481334Y28425456D01*
X-9851489Y28672786D01*
X-10262782Y28843149D01*
X-10699409Y28930000D01*
X-11144591Y28930000D01*
X-11581218Y28843149D01*
X-11992511Y28672786D01*
X-12362666Y28425456D01*
X-12677456Y28110666D01*
X-12924786Y27740511D01*
X-13095149Y27329218D01*
X-13131803Y27144947D01*
X-13223816Y27417987D01*
X-13339899Y27635165D01*
X-13622453Y27752341D01*
X-14704795Y26670000D01*
X-15064005Y26670000D01*
X-16146347Y27752341D01*
X-16428901Y27635165D01*
X-16587518Y27315303D01*
X-16680685Y26970642D01*
X-16704822Y26614428D01*
X-36200193Y26614428D01*
X-36184932Y26651271D01*
X-36149000Y26831911D01*
X-36149000Y27016089D01*
X-36184932Y27196729D01*
X-36255414Y27366889D01*
X-36349000Y27506951D01*
X-36349000Y27931947D01*
X-15966741Y27931947D01*
X-14884400Y26849605D01*
X-13802059Y27931947D01*
X-13919235Y28214501D01*
X-14239097Y28373118D01*
X-14583758Y28466285D01*
X-14939972Y28490422D01*
X-15294052Y28444601D01*
X-15632387Y28330584D01*
X-15849565Y28214501D01*
X-15966741Y27931947D01*
X-36349000Y27931947D01*
X-36349000Y30937554D01*
X-35205247Y32081306D01*
X-35205243Y32081311D01*
X-34303053Y32983500D01*
X-30579605Y32983500D01*
X-30543500Y32979944D01*
X-30507395Y32983500D01*
X-30399415Y32994135D01*
X-30260867Y33036163D01*
X-30133180Y33104413D01*
X-30021262Y33196262D01*
X-29998241Y33224313D01*
X-27318803Y35903750D01*
X-27290763Y35926762D01*
X-27270143Y35951888D01*
X-13592000Y35951888D01*
X-13592000Y35676112D01*
X-13538199Y35405635D01*
X-13432664Y35150851D01*
X-13279451Y34921552D01*
X-13084448Y34726549D01*
X-12855149Y34573336D01*
X-12600365Y34467801D01*
X-12329888Y34414000D01*
X-12054112Y34414000D01*
X-11962544Y34432214D01*
X-12068448Y34361451D01*
X-12263451Y34166448D01*
X-12416664Y33937149D01*
X-12522199Y33682365D01*
X-12576000Y33411888D01*
X-12576000Y33136112D01*
X-12522199Y32865635D01*
X-12416664Y32610851D01*
X-12263451Y32381552D01*
X-12068448Y32186549D01*
X-11839149Y32033336D01*
X-11584365Y31927801D01*
X-11313888Y31874000D01*
X-11038112Y31874000D01*
X-10767635Y31927801D01*
X-10512851Y32033336D01*
X-10283552Y32186549D01*
X-10160000Y32310101D01*
X-10036448Y32186549D01*
X-9807149Y32033336D01*
X-9552365Y31927801D01*
X-9281888Y31874000D01*
X-9006112Y31874000D01*
X-8735635Y31927801D01*
X-8480851Y32033336D01*
X-8251552Y32186549D01*
X-8128000Y32310101D01*
X-8004448Y32186549D01*
X-7775149Y32033336D01*
X-7520365Y31927801D01*
X-7249888Y31874000D01*
X-6974112Y31874000D01*
X-6703635Y31927801D01*
X-6448851Y32033336D01*
X-6219552Y32186549D01*
X-6096000Y32310101D01*
X-5972448Y32186549D01*
X-5743149Y32033336D01*
X-5488365Y31927801D01*
X-5217888Y31874000D01*
X-4942112Y31874000D01*
X-4671635Y31927801D01*
X-4416851Y32033336D01*
X-4187552Y32186549D01*
X-4064000Y32310101D01*
X-3940448Y32186549D01*
X-3711149Y32033336D01*
X-3456365Y31927801D01*
X-3185888Y31874000D01*
X-2910112Y31874000D01*
X-2639635Y31927801D01*
X-2384851Y32033336D01*
X-2273278Y32107887D01*
X-2232185Y32057815D01*
X-2135494Y31978463D01*
X-2025180Y31919498D01*
X-1905482Y31883188D01*
X-1781000Y31870928D01*
X-251000Y31870928D01*
X-126518Y31883188D01*
X-6820Y31919498D01*
X103494Y31978463D01*
X200185Y32057815D01*
X279537Y32154506D01*
X338502Y32264820D01*
X374812Y32384518D01*
X387072Y32509000D01*
X387072Y34039000D01*
X374812Y34163482D01*
X338502Y34283180D01*
X279537Y34393494D01*
X245192Y34435344D01*
X408365Y34467801D01*
X663149Y34573336D01*
X892448Y34726549D01*
X1087451Y34921552D01*
X1240664Y35150851D01*
X1346199Y35405635D01*
X1400000Y35676112D01*
X1400000Y35951888D01*
X1346199Y36222365D01*
X1254727Y36443200D01*
X12235748Y36443200D01*
X12235748Y35956800D01*
X12330640Y35479746D01*
X12516777Y35030370D01*
X12787006Y34625943D01*
X13130943Y34282006D01*
X13535370Y34011777D01*
X13984746Y33825640D01*
X14461800Y33730748D01*
X14948200Y33730748D01*
X15425254Y33825640D01*
X15874630Y34011777D01*
X16279057Y34282006D01*
X16622994Y34625943D01*
X16893223Y35030370D01*
X17079360Y35479746D01*
X17174252Y35956800D01*
X17174252Y36443200D01*
X17079360Y36920254D01*
X16893223Y37369630D01*
X16622994Y37774057D01*
X16279057Y38117994D01*
X15874630Y38388223D01*
X15425254Y38574360D01*
X14948200Y38669252D01*
X14461800Y38669252D01*
X13984746Y38574360D01*
X13535370Y38388223D01*
X13130943Y38117994D01*
X12787006Y37774057D01*
X12516777Y37369630D01*
X12330640Y36920254D01*
X12235748Y36443200D01*
X1254727Y36443200D01*
X1240664Y36477149D01*
X1087451Y36706448D01*
X892448Y36901451D01*
X663149Y37054664D01*
X408365Y37160199D01*
X137888Y37214000D01*
X-137888Y37214000D01*
X-408365Y37160199D01*
X-663149Y37054664D01*
X-892448Y36901451D01*
X-1016000Y36777899D01*
X-1139552Y36901451D01*
X-1368851Y37054664D01*
X-1623635Y37160199D01*
X-1894112Y37214000D01*
X-2169888Y37214000D01*
X-2440365Y37160199D01*
X-2695149Y37054664D01*
X-2924448Y36901451D01*
X-3048000Y36777899D01*
X-3171552Y36901451D01*
X-3400851Y37054664D01*
X-3655635Y37160199D01*
X-3926112Y37214000D01*
X-4201888Y37214000D01*
X-4472365Y37160199D01*
X-4727149Y37054664D01*
X-4956448Y36901451D01*
X-5151451Y36706448D01*
X-5304664Y36477149D01*
X-5410199Y36222365D01*
X-5464000Y35951888D01*
X-5464000Y35676112D01*
X-5410199Y35405635D01*
X-5304664Y35150851D01*
X-5151451Y34921552D01*
X-4956448Y34726549D01*
X-4850544Y34655786D01*
X-4942112Y34674000D01*
X-5217888Y34674000D01*
X-5488365Y34620199D01*
X-5743149Y34514664D01*
X-5972448Y34361451D01*
X-6096000Y34237899D01*
X-6219552Y34361451D01*
X-6448851Y34514664D01*
X-6703635Y34620199D01*
X-6974112Y34674000D01*
X-7249888Y34674000D01*
X-7341456Y34655786D01*
X-7235552Y34726549D01*
X-7040549Y34921552D01*
X-6887336Y35150851D01*
X-6781801Y35405635D01*
X-6728000Y35676112D01*
X-6728000Y35951888D01*
X-6781801Y36222365D01*
X-6887336Y36477149D01*
X-7040549Y36706448D01*
X-7235552Y36901451D01*
X-7464851Y37054664D01*
X-7719635Y37160199D01*
X-7990112Y37214000D01*
X-8265888Y37214000D01*
X-8536365Y37160199D01*
X-8791149Y37054664D01*
X-9020448Y36901451D01*
X-9144000Y36777899D01*
X-9267552Y36901451D01*
X-9496851Y37054664D01*
X-9751635Y37160199D01*
X-10022112Y37214000D01*
X-10297888Y37214000D01*
X-10568365Y37160199D01*
X-10823149Y37054664D01*
X-11052448Y36901451D01*
X-11176000Y36777899D01*
X-11299552Y36901451D01*
X-11528851Y37054664D01*
X-11783635Y37160199D01*
X-12054112Y37214000D01*
X-12329888Y37214000D01*
X-12600365Y37160199D01*
X-12855149Y37054664D01*
X-13084448Y36901451D01*
X-13279451Y36706448D01*
X-13432664Y36477149D01*
X-13538199Y36222365D01*
X-13592000Y35951888D01*
X-27270143Y35951888D01*
X-27267750Y35954803D01*
X-27267747Y35954806D01*
X-27198914Y36038679D01*
X-27198913Y36038680D01*
X-27130663Y36166367D01*
X-27089574Y36301820D01*
X-27088635Y36304914D01*
X-27085184Y36339959D01*
X-27078000Y36412895D01*
X-27078000Y36412902D01*
X-27074445Y36448999D01*
X-27078000Y36485096D01*
X-27078000Y46124595D01*
X-26989111Y46161414D01*
X-26835972Y46263738D01*
X-26705738Y46393972D01*
X-26603414Y46547111D01*
X-26532932Y46717271D01*
X-26497000Y46897911D01*
X-26497000Y47082089D01*
X-26532932Y47262729D01*
X-26603414Y47432889D01*
X-26705738Y47586028D01*
X-26835972Y47716262D01*
X-26989111Y47818586D01*
X-27159271Y47889068D01*
X-27339911Y47925000D01*
X-27524089Y47925000D01*
X-27704729Y47889068D01*
X-27874889Y47818586D01*
X-28028028Y47716262D01*
X-28158262Y47586028D01*
X-28198788Y47525377D01*
X-28292411Y47544000D01*
X-28476589Y47544000D01*
X-28657229Y47508068D01*
X-28827389Y47437586D01*
X-28980528Y47335262D01*
X-29110762Y47205028D01*
X-29213086Y47051889D01*
X-29283568Y46881729D01*
X-29319500Y46701089D01*
X-29319500Y46516911D01*
X-29283568Y46336271D01*
X-29213086Y46166111D01*
X-29119500Y46026049D01*
X-29119499Y36644408D01*
X-29427419Y36336487D01*
X-29427424Y36336483D01*
X-30983396Y34780510D01*
X-34706857Y34780510D01*
X-34742952Y34784065D01*
X-34779047Y34780510D01*
X-34779056Y34780510D01*
X-34887036Y34769875D01*
X-35025584Y34727847D01*
X-35104000Y34685933D01*
X-35104000Y44556781D01*
X-35016262Y44425472D01*
X-34886028Y44295238D01*
X-34732889Y44192914D01*
X-34562729Y44122432D01*
X-34382089Y44086500D01*
X-34197911Y44086500D01*
X-34017271Y44122432D01*
X-33847111Y44192914D01*
X-33693972Y44295238D01*
X-33689436Y44299774D01*
X-33665068Y44177271D01*
X-33594586Y44007111D01*
X-33492262Y43853972D01*
X-33362028Y43723738D01*
X-33208889Y43621414D01*
X-33038729Y43550932D01*
X-32858089Y43515000D01*
X-32673911Y43515000D01*
X-32493271Y43550932D01*
X-32385000Y43595779D01*
X-32276729Y43550932D01*
X-32096089Y43515000D01*
X-31911911Y43515000D01*
X-31731271Y43550932D01*
X-31561111Y43621414D01*
X-31407972Y43723738D01*
X-31277738Y43853972D01*
X-31175414Y44007111D01*
X-31104932Y44177271D01*
X-31069000Y44357911D01*
X-31069000Y44542089D01*
X-31104932Y44722729D01*
X-31175414Y44892889D01*
X-31277738Y45046028D01*
X-31407972Y45176262D01*
X-31459500Y45210692D01*
X-31459500Y49557397D01*
X-31455944Y49593502D01*
X-31470135Y49737587D01*
X-31485840Y49789357D01*
X-31512163Y49876134D01*
X-31580413Y50003821D01*
X-31636479Y50072137D01*
X-31649247Y50087695D01*
X-31649250Y50087698D01*
X-31672263Y50115739D01*
X-31700304Y50138751D01*
X-32211767Y50650213D01*
X-32285000Y50723446D01*
X-32285000Y55131024D01*
X-2252935Y55131024D01*
X-2252935Y54946846D01*
X-2217003Y54766206D01*
X-2146521Y54596046D01*
X-2044197Y54442907D01*
X-1913963Y54312673D01*
X-1760824Y54210349D01*
X-1606552Y54146448D01*
X-1542651Y53992176D01*
X-1440327Y53839037D01*
X-1310093Y53708803D01*
X-1156954Y53606479D01*
X-986794Y53535997D01*
X-806154Y53500065D01*
X-641997Y53500065D01*
X-622521Y53453046D01*
X-520197Y53299907D01*
X-389963Y53169673D01*
X-236824Y53067349D01*
X-82552Y53003448D01*
X-18651Y52849176D01*
X83673Y52696037D01*
X213907Y52565803D01*
X367046Y52463479D01*
X537206Y52392997D01*
X717846Y52357065D01*
X902024Y52357065D01*
X1082664Y52392997D01*
X1252824Y52463479D01*
X1405963Y52565803D01*
X1536197Y52696037D01*
X1638521Y52849176D01*
X1709003Y53019336D01*
X1744935Y53199976D01*
X1744935Y53314600D01*
X2288243Y53314600D01*
X2290726Y53312116D01*
X2278972Y53304262D01*
X2148738Y53174028D01*
X2046414Y53020889D01*
X1975932Y52850729D01*
X1940000Y52670089D01*
X1940000Y52485911D01*
X1975932Y52305271D01*
X2046414Y52135111D01*
X2148738Y51981972D01*
X2278972Y51851738D01*
X2432111Y51749414D01*
X2602271Y51678932D01*
X2782911Y51643000D01*
X2967089Y51643000D01*
X3147729Y51678932D01*
X3302000Y51742833D01*
X3370428Y51714489D01*
X3316099Y51633179D01*
X3079776Y51062646D01*
X2959300Y50456971D01*
X2959300Y49839429D01*
X3079776Y49233754D01*
X3316099Y48663221D01*
X3659186Y48149754D01*
X4095854Y47713086D01*
X4609321Y47369999D01*
X5179854Y47133676D01*
X5785529Y47013200D01*
X6403071Y47013200D01*
X7008746Y47133676D01*
X7579279Y47369999D01*
X8092746Y47713086D01*
X8529414Y48149754D01*
X8872501Y48663221D01*
X9108824Y49233754D01*
X9229300Y49839429D01*
X9229300Y50456971D01*
X9108824Y51062646D01*
X8872501Y51633179D01*
X8529414Y52146646D01*
X8092746Y52583314D01*
X7579279Y52926401D01*
X7008746Y53162724D01*
X6403071Y53283200D01*
X5785529Y53283200D01*
X5179854Y53162724D01*
X4609321Y52926401D01*
X4599455Y52919808D01*
X4557586Y53020889D01*
X4455262Y53174028D01*
X4325028Y53304262D01*
X4216400Y53376845D01*
X4216400Y53643253D01*
X4219839Y53678171D01*
X4216400Y53713089D01*
X4216400Y53713106D01*
X4206109Y53817590D01*
X4165442Y53951651D01*
X4099402Y54075203D01*
X4057609Y54126128D01*
X4032797Y54156362D01*
X4032793Y54156366D01*
X4010527Y54183497D01*
X3983396Y54205763D01*
X3278771Y54910386D01*
X3256497Y54937527D01*
X3148203Y55026402D01*
X3024651Y55092442D01*
X2890590Y55133109D01*
X2786106Y55143400D01*
X2786096Y55143400D01*
X2751170Y55146840D01*
X2716244Y55143400D01*
X1093756Y55143400D01*
X1058830Y55146840D01*
X1023904Y55143400D01*
X1023895Y55143400D01*
X919411Y55133109D01*
X785350Y55092442D01*
X670574Y55031093D01*
X661798Y55026402D01*
X580639Y54959797D01*
X580635Y54959793D01*
X553504Y54937527D01*
X531238Y54910395D01*
X426289Y54805447D01*
X358991Y54818834D01*
X808400Y55268243D01*
X835526Y55290504D01*
X857788Y55317630D01*
X857798Y55317640D01*
X924402Y55398798D01*
X990442Y55522349D01*
X1031109Y55656411D01*
X1034485Y55690689D01*
X1041400Y55760895D01*
X1041400Y55760902D01*
X1044840Y55795831D01*
X1041400Y55830759D01*
X1041400Y56226089D01*
X14686000Y56226089D01*
X14686000Y56041911D01*
X14721932Y55861271D01*
X14792414Y55691111D01*
X14894738Y55537972D01*
X15024972Y55407738D01*
X15178111Y55305414D01*
X15348271Y55234932D01*
X15528911Y55199000D01*
X15713089Y55199000D01*
X15893729Y55234932D01*
X16063889Y55305414D01*
X16217028Y55407738D01*
X16233290Y55424000D01*
X16405710Y55424000D01*
X16421972Y55407738D01*
X16575111Y55305414D01*
X16745271Y55234932D01*
X16925911Y55199000D01*
X17110089Y55199000D01*
X17290729Y55234932D01*
X17460889Y55305414D01*
X17614028Y55407738D01*
X17744262Y55537972D01*
X17846586Y55691111D01*
X17917068Y55861271D01*
X17953000Y56041911D01*
X17953000Y56226089D01*
X17917068Y56406729D01*
X17846586Y56576889D01*
X17744262Y56730028D01*
X17614028Y56860262D01*
X17460889Y56962586D01*
X17290729Y57033068D01*
X17110089Y57069000D01*
X16925911Y57069000D01*
X16745271Y57033068D01*
X16575111Y56962586D01*
X16421972Y56860262D01*
X16405710Y56844000D01*
X16233290Y56844000D01*
X16217028Y56860262D01*
X16063889Y56962586D01*
X15893729Y57033068D01*
X15713089Y57069000D01*
X15528911Y57069000D01*
X15348271Y57033068D01*
X15178111Y56962586D01*
X15024972Y56860262D01*
X14894738Y56730028D01*
X14792414Y56576889D01*
X14721932Y56406729D01*
X14686000Y56226089D01*
X1041400Y56226089D01*
X1041400Y57453245D01*
X1044840Y57488171D01*
X1041400Y57523097D01*
X1041400Y57523106D01*
X1031109Y57627590D01*
X990442Y57761651D01*
X924402Y57885203D01*
X835527Y57993497D01*
X808390Y58015767D01*
X15572Y58808585D01*
X-6703Y58835727D01*
X-17301Y58844424D01*
X-80536Y58997089D01*
X-182860Y59150228D01*
X-313094Y59280462D01*
X-466233Y59382786D01*
X-636393Y59453268D01*
X-817033Y59489200D01*
X-1001211Y59489200D01*
X-1181851Y59453268D01*
X-1352011Y59382786D01*
X-1505150Y59280462D01*
X-1635384Y59150228D01*
X-1737708Y58997089D01*
X-1808190Y58826929D01*
X-1844122Y58646289D01*
X-1844122Y58462111D01*
X-1808190Y58281471D01*
X-1744289Y58127200D01*
X-1808190Y57972929D01*
X-1844122Y57792289D01*
X-1844122Y57608111D01*
X-1808190Y57427471D01*
X-1737708Y57257311D01*
X-1635384Y57104172D01*
X-1505150Y56973938D01*
X-1352011Y56871614D01*
X-1181851Y56801132D01*
X-1001211Y56765200D01*
X-817033Y56765200D01*
X-787399Y56771095D01*
X-787400Y56258758D01*
X-1097710Y55948447D01*
X-1225846Y55973935D01*
X-1410024Y55973935D01*
X-1590664Y55938003D01*
X-1760824Y55867521D01*
X-1913963Y55765197D01*
X-2044197Y55634963D01*
X-2146521Y55481824D01*
X-2217003Y55311664D01*
X-2252935Y55131024D01*
X-32285000Y55131024D01*
X-32285000Y58823379D01*
X-32169972Y58900238D01*
X-32039738Y59030472D01*
X-31937414Y59183611D01*
X-31866932Y59353771D01*
X-31831000Y59534411D01*
X-31831000Y59718589D01*
X-31866932Y59899229D01*
X-31937414Y60069389D01*
X-32039738Y60222528D01*
X-32169972Y60352762D01*
X-32323111Y60455086D01*
X-32493271Y60525568D01*
X-32673911Y60561500D01*
X-32858089Y60561500D01*
X-33038729Y60525568D01*
X-33178750Y60467570D01*
X-33318771Y60525568D01*
X-33499411Y60561500D01*
X-33683589Y60561500D01*
X-33864229Y60525568D01*
X-34034389Y60455086D01*
X-34187528Y60352762D01*
X-34317762Y60222528D01*
X-34420086Y60069389D01*
X-34490568Y59899229D01*
X-34526500Y59718589D01*
X-34526500Y59534411D01*
X-34490568Y59353771D01*
X-34420086Y59183611D01*
X-34317762Y59030472D01*
X-34187528Y58900238D01*
X-34082009Y58829733D01*
X-34082010Y50319655D01*
X-34085566Y50283550D01*
X-34071798Y50143756D01*
X-34071375Y50139466D01*
X-34029347Y50000918D01*
X-33961097Y49873231D01*
X-33869248Y49761313D01*
X-33841202Y49738296D01*
X-33764733Y49661827D01*
X-33256510Y49153603D01*
X-33256510Y47836976D01*
X-33382271Y47889068D01*
X-33562911Y47925000D01*
X-33747089Y47925000D01*
X-33927729Y47889068D01*
X-34097889Y47818586D01*
X-34251028Y47716262D01*
X-34381262Y47586028D01*
X-34483586Y47432889D01*
X-34554068Y47262729D01*
X-34586932Y47097515D01*
X-34784192Y46900254D01*
X-34812237Y46877238D01*
X-34879000Y46795887D01*
X-34879000Y46828089D01*
X-34914932Y47008729D01*
X-34985414Y47178889D01*
X-35087738Y47332028D01*
X-35217972Y47462262D01*
X-35371111Y47564586D01*
X-35541271Y47635068D01*
X-35721911Y47671000D01*
X-35906089Y47671000D01*
X-36086729Y47635068D01*
X-36195000Y47590221D01*
X-36303271Y47635068D01*
X-36483911Y47671000D01*
X-36668089Y47671000D01*
X-36848729Y47635068D01*
X-37018889Y47564586D01*
X-37172028Y47462262D01*
X-37302262Y47332028D01*
X-37404586Y47178889D01*
X-37475068Y47008729D01*
X-37511000Y46828089D01*
X-37511000Y46643911D01*
X-37475068Y46463271D01*
X-37404586Y46293111D01*
X-37302262Y46139972D01*
X-37286000Y46123710D01*
X-37285999Y35340886D01*
X-37286000Y35340876D01*
X-37285999Y33325409D01*
X-38262866Y32348542D01*
X-38346963Y32383376D01*
X-38440560Y32401994D01*
X-38113807Y32728746D01*
X-38085762Y32751762D01*
X-37993913Y32863680D01*
X-37925663Y32991367D01*
X-37883635Y33129915D01*
X-37873000Y33237895D01*
X-37869444Y33274000D01*
X-37873000Y33310105D01*
X-37873000Y51233049D01*
X-37779414Y51373111D01*
X-37708932Y51543271D01*
X-37673000Y51723911D01*
X-37673000Y51908089D01*
X-37708932Y52088729D01*
X-37779414Y52258889D01*
X-37881738Y52412028D01*
X-38011972Y52542262D01*
X-38165111Y52644586D01*
X-38335271Y52715068D01*
X-38515911Y52751000D01*
X-38700089Y52751000D01*
X-38880729Y52715068D01*
X-39050889Y52644586D01*
X-39204028Y52542262D01*
X-39334262Y52412028D01*
X-39436586Y52258889D01*
X-39507068Y52088729D01*
X-39543000Y51908089D01*
X-39543000Y51723911D01*
X-39507068Y51543271D01*
X-39436586Y51373111D01*
X-39343000Y51233049D01*
X-39343000Y50340200D01*
X-39396389Y50340200D01*
X-39577029Y50304268D01*
X-39747189Y50233786D01*
X-39900328Y50131462D01*
X-40030562Y50001228D01*
X-40132886Y49848089D01*
X-40173395Y49750291D01*
X-40191842Y49757932D01*
X-40478740Y49815000D01*
X-40771260Y49815000D01*
X-41058158Y49757932D01*
X-41328411Y49645990D01*
X-41571632Y49483475D01*
X-41778475Y49276632D01*
X-41895000Y49102240D01*
X-42011525Y49276632D01*
X-42218368Y49483475D01*
X-42461589Y49645990D01*
X-42731842Y49757932D01*
X-43018740Y49815000D01*
X-43311260Y49815000D01*
X-43598158Y49757932D01*
X-43868411Y49645990D01*
X-44111632Y49483475D01*
X-44318475Y49276632D01*
X-44435000Y49102240D01*
X-44551525Y49276632D01*
X-44758368Y49483475D01*
X-45001589Y49645990D01*
X-45271842Y49757932D01*
X-45558740Y49815000D01*
X-45851260Y49815000D01*
X-46138158Y49757932D01*
X-46408411Y49645990D01*
X-46651632Y49483475D01*
X-46858475Y49276632D01*
X-46975000Y49102240D01*
X-47091525Y49276632D01*
X-47298368Y49483475D01*
X-47541589Y49645990D01*
X-47811842Y49757932D01*
X-48098740Y49815000D01*
X-48391260Y49815000D01*
X-48678158Y49757932D01*
X-48948411Y49645990D01*
X-49191632Y49483475D01*
X-49398475Y49276632D01*
X-49515000Y49102240D01*
X-49631525Y49276632D01*
X-49838368Y49483475D01*
X-50081589Y49645990D01*
X-50351842Y49757932D01*
X-50638740Y49815000D01*
X-50931260Y49815000D01*
X-51218158Y49757932D01*
X-51488411Y49645990D01*
X-51731632Y49483475D01*
X-51938475Y49276632D01*
X-52055000Y49102240D01*
X-52171525Y49276632D01*
X-52378368Y49483475D01*
X-52621589Y49645990D01*
X-52891842Y49757932D01*
X-53178740Y49815000D01*
X-53471260Y49815000D01*
X-53758158Y49757932D01*
X-54028411Y49645990D01*
X-54271632Y49483475D01*
X-54478475Y49276632D01*
X-54595000Y49102240D01*
X-54711525Y49276632D01*
X-54918368Y49483475D01*
X-55161589Y49645990D01*
X-55431842Y49757932D01*
X-55718740Y49815000D01*
X-56011260Y49815000D01*
X-56298158Y49757932D01*
X-56568411Y49645990D01*
X-56811632Y49483475D01*
X-57018475Y49276632D01*
X-57135000Y49102240D01*
X-57251525Y49276632D01*
X-57458368Y49483475D01*
X-57701589Y49645990D01*
X-57971842Y49757932D01*
X-58258740Y49815000D01*
X-58551260Y49815000D01*
X-58838158Y49757932D01*
X-59108411Y49645990D01*
X-59351632Y49483475D01*
X-59558475Y49276632D01*
X-59680195Y49094466D01*
X-59749822Y49211355D01*
X-59944731Y49427588D01*
X-60178080Y49601641D01*
X-60440901Y49726825D01*
X-60588110Y49771476D01*
X-60818000Y49650155D01*
X-60818000Y48457000D01*
X-60798000Y48457000D01*
X-60798000Y48203000D01*
X-60818000Y48203000D01*
X-60818000Y48183000D01*
X-61072000Y48183000D01*
X-61072000Y48203000D01*
X-61092000Y48203000D01*
X-61092000Y48457000D01*
X-61072000Y48457000D01*
X-61072000Y49650155D01*
X-61301890Y49771476D01*
X-61449099Y49726825D01*
X-61711920Y49601641D01*
X-61945269Y49427588D01*
X-62140178Y49211355D01*
X-62209805Y49094466D01*
X-62331525Y49276632D01*
X-62538368Y49483475D01*
X-62781589Y49645990D01*
X-63051842Y49757932D01*
X-63338740Y49815000D01*
X-63631260Y49815000D01*
X-63918158Y49757932D01*
X-64188411Y49645990D01*
X-64431632Y49483475D01*
X-64638475Y49276632D01*
X-64800990Y49033411D01*
X-64912932Y48763158D01*
X-64970000Y48476260D01*
X-64970000Y48183740D01*
X-64912932Y47896842D01*
X-64800990Y47626589D01*
X-64638475Y47383368D01*
X-64506620Y47251513D01*
X-64579180Y47229502D01*
X-64689494Y47170537D01*
X-64786185Y47091185D01*
X-64865537Y46994494D01*
X-64924502Y46884180D01*
X-64960812Y46764482D01*
X-64973072Y46640000D01*
X-74803000Y46640000D01*
X-74803000Y60823489D01*
X-3856000Y60823489D01*
X-3856000Y60639311D01*
X-3820068Y60458671D01*
X-3749586Y60288511D01*
X-3647262Y60135372D01*
X-3517028Y60005138D01*
X-3363889Y59902814D01*
X-3193729Y59832332D01*
X-3013089Y59796400D01*
X-2828911Y59796400D01*
X-2648271Y59832332D01*
X-2478111Y59902814D01*
X-2338049Y59996400D01*
X-2208551Y59996400D01*
X-2068489Y59902814D01*
X-1898329Y59832332D01*
X-1717689Y59796400D01*
X-1533511Y59796400D01*
X-1352871Y59832332D01*
X-1182711Y59902814D01*
X-1029572Y60005138D01*
X-899338Y60135372D01*
X-797014Y60288511D01*
X-726532Y60458671D01*
X-690600Y60639311D01*
X-690600Y60823489D01*
X-726532Y61004129D01*
X-797014Y61174289D01*
X-899338Y61327428D01*
X-1029572Y61457662D01*
X-1182711Y61559986D01*
X-1352871Y61630468D01*
X-1533511Y61666400D01*
X-1717689Y61666400D01*
X-1898329Y61630468D01*
X-2068489Y61559986D01*
X-2208551Y61466400D01*
X-2338049Y61466400D01*
X-2478111Y61559986D01*
X-2648271Y61630468D01*
X-2828911Y61666400D01*
X-3013089Y61666400D01*
X-3193729Y61630468D01*
X-3363889Y61559986D01*
X-3517028Y61457662D01*
X-3647262Y61327428D01*
X-3749586Y61174289D01*
X-3820068Y61004129D01*
X-3856000Y60823489D01*
X-74803000Y60823489D01*
X-74803000Y65786000D01*
X-29895524Y65786000D01*
X-29891000Y65740068D01*
X-29891000Y65693911D01*
X-29890999Y65693906D01*
X-29891000Y62322089D01*
X-29891000Y62137911D01*
X-29881995Y62092640D01*
X-29877471Y62046709D01*
X-29864073Y62002541D01*
X-29855068Y61957271D01*
X-29837405Y61914628D01*
X-29824007Y61870461D01*
X-29802250Y61829757D01*
X-29784586Y61787111D01*
X-29758942Y61748732D01*
X-29737186Y61708029D01*
X-29707906Y61672351D01*
X-29682262Y61633972D01*
X-29649624Y61601334D01*
X-29620344Y61565656D01*
X-29584665Y61536375D01*
X-29552028Y61503738D01*
X-29513653Y61478097D01*
X-29477972Y61448814D01*
X-29437264Y61427055D01*
X-29398889Y61401414D01*
X-29356248Y61383752D01*
X-29315540Y61361993D01*
X-29271369Y61348594D01*
X-29228729Y61330932D01*
X-29183462Y61321928D01*
X-29139292Y61308529D01*
X-29093359Y61304005D01*
X-29048089Y61295000D01*
X-29001932Y61295000D01*
X-28956000Y61290476D01*
X-28910068Y61295000D01*
X-28863911Y61295000D01*
X-28818640Y61304005D01*
X-28772709Y61308529D01*
X-28728541Y61321927D01*
X-28683271Y61330932D01*
X-28640628Y61348595D01*
X-28596461Y61361993D01*
X-28555757Y61383750D01*
X-28513111Y61401414D01*
X-28474732Y61427058D01*
X-28434029Y61448814D01*
X-28398351Y61478094D01*
X-28359972Y61503738D01*
X-28327334Y61536376D01*
X-28291656Y61565656D01*
X-28262375Y61601335D01*
X-28229738Y61633972D01*
X-28204097Y61672347D01*
X-28174814Y61708028D01*
X-28153055Y61748736D01*
X-28127414Y61787111D01*
X-28109752Y61829752D01*
X-28087993Y61870460D01*
X-28074594Y61914631D01*
X-28056932Y61957271D01*
X-28047928Y62002538D01*
X-28034529Y62046708D01*
X-28030005Y62092641D01*
X-28021000Y62137911D01*
X-28021000Y64100089D01*
X1732000Y64100089D01*
X1732000Y63915911D01*
X1767932Y63735271D01*
X1838414Y63565111D01*
X1940738Y63411972D01*
X2070972Y63281738D01*
X2224111Y63179414D01*
X2394271Y63108932D01*
X2574911Y63073000D01*
X2759089Y63073000D01*
X2939729Y63108932D01*
X3109889Y63179414D01*
X3249951Y63273000D01*
X5330948Y63273000D01*
X5471010Y63179414D01*
X5641170Y63108932D01*
X5821810Y63073000D01*
X6005988Y63073000D01*
X6186628Y63108932D01*
X6356788Y63179414D01*
X6509927Y63281738D01*
X6640161Y63411972D01*
X6742485Y63565111D01*
X6812967Y63735271D01*
X6848899Y63915911D01*
X6848899Y64100089D01*
X6812967Y64280729D01*
X6742485Y64450889D01*
X6640161Y64604028D01*
X6509927Y64734262D01*
X6356788Y64836586D01*
X6186628Y64907068D01*
X6005988Y64943000D01*
X5821810Y64943000D01*
X5641170Y64907068D01*
X5471010Y64836586D01*
X5330948Y64743000D01*
X3249951Y64743000D01*
X3109889Y64836586D01*
X2939729Y64907068D01*
X2759089Y64943000D01*
X2574911Y64943000D01*
X2394271Y64907068D01*
X2224111Y64836586D01*
X2070972Y64734262D01*
X1940738Y64604028D01*
X1838414Y64450889D01*
X1767932Y64280729D01*
X1732000Y64100089D01*
X-28021000Y64100089D01*
X-28021000Y65740068D01*
X-28016476Y65786000D01*
X-28021000Y65831932D01*
X-28021000Y65878089D01*
X-28030005Y65923359D01*
X-28034529Y65969292D01*
X-28047928Y66013462D01*
X-28049086Y66019288D01*
X1746199Y66019288D01*
X1746199Y65835110D01*
X1782131Y65654470D01*
X1852613Y65484310D01*
X1954937Y65331171D01*
X2085171Y65200937D01*
X2238310Y65098613D01*
X2408470Y65028131D01*
X2589110Y64992199D01*
X2773288Y64992199D01*
X2953928Y65028131D01*
X3124088Y65098613D01*
X3264150Y65192199D01*
X5400248Y65192199D01*
X5540310Y65098613D01*
X5710470Y65028131D01*
X5891110Y64992199D01*
X6075288Y64992199D01*
X6255928Y65028131D01*
X6426088Y65098613D01*
X6579227Y65200937D01*
X6709461Y65331171D01*
X6811785Y65484310D01*
X6882267Y65654470D01*
X6918199Y65835110D01*
X6918199Y66019288D01*
X6882267Y66199928D01*
X6811785Y66370088D01*
X6709461Y66523227D01*
X6579227Y66653461D01*
X6426088Y66755785D01*
X6255928Y66826267D01*
X6075288Y66862199D01*
X5891110Y66862199D01*
X5710470Y66826267D01*
X5540310Y66755785D01*
X5400248Y66662199D01*
X3264150Y66662199D01*
X3124088Y66755785D01*
X2953928Y66826267D01*
X2773288Y66862199D01*
X2589110Y66862199D01*
X2408470Y66826267D01*
X2238310Y66755785D01*
X2085171Y66653461D01*
X1954937Y66523227D01*
X1852613Y66370088D01*
X1782131Y66199928D01*
X1746199Y66019288D01*
X-28049086Y66019288D01*
X-28056932Y66058729D01*
X-28074594Y66101369D01*
X-28087993Y66145540D01*
X-28109752Y66186248D01*
X-28127414Y66228889D01*
X-28153055Y66267264D01*
X-28174814Y66307972D01*
X-28204097Y66343653D01*
X-28229738Y66382028D01*
X-28262375Y66414665D01*
X-28291656Y66450344D01*
X-28327335Y66479625D01*
X-28359972Y66512262D01*
X-28398347Y66537903D01*
X-28434028Y66567186D01*
X-28474736Y66588945D01*
X-28513111Y66614586D01*
X-28555752Y66632248D01*
X-28596460Y66654007D01*
X-28640631Y66667406D01*
X-28683271Y66685068D01*
X-28728538Y66694072D01*
X-28772708Y66707471D01*
X-28818641Y66711995D01*
X-28863911Y66721000D01*
X-28910068Y66721000D01*
X-28956000Y66725524D01*
X-29001932Y66721000D01*
X-29048089Y66721000D01*
X-29093359Y66711995D01*
X-29139292Y66707471D01*
X-29183462Y66694072D01*
X-29228729Y66685068D01*
X-29271369Y66667406D01*
X-29315540Y66654007D01*
X-29356248Y66632248D01*
X-29398889Y66614586D01*
X-29437264Y66588945D01*
X-29477972Y66567186D01*
X-29513653Y66537903D01*
X-29552028Y66512262D01*
X-29584665Y66479625D01*
X-29620344Y66450344D01*
X-29649625Y66414665D01*
X-29682262Y66382028D01*
X-29707903Y66343653D01*
X-29737186Y66307972D01*
X-29758945Y66267264D01*
X-29784586Y66228889D01*
X-29802248Y66186248D01*
X-29824007Y66145540D01*
X-29837406Y66101369D01*
X-29855068Y66058729D01*
X-29864072Y66013462D01*
X-29877471Y65969292D01*
X-29881995Y65923359D01*
X-29891000Y65878089D01*
X-29891000Y65831932D01*
X-29895524Y65786000D01*
X-74803000Y65786000D01*
X-74803000Y69619288D01*
X1673801Y69619288D01*
X1673801Y69435110D01*
X1709733Y69254470D01*
X1780215Y69084310D01*
X1882539Y68931171D01*
X2012773Y68800937D01*
X2165912Y68698613D01*
X2336072Y68628131D01*
X2516712Y68592199D01*
X2700890Y68592199D01*
X2881530Y68628131D01*
X3051690Y68698613D01*
X3191752Y68792199D01*
X5444248Y68792199D01*
X5584310Y68698613D01*
X5754470Y68628131D01*
X5935110Y68592199D01*
X6119288Y68592199D01*
X6299928Y68628131D01*
X6470088Y68698613D01*
X6623227Y68800937D01*
X6753461Y68931171D01*
X6855785Y69084310D01*
X6926267Y69254470D01*
X6962199Y69435110D01*
X6962199Y69619288D01*
X6926267Y69799928D01*
X6855785Y69970088D01*
X6753461Y70123227D01*
X6623227Y70253461D01*
X6470088Y70355785D01*
X6299928Y70426267D01*
X6119288Y70462199D01*
X5935110Y70462199D01*
X5754470Y70426267D01*
X5584310Y70355785D01*
X5444248Y70262199D01*
X3191752Y70262199D01*
X3051690Y70355785D01*
X2881530Y70426267D01*
X2700890Y70462199D01*
X2516712Y70462199D01*
X2336072Y70426267D01*
X2165912Y70355785D01*
X2012773Y70253461D01*
X1882539Y70123227D01*
X1780215Y69970088D01*
X1709733Y69799928D01*
X1673801Y69619288D01*
X-74803000Y69619288D01*
X-74803000Y74704589D01*
X-1189000Y74704589D01*
X-1189000Y74520411D01*
X-1153068Y74339771D01*
X-1082586Y74169611D01*
X-989000Y74029549D01*
X-988999Y72782452D01*
X-1082586Y72642389D01*
X-1153068Y72472229D01*
X-1189000Y72291589D01*
X-1189000Y72107411D01*
X-1153068Y71926771D01*
X-1082586Y71756611D01*
X-980262Y71603472D01*
X-850028Y71473238D01*
X-696889Y71370914D01*
X-526729Y71300432D01*
X-346089Y71264500D01*
X-161911Y71264500D01*
X18729Y71300432D01*
X127000Y71345279D01*
X235271Y71300432D01*
X415911Y71264500D01*
X600089Y71264500D01*
X780729Y71300432D01*
X950889Y71370914D01*
X1104028Y71473238D01*
X1234262Y71603472D01*
X1336586Y71756611D01*
X1407068Y71926771D01*
X1443000Y72107411D01*
X1443000Y72291589D01*
X1407068Y72472229D01*
X1336586Y72642389D01*
X1243000Y72782451D01*
X1243000Y74029549D01*
X1336586Y74169611D01*
X1407068Y74339771D01*
X1443000Y74520411D01*
X1443000Y74704589D01*
X1407068Y74885229D01*
X1336586Y75055389D01*
X1234262Y75208528D01*
X1104028Y75338762D01*
X950889Y75441086D01*
X780729Y75511568D01*
X600089Y75547500D01*
X415911Y75547500D01*
X235271Y75511568D01*
X127000Y75466721D01*
X18729Y75511568D01*
X-161911Y75547500D01*
X-346089Y75547500D01*
X-526729Y75511568D01*
X-696889Y75441086D01*
X-850028Y75338762D01*
X-980262Y75208528D01*
X-1082586Y75055389D01*
X-1153068Y74885229D01*
X-1189000Y74704589D01*
X-74803000Y74704589D01*
X-74803000Y76673089D01*
X8717000Y76673089D01*
X8717000Y76488911D01*
X8752932Y76308271D01*
X8823414Y76138111D01*
X8917001Y75998048D01*
X8917000Y75004951D01*
X8823414Y74864889D01*
X8752932Y74694729D01*
X8717000Y74514089D01*
X8717000Y74329911D01*
X8752932Y74149271D01*
X8823414Y73979111D01*
X8925738Y73825972D01*
X9055972Y73695738D01*
X9209111Y73593414D01*
X9379271Y73522932D01*
X9559911Y73487000D01*
X9744089Y73487000D01*
X9924729Y73522932D01*
X10094889Y73593414D01*
X10248028Y73695738D01*
X10378262Y73825972D01*
X10480586Y73979111D01*
X10551068Y74149271D01*
X10587000Y74329911D01*
X10587000Y74514089D01*
X10551068Y74694729D01*
X10480586Y74864889D01*
X10387000Y75004951D01*
X10387000Y75998049D01*
X10480586Y76138111D01*
X10551068Y76308271D01*
X10587000Y76488911D01*
X10587000Y76673089D01*
X10551068Y76853729D01*
X10480586Y77023889D01*
X10378262Y77177028D01*
X10248028Y77307262D01*
X10094889Y77409586D01*
X9924729Y77480068D01*
X9744089Y77516000D01*
X9559911Y77516000D01*
X9379271Y77480068D01*
X9209111Y77409586D01*
X9055972Y77307262D01*
X8925738Y77177028D01*
X8823414Y77023889D01*
X8752932Y76853729D01*
X8717000Y76673089D01*
X-74803000Y76673089D01*
X-74803000Y82583929D01*
X-54255000Y82583929D01*
X-54255000Y82399751D01*
X-54219068Y82219111D01*
X-54148586Y82048951D01*
X-54055000Y81908889D01*
X-54054999Y80104952D01*
X-54148586Y79964889D01*
X-54219068Y79794729D01*
X-54255000Y79614089D01*
X-54255000Y79429911D01*
X-54219068Y79249271D01*
X-54148586Y79079111D01*
X-54046262Y78925972D01*
X-53916028Y78795738D01*
X-53762889Y78693414D01*
X-53592729Y78622932D01*
X-53412089Y78587000D01*
X-53227911Y78587000D01*
X-53047271Y78622932D01*
X-52877111Y78693414D01*
X-52723972Y78795738D01*
X-52593738Y78925972D01*
X-52491414Y79079111D01*
X-52420932Y79249271D01*
X-52385000Y79429911D01*
X-52385000Y79614089D01*
X-52420932Y79794729D01*
X-52491414Y79964889D01*
X-52585000Y80104951D01*
X-52585000Y81908889D01*
X-52491414Y82048951D01*
X-52420932Y82219111D01*
X-52385000Y82399751D01*
X-52385000Y82583929D01*
X-52420932Y82764569D01*
X-52491414Y82934729D01*
X-52593738Y83087868D01*
X-52723972Y83218102D01*
X-52877111Y83320426D01*
X-53047271Y83390908D01*
X-53227911Y83426840D01*
X-53412089Y83426840D01*
X-53592729Y83390908D01*
X-53762889Y83320426D01*
X-53916028Y83218102D01*
X-54046262Y83087868D01*
X-54148586Y82934729D01*
X-54219068Y82764569D01*
X-54255000Y82583929D01*
X-74803000Y82583929D01*
X-74803000Y86456971D01*
X-36040700Y86456971D01*
X-36040700Y85839429D01*
X-35920224Y85233754D01*
X-35683901Y84663221D01*
X-35340814Y84149754D01*
X-34904146Y83713086D01*
X-34390679Y83369999D01*
X-33820146Y83133676D01*
X-33214471Y83013200D01*
X-32596929Y83013200D01*
X-31991254Y83133676D01*
X-31420721Y83369999D01*
X-30907254Y83713086D01*
X-30470586Y84149754D01*
X-30127499Y84663221D01*
X-29891176Y85233754D01*
X-29770700Y85839429D01*
X-29770700Y86456971D01*
X-29891176Y87062646D01*
X-30127499Y87633179D01*
X-30470586Y88146646D01*
X-30907254Y88583314D01*
X-31420721Y88926401D01*
X-31991254Y89162724D01*
X-32596929Y89283200D01*
X-33214471Y89283200D01*
X-33820146Y89162724D01*
X-34390679Y88926401D01*
X-34904146Y88583314D01*
X-35340814Y88146646D01*
X-35683901Y87633179D01*
X-35920224Y87062646D01*
X-36040700Y86456971D01*
X-74803000Y86456971D01*
X-74803000Y89780000D01*
X-64973072Y89780000D01*
X-64973072Y88080000D01*
X-64960812Y87955518D01*
X-64924502Y87835820D01*
X-64865537Y87725506D01*
X-64786185Y87628815D01*
X-64689494Y87549463D01*
X-64579180Y87490498D01*
X-64459482Y87454188D01*
X-64335000Y87441928D01*
X-62635000Y87441928D01*
X-62510518Y87454188D01*
X-62390820Y87490498D01*
X-62280506Y87549463D01*
X-62183815Y87628815D01*
X-62104463Y87725506D01*
X-62045498Y87835820D01*
X-62023487Y87908380D01*
X-61891632Y87776525D01*
X-61648411Y87614010D01*
X-61378158Y87502068D01*
X-61091260Y87445000D01*
X-60798740Y87445000D01*
X-60511842Y87502068D01*
X-60241589Y87614010D01*
X-59998368Y87776525D01*
X-59791525Y87983368D01*
X-59675000Y88157760D01*
X-59558475Y87983368D01*
X-59351632Y87776525D01*
X-59108411Y87614010D01*
X-58838158Y87502068D01*
X-58551260Y87445000D01*
X-58258740Y87445000D01*
X-57971842Y87502068D01*
X-57701589Y87614010D01*
X-57458368Y87776525D01*
X-57251525Y87983368D01*
X-57135000Y88157760D01*
X-57018475Y87983368D01*
X-56811632Y87776525D01*
X-56568411Y87614010D01*
X-56298158Y87502068D01*
X-56011260Y87445000D01*
X-55718740Y87445000D01*
X-55431842Y87502068D01*
X-55161589Y87614010D01*
X-54918368Y87776525D01*
X-54711525Y87983368D01*
X-54595000Y88157760D01*
X-54478475Y87983368D01*
X-54271632Y87776525D01*
X-54028411Y87614010D01*
X-53758158Y87502068D01*
X-53471260Y87445000D01*
X-53178740Y87445000D01*
X-52891842Y87502068D01*
X-52621589Y87614010D01*
X-52378368Y87776525D01*
X-52171525Y87983368D01*
X-52055000Y88157760D01*
X-51938475Y87983368D01*
X-51731632Y87776525D01*
X-51488411Y87614010D01*
X-51218158Y87502068D01*
X-50931260Y87445000D01*
X-50638740Y87445000D01*
X-50351842Y87502068D01*
X-50081589Y87614010D01*
X-49838368Y87776525D01*
X-49631525Y87983368D01*
X-49515000Y88157760D01*
X-49398475Y87983368D01*
X-49191632Y87776525D01*
X-48948411Y87614010D01*
X-48678158Y87502068D01*
X-48391260Y87445000D01*
X-48098740Y87445000D01*
X-47811842Y87502068D01*
X-47541589Y87614010D01*
X-47298368Y87776525D01*
X-47091525Y87983368D01*
X-46975000Y88157760D01*
X-46858475Y87983368D01*
X-46651632Y87776525D01*
X-46408411Y87614010D01*
X-46138158Y87502068D01*
X-45851260Y87445000D01*
X-45558740Y87445000D01*
X-45271842Y87502068D01*
X-45001589Y87614010D01*
X-44758368Y87776525D01*
X-44551525Y87983368D01*
X-44435000Y88157760D01*
X-44318475Y87983368D01*
X-44111632Y87776525D01*
X-43868411Y87614010D01*
X-43598158Y87502068D01*
X-43311260Y87445000D01*
X-43018740Y87445000D01*
X-42731842Y87502068D01*
X-42461589Y87614010D01*
X-42218368Y87776525D01*
X-42011525Y87983368D01*
X-41895000Y88157760D01*
X-41778475Y87983368D01*
X-41571632Y87776525D01*
X-41328411Y87614010D01*
X-41058158Y87502068D01*
X-40771260Y87445000D01*
X-40478740Y87445000D01*
X-40191842Y87502068D01*
X-39921589Y87614010D01*
X-39678368Y87776525D01*
X-39471525Y87983368D01*
X-39309010Y88226589D01*
X-39197068Y88496842D01*
X-39140000Y88783740D01*
X-39140000Y89076260D01*
X-39197068Y89363158D01*
X-39309010Y89633411D01*
X-39471525Y89876632D01*
X-39678368Y90083475D01*
X-39852760Y90200000D01*
X-39678368Y90316525D01*
X-39471525Y90523368D01*
X-39309010Y90766589D01*
X-39197068Y91036842D01*
X-39140000Y91323740D01*
X-39140000Y91616260D01*
X-39197068Y91903158D01*
X-39309010Y92173411D01*
X-39471525Y92416632D01*
X-39678368Y92623475D01*
X-39921589Y92785990D01*
X-40191842Y92897932D01*
X-40478740Y92955000D01*
X-40771260Y92955000D01*
X-41058158Y92897932D01*
X-41328411Y92785990D01*
X-41571632Y92623475D01*
X-41778475Y92416632D01*
X-41895000Y92242240D01*
X-42011525Y92416632D01*
X-42218368Y92623475D01*
X-42461589Y92785990D01*
X-42731842Y92897932D01*
X-43018740Y92955000D01*
X-43311260Y92955000D01*
X-43598158Y92897932D01*
X-43868411Y92785990D01*
X-44111632Y92623475D01*
X-44318475Y92416632D01*
X-44435000Y92242240D01*
X-44551525Y92416632D01*
X-44758368Y92623475D01*
X-45001589Y92785990D01*
X-45271842Y92897932D01*
X-45558740Y92955000D01*
X-45851260Y92955000D01*
X-46138158Y92897932D01*
X-46408411Y92785990D01*
X-46651632Y92623475D01*
X-46858475Y92416632D01*
X-46975000Y92242240D01*
X-47091525Y92416632D01*
X-47298368Y92623475D01*
X-47541589Y92785990D01*
X-47811842Y92897932D01*
X-48098740Y92955000D01*
X-48391260Y92955000D01*
X-48678158Y92897932D01*
X-48948411Y92785990D01*
X-49191632Y92623475D01*
X-49398475Y92416632D01*
X-49515000Y92242240D01*
X-49631525Y92416632D01*
X-49838368Y92623475D01*
X-50081589Y92785990D01*
X-50351842Y92897932D01*
X-50638740Y92955000D01*
X-50931260Y92955000D01*
X-51218158Y92897932D01*
X-51488411Y92785990D01*
X-51731632Y92623475D01*
X-51938475Y92416632D01*
X-52055000Y92242240D01*
X-52171525Y92416632D01*
X-52378368Y92623475D01*
X-52621589Y92785990D01*
X-52891842Y92897932D01*
X-53178740Y92955000D01*
X-53471260Y92955000D01*
X-53758158Y92897932D01*
X-54028411Y92785990D01*
X-54271632Y92623475D01*
X-54478475Y92416632D01*
X-54595000Y92242240D01*
X-54711525Y92416632D01*
X-54918368Y92623475D01*
X-55161589Y92785990D01*
X-55431842Y92897932D01*
X-55718740Y92955000D01*
X-56011260Y92955000D01*
X-56298158Y92897932D01*
X-56568411Y92785990D01*
X-56811632Y92623475D01*
X-57018475Y92416632D01*
X-57135000Y92242240D01*
X-57251525Y92416632D01*
X-57458368Y92623475D01*
X-57701589Y92785990D01*
X-57971842Y92897932D01*
X-58258740Y92955000D01*
X-58551260Y92955000D01*
X-58838158Y92897932D01*
X-59108411Y92785990D01*
X-59351632Y92623475D01*
X-59558475Y92416632D01*
X-59675000Y92242240D01*
X-59791525Y92416632D01*
X-59998368Y92623475D01*
X-60241589Y92785990D01*
X-60511842Y92897932D01*
X-60798740Y92955000D01*
X-61091260Y92955000D01*
X-61378158Y92897932D01*
X-61648411Y92785990D01*
X-61891632Y92623475D01*
X-62098475Y92416632D01*
X-62220195Y92234466D01*
X-62289822Y92351355D01*
X-62484731Y92567588D01*
X-62718080Y92741641D01*
X-62980901Y92866825D01*
X-63128110Y92911476D01*
X-63358000Y92790155D01*
X-63358000Y91597000D01*
X-63338000Y91597000D01*
X-63338000Y91343000D01*
X-63358000Y91343000D01*
X-63358000Y91323000D01*
X-63612000Y91323000D01*
X-63612000Y91343000D01*
X-64805814Y91343000D01*
X-64926481Y91113109D01*
X-64829157Y90838748D01*
X-64680178Y90588645D01*
X-64503374Y90392498D01*
X-64579180Y90369502D01*
X-64689494Y90310537D01*
X-64786185Y90231185D01*
X-64865537Y90134494D01*
X-64924502Y90024180D01*
X-64960812Y89904482D01*
X-64973072Y89780000D01*
X-74803000Y89780000D01*
X-74803000Y91826891D01*
X-64926481Y91826891D01*
X-64805814Y91597000D01*
X-63612000Y91597000D01*
X-63612000Y92790155D01*
X-63841890Y92911476D01*
X-63989099Y92866825D01*
X-64251920Y92741641D01*
X-64485269Y92567588D01*
X-64680178Y92351355D01*
X-64829157Y92101252D01*
X-64926481Y91826891D01*
X-74803000Y91826891D01*
X-74803000Y101203200D01*
X-73054252Y101203200D01*
X-73054252Y100716800D01*
X-72959360Y100239746D01*
X-72773223Y99790370D01*
X-72502994Y99385943D01*
X-72159057Y99042006D01*
X-71754630Y98771777D01*
X-71305254Y98585640D01*
X-70828200Y98490748D01*
X-70341800Y98490748D01*
X-69864746Y98585640D01*
X-69415370Y98771777D01*
X-69010943Y99042006D01*
X-68667006Y99385943D01*
X-68396777Y99790370D01*
X-68210640Y100239746D01*
X-68115748Y100716800D01*
X-68115748Y101203200D01*
X12235748Y101203200D01*
X12235748Y100716800D01*
X12330640Y100239746D01*
X12516777Y99790370D01*
X12787006Y99385943D01*
X13130943Y99042006D01*
X13535370Y98771777D01*
X13984746Y98585640D01*
X14461800Y98490748D01*
X14948200Y98490748D01*
X15425254Y98585640D01*
X15874630Y98771777D01*
X16279057Y99042006D01*
X16622994Y99385943D01*
X16893223Y99790370D01*
X17079360Y100239746D01*
X17174252Y100716800D01*
X17174252Y101203200D01*
X17079360Y101680254D01*
X16893223Y102129630D01*
X16622994Y102534057D01*
X16279057Y102877994D01*
X15874630Y103148223D01*
X15425254Y103334360D01*
X14948200Y103429252D01*
X14461800Y103429252D01*
X13984746Y103334360D01*
X13535370Y103148223D01*
X13130943Y102877994D01*
X12787006Y102534057D01*
X12516777Y102129630D01*
X12330640Y101680254D01*
X12235748Y101203200D01*
X-68115748Y101203200D01*
X-68210640Y101680254D01*
X-68396777Y102129630D01*
X-68667006Y102534057D01*
X-69010943Y102877994D01*
X-69415370Y103148223D01*
X-69864746Y103334360D01*
X-70341800Y103429252D01*
X-70828200Y103429252D01*
X-71305254Y103334360D01*
X-71754630Y103148223D01*
X-72159057Y102877994D01*
X-72502994Y102534057D01*
X-72773223Y102129630D01*
X-72959360Y101680254D01*
X-73054252Y101203200D01*
X-74803000Y101203200D01*
X-74803000Y109093000D01*
X-71384822Y109093000D01*
X-71825392Y109005365D01*
G04 #@! TA.AperFunction,Conductor*
D25*
G36*
X-71825392Y109005365D02*
G01*
X-72265494Y108823069D01*
X-72661576Y108558415D01*
X-72998415Y108221576D01*
X-73263069Y107825494D01*
X-73445365Y107385392D01*
X-73538299Y106918182D01*
X-73538299Y106441818D01*
X-73445365Y105974608D01*
X-73263069Y105534506D01*
X-72998415Y105138424D01*
X-72661576Y104801585D01*
X-72265494Y104536931D01*
X-71825392Y104354635D01*
X-71358182Y104261701D01*
X-70881818Y104261701D01*
X-70414608Y104354635D01*
X-69974506Y104536931D01*
X-69578424Y104801585D01*
X-69241585Y105138424D01*
X-68976931Y105534506D01*
X-68794635Y105974608D01*
X-68701701Y106441818D01*
X-68701701Y106918182D01*
X-68794635Y107385392D01*
X-68976931Y107825494D01*
X-69241585Y108221576D01*
X-69578424Y108558415D01*
X-69974506Y108823069D01*
X-70414608Y109005365D01*
X-70855178Y109093000D01*
X14975178Y109093000D01*
X14534608Y109005365D01*
X14094506Y108823069D01*
X13698424Y108558415D01*
X13361585Y108221576D01*
X13096931Y107825494D01*
X12914635Y107385392D01*
X12821701Y106918182D01*
X12821701Y106441818D01*
X12914635Y105974608D01*
X13096931Y105534506D01*
X13361585Y105138424D01*
X13698424Y104801585D01*
X14094506Y104536931D01*
X14534608Y104354635D01*
X15001818Y104261701D01*
X15478182Y104261701D01*
X15945392Y104354635D01*
X16385494Y104536931D01*
X16781576Y104801585D01*
X17118415Y105138424D01*
X17383069Y105534506D01*
X17565365Y105974608D01*
X17658299Y106441818D01*
X17658299Y106918182D01*
X17565365Y107385392D01*
X17383069Y107825494D01*
X17118415Y108221576D01*
X16781576Y108558415D01*
X16385494Y108823069D01*
X15945392Y109005365D01*
X15504822Y109093000D01*
X18923000Y109093000D01*
X18923000Y54506080D01*
X18857889Y54549586D01*
X18687729Y54620068D01*
X18507089Y54656000D01*
X18322911Y54656000D01*
X18142271Y54620068D01*
X17972111Y54549586D01*
X17818972Y54447262D01*
X17688738Y54317028D01*
X17586414Y54163889D01*
X17572000Y54129090D01*
X17572000Y54194089D01*
X17536068Y54374729D01*
X17465586Y54544889D01*
X17363262Y54698028D01*
X17233028Y54828262D01*
X17079889Y54930586D01*
X16909729Y55001068D01*
X16729089Y55037000D01*
X16544911Y55037000D01*
X16364271Y55001068D01*
X16194111Y54930586D01*
X16129000Y54887080D01*
X16063889Y54930586D01*
X15893729Y55001068D01*
X15713089Y55037000D01*
X15528911Y55037000D01*
X15348271Y55001068D01*
X15178111Y54930586D01*
X15024972Y54828262D01*
X14894738Y54698028D01*
X14792414Y54544889D01*
X14721932Y54374729D01*
X14686000Y54194089D01*
X14686000Y54009911D01*
X14721932Y53829271D01*
X14792414Y53659111D01*
X14894738Y53505972D01*
X15024972Y53375738D01*
X15086382Y53334705D01*
X15046414Y53274889D01*
X14975932Y53104729D01*
X14940000Y52924089D01*
X14940000Y52739911D01*
X14975932Y52559271D01*
X15046414Y52389111D01*
X15148738Y52235972D01*
X15278972Y52105738D01*
X15432111Y52003414D01*
X15602271Y51932932D01*
X15782911Y51897000D01*
X15967089Y51897000D01*
X16147729Y51932932D01*
X16317889Y52003414D01*
X16471028Y52105738D01*
X16487290Y52122000D01*
X17491125Y52122000D01*
X17526000Y52118565D01*
X17560875Y52122000D01*
X17560877Y52122000D01*
X17665184Y52132273D01*
X17799020Y52172872D01*
X17922363Y52238800D01*
X18030475Y52327525D01*
X18052712Y52354621D01*
X18484091Y52786000D01*
X18507089Y52786000D01*
X18687729Y52821932D01*
X18857889Y52892414D01*
X18923000Y52935920D01*
X18923000Y14097000D01*
X-74803000Y14097000D01*
X-74803000Y18018182D01*
X-73538299Y18018182D01*
X-73538299Y17541818D01*
X-73445365Y17074608D01*
X-73263069Y16634506D01*
X-72998415Y16238424D01*
X-72661576Y15901585D01*
X-72265494Y15636931D01*
X-71825392Y15454635D01*
X-71358182Y15361701D01*
X-70881818Y15361701D01*
X-70414608Y15454635D01*
X-69974506Y15636931D01*
X-69578424Y15901585D01*
X-69241585Y16238424D01*
X-69190016Y16315603D01*
X-49870792Y16315603D01*
X-49793157Y16066528D01*
X-49529117Y15940629D01*
X-49245589Y15868661D01*
X-48953469Y15853389D01*
X-48663981Y15895401D01*
X-48388253Y15993081D01*
X-48250843Y16066528D01*
X-48173208Y16315603D01*
X-43370792Y16315603D01*
X-43293157Y16066528D01*
X-43029117Y15940629D01*
X-42745589Y15868661D01*
X-42453469Y15853389D01*
X-42163981Y15895401D01*
X-41888253Y15993081D01*
X-41750843Y16066528D01*
X-41673208Y16315603D01*
X-42522000Y17164395D01*
X-43370792Y16315603D01*
X-48173208Y16315603D01*
X-49022000Y17164395D01*
X-49870792Y16315603D01*
X-69190016Y16315603D01*
X-68976931Y16634506D01*
X-68794635Y17074608D01*
X-68754682Y17275469D01*
X-50512611Y17275469D01*
X-50470599Y16985981D01*
X-50372919Y16710253D01*
X-50299472Y16572843D01*
X-50050397Y16495208D01*
X-49201605Y17344000D01*
X-48842395Y17344000D01*
X-47993603Y16495208D01*
X-47744528Y16572843D01*
X-47618629Y16836883D01*
X-47546661Y17120411D01*
X-47538555Y17275469D01*
X-44012611Y17275469D01*
X-43970599Y16985981D01*
X-43872919Y16710253D01*
X-43799472Y16572843D01*
X-43550397Y16495208D01*
X-42701605Y17344000D01*
X-42342395Y17344000D01*
X-41493603Y16495208D01*
X-41244528Y16572843D01*
X-41118629Y16836883D01*
X-41046661Y17120411D01*
X-41031389Y17412531D01*
X-41073401Y17702019D01*
X-41171081Y17977747D01*
X-41244528Y18115157D01*
X-41493603Y18192792D01*
X-42342395Y17344000D01*
X-42701605Y17344000D01*
X-43550397Y18192792D01*
X-43799472Y18115157D01*
X-43925371Y17851117D01*
X-43997339Y17567589D01*
X-44012611Y17275469D01*
X-47538555Y17275469D01*
X-47531389Y17412531D01*
X-47573401Y17702019D01*
X-47671081Y17977747D01*
X-47744528Y18115157D01*
X-47993603Y18192792D01*
X-48842395Y17344000D01*
X-49201605Y17344000D01*
X-50050397Y18192792D01*
X-50299472Y18115157D01*
X-50425371Y17851117D01*
X-50497339Y17567589D01*
X-50512611Y17275469D01*
X-68754682Y17275469D01*
X-68701701Y17541818D01*
X-68701701Y18018182D01*
X-68794635Y18485392D01*
X-68976931Y18925494D01*
X-69241585Y19321576D01*
X-69578424Y19658415D01*
X-69974506Y19923069D01*
X-70414608Y20105365D01*
X-70881818Y20198299D01*
X-71358182Y20198299D01*
X-71825392Y20105365D01*
X-72265494Y19923069D01*
X-72661576Y19658415D01*
X-72998415Y19321576D01*
X-73263069Y18925494D01*
X-73445365Y18485392D01*
X-73538299Y18018182D01*
X-74803000Y18018182D01*
X-74803000Y20662000D01*
X-67528072Y20662000D01*
X-67528072Y18962000D01*
X-67515812Y18837518D01*
X-67479502Y18717820D01*
X-67420537Y18607506D01*
X-67341185Y18510815D01*
X-67244494Y18431463D01*
X-67134180Y18372498D01*
X-67014482Y18336188D01*
X-66890000Y18323928D01*
X-65190000Y18323928D01*
X-65065518Y18336188D01*
X-64945820Y18372498D01*
X-64835506Y18431463D01*
X-64770000Y18485222D01*
X-64704494Y18431463D01*
X-64594180Y18372498D01*
X-64474482Y18336188D01*
X-64350000Y18323928D01*
X-62650000Y18323928D01*
X-62525518Y18336188D01*
X-62405820Y18372498D01*
X-62295506Y18431463D01*
X-62230000Y18485222D01*
X-62164494Y18431463D01*
X-62054180Y18372498D01*
X-61934482Y18336188D01*
X-61810000Y18323928D01*
X-60110000Y18323928D01*
X-59985518Y18336188D01*
X-59865820Y18372498D01*
X-59755506Y18431463D01*
X-59690000Y18485222D01*
X-59624494Y18431463D01*
X-59514180Y18372498D01*
X-59394482Y18336188D01*
X-59270000Y18323928D01*
X-58705750Y18327000D01*
X-58547000Y18485750D01*
X-58547000Y19685000D01*
X-58293000Y19685000D01*
X-58293000Y18485750D01*
X-58134250Y18327000D01*
X-57570000Y18323928D01*
X-57445518Y18336188D01*
X-57326153Y18372397D01*
X-49870792Y18372397D01*
X-49022000Y17523605D01*
X-48173208Y18372397D01*
X-43370792Y18372397D01*
X-42522000Y17523605D01*
X-41673208Y18372397D01*
X-41750843Y18621472D01*
X-42014883Y18747371D01*
X-42298411Y18819339D01*
X-42590531Y18834611D01*
X-42880019Y18792599D01*
X-43155747Y18694919D01*
X-43293157Y18621472D01*
X-43370792Y18372397D01*
X-48173208Y18372397D01*
X-48250843Y18621472D01*
X-48514883Y18747371D01*
X-48798411Y18819339D01*
X-49090531Y18834611D01*
X-49380019Y18792599D01*
X-49655747Y18694919D01*
X-49793157Y18621472D01*
X-49870792Y18372397D01*
X-57326153Y18372397D01*
X-57325820Y18372498D01*
X-57215506Y18431463D01*
X-57118815Y18510815D01*
X-57039463Y18607506D01*
X-56980498Y18717820D01*
X-56944188Y18837518D01*
X-56931928Y18962000D01*
X-56931938Y18964000D01*
X-37556072Y18964000D01*
X-37543812Y18839518D01*
X-37507502Y18719820D01*
X-37448537Y18609506D01*
X-37369185Y18512815D01*
X-37272494Y18433463D01*
X-37162180Y18374498D01*
X-37042482Y18338188D01*
X-36918000Y18325928D01*
X-36353750Y18329000D01*
X-36195000Y18487750D01*
X-36195000Y19812000D01*
X-37394250Y19812000D01*
X-37553000Y19653250D01*
X-37556072Y18964000D01*
X-56931938Y18964000D01*
X-56935000Y19526250D01*
X-57093750Y19685000D01*
X-58293000Y19685000D01*
X-58547000Y19685000D01*
X-58567000Y19685000D01*
X-58567000Y19939000D01*
X-58547000Y19939000D01*
X-58547000Y21138250D01*
X-58293000Y21138250D01*
X-58293000Y19939000D01*
X-57093750Y19939000D01*
X-56935000Y20097750D01*
X-56931928Y20662000D01*
X-56944188Y20786482D01*
X-56980498Y20906180D01*
X-57039463Y21016494D01*
X-57118815Y21113185D01*
X-57215506Y21192537D01*
X-57325820Y21251502D01*
X-57445518Y21287812D01*
X-57570000Y21300072D01*
X-58134250Y21297000D01*
X-58293000Y21138250D01*
X-58547000Y21138250D01*
X-58705750Y21297000D01*
X-59270000Y21300072D01*
X-59394482Y21287812D01*
X-59514180Y21251502D01*
X-59624494Y21192537D01*
X-59690000Y21138778D01*
X-59755506Y21192537D01*
X-59865820Y21251502D01*
X-59985518Y21287812D01*
X-60110000Y21300072D01*
X-61810000Y21300072D01*
X-61934482Y21287812D01*
X-62054180Y21251502D01*
X-62164494Y21192537D01*
X-62230000Y21138778D01*
X-62295506Y21192537D01*
X-62405820Y21251502D01*
X-62525518Y21287812D01*
X-62650000Y21300072D01*
X-64350000Y21300072D01*
X-64474482Y21287812D01*
X-64594180Y21251502D01*
X-64704494Y21192537D01*
X-64770000Y21138778D01*
X-64835506Y21192537D01*
X-64945820Y21251502D01*
X-65065518Y21287812D01*
X-65190000Y21300072D01*
X-66890000Y21300072D01*
X-67014482Y21287812D01*
X-67134180Y21251502D01*
X-67244494Y21192537D01*
X-67341185Y21113185D01*
X-67420537Y21016494D01*
X-67479502Y20906180D01*
X-67515812Y20786482D01*
X-67528072Y20662000D01*
X-74803000Y20662000D01*
X-74803000Y21990260D01*
X-50507000Y21990260D01*
X-50507000Y21697740D01*
X-50449932Y21410842D01*
X-50337990Y21140589D01*
X-50175475Y20897368D01*
X-49968632Y20690525D01*
X-49725411Y20528010D01*
X-49455158Y20416068D01*
X-49168260Y20359000D01*
X-48875740Y20359000D01*
X-48588842Y20416068D01*
X-48318589Y20528010D01*
X-48075368Y20690525D01*
X-47868525Y20897368D01*
X-47706010Y21140589D01*
X-47594068Y21410842D01*
X-47537000Y21697740D01*
X-47537000Y21990260D01*
X-44007000Y21990260D01*
X-44007000Y21697740D01*
X-43949932Y21410842D01*
X-43837990Y21140589D01*
X-43675475Y20897368D01*
X-43468632Y20690525D01*
X-43225411Y20528010D01*
X-42955158Y20416068D01*
X-42668260Y20359000D01*
X-42375740Y20359000D01*
X-42088842Y20416068D01*
X-41818589Y20528010D01*
X-41575368Y20690525D01*
X-41368525Y20897368D01*
X-41357412Y20914000D01*
X-37556072Y20914000D01*
X-37553000Y20224750D01*
X-37394250Y20066000D01*
X-36195000Y20066000D01*
X-36195000Y21390250D01*
X-35941000Y21390250D01*
X-35941000Y20066000D01*
X-35921000Y20066000D01*
X-35921000Y19812000D01*
X-35941000Y19812000D01*
X-35941000Y18487750D01*
X-35782250Y18329000D01*
X-35218000Y18325928D01*
X-35093518Y18338188D01*
X-34973820Y18374498D01*
X-34863506Y18433463D01*
X-34766815Y18512815D01*
X-34687463Y18609506D01*
X-34628498Y18719820D01*
X-34617945Y18754608D01*
X-34397013Y18573294D01*
X-34139033Y18435401D01*
X-33859110Y18350487D01*
X-33568000Y18321815D01*
X-33276889Y18350487D01*
X-32996966Y18435401D01*
X-32738986Y18573294D01*
X-32512866Y18758866D01*
X-32327294Y18984986D01*
X-32318000Y19002374D01*
X-32308706Y18984986D01*
X-32123134Y18758866D01*
X-31897013Y18573294D01*
X-31639033Y18435401D01*
X-31359110Y18350487D01*
X-31068000Y18321815D01*
X-30776889Y18350487D01*
X-30496966Y18435401D01*
X-30238986Y18573294D01*
X-30012866Y18758866D01*
X-29827294Y18984986D01*
X-29813538Y19010722D01*
X-29657049Y18804571D01*
X-29439193Y18611504D01*
X-29187858Y18464648D01*
X-28924890Y18372524D01*
X-28695000Y18493845D01*
X-28695000Y19812000D01*
X-28715000Y19812000D01*
X-28715000Y20066000D01*
X-28695000Y20066000D01*
X-28695000Y21384155D01*
X-28441000Y21384155D01*
X-28441000Y20066000D01*
X-28421000Y20066000D01*
X-28421000Y19812000D01*
X-28441000Y19812000D01*
X-28441000Y18493845D01*
X-28211110Y18372524D01*
X-27948142Y18464648D01*
X-27696807Y18611504D01*
X-27478951Y18804571D01*
X-27302947Y19036430D01*
X-27175558Y19298170D01*
X-27101680Y19579733D01*
X-27241834Y19811998D01*
X-27201079Y19811998D01*
X-27142262Y19723972D01*
X-27012028Y19593738D01*
X-26858889Y19491414D01*
X-26688729Y19420932D01*
X-26508089Y19385000D01*
X-26323911Y19385000D01*
X-26143271Y19420932D01*
X-25973111Y19491414D01*
X-25833049Y19585000D01*
X-22426951Y19585000D01*
X-22286889Y19491414D01*
X-22116729Y19420932D01*
X-21936089Y19385000D01*
X-21751911Y19385000D01*
X-21571271Y19420932D01*
X-21401111Y19491414D01*
X-21247972Y19593738D01*
X-21117738Y19723972D01*
X-21015414Y19877111D01*
X-20944932Y20047271D01*
X-20909000Y20227911D01*
X-20909000Y20412089D01*
X-20944932Y20592729D01*
X-21015414Y20762889D01*
X-21117738Y20916028D01*
X-21247972Y21046262D01*
X-21401111Y21148586D01*
X-21571271Y21219068D01*
X-21751911Y21255000D01*
X-21936089Y21255000D01*
X-22116729Y21219068D01*
X-22286889Y21148586D01*
X-22426951Y21055000D01*
X-25833049Y21055000D01*
X-25973111Y21148586D01*
X-26143271Y21219068D01*
X-26323911Y21255000D01*
X-26508089Y21255000D01*
X-26688729Y21219068D01*
X-26858889Y21148586D01*
X-27012028Y21046262D01*
X-27142262Y20916028D01*
X-27244586Y20762889D01*
X-27253812Y20740615D01*
X-27302947Y20841570D01*
X-27478951Y21073429D01*
X-27696807Y21266496D01*
X-27948142Y21413352D01*
X-28211110Y21505476D01*
X-28441000Y21384155D01*
X-28695000Y21384155D01*
X-28924890Y21505476D01*
X-29187858Y21413352D01*
X-29439193Y21266496D01*
X-29657049Y21073429D01*
X-29813538Y20867278D01*
X-29827294Y20893014D01*
X-30012866Y21119134D01*
X-30238987Y21304706D01*
X-30496967Y21442599D01*
X-30776890Y21527513D01*
X-31068000Y21556185D01*
X-31359111Y21527513D01*
X-31639034Y21442599D01*
X-31897014Y21304706D01*
X-32123134Y21119134D01*
X-32308706Y20893013D01*
X-32318000Y20875626D01*
X-32327294Y20893014D01*
X-32512866Y21119134D01*
X-32738987Y21304706D01*
X-32996967Y21442599D01*
X-33276890Y21527513D01*
X-33568000Y21556185D01*
X-33859111Y21527513D01*
X-34139034Y21442599D01*
X-34397014Y21304706D01*
X-34617945Y21123392D01*
X-34628498Y21158180D01*
X-34687463Y21268494D01*
X-34766815Y21365185D01*
X-34863506Y21444537D01*
X-34973820Y21503502D01*
X-35093518Y21539812D01*
X-35218000Y21552072D01*
X-35782250Y21549000D01*
X-35941000Y21390250D01*
X-36195000Y21390250D01*
X-36353750Y21549000D01*
X-36918000Y21552072D01*
X-37042482Y21539812D01*
X-37162180Y21503502D01*
X-37272494Y21444537D01*
X-37369185Y21365185D01*
X-37448537Y21268494D01*
X-37507502Y21158180D01*
X-37543812Y21038482D01*
X-37556072Y20914000D01*
X-41357412Y20914000D01*
X-41206010Y21140589D01*
X-41094068Y21410842D01*
X-41037000Y21697740D01*
X-41037000Y21990260D01*
X-41094068Y22277158D01*
X-41206010Y22547411D01*
X-41368525Y22790632D01*
X-41575368Y22997475D01*
X-41603623Y23016355D01*
X-15201900Y23016355D01*
X-15201900Y22703645D01*
X-15140893Y22396943D01*
X-15021224Y22108037D01*
X-14847492Y21848028D01*
X-14626372Y21626908D01*
X-14571135Y21590000D01*
X-14626372Y21553092D01*
X-14847492Y21331972D01*
X-15021224Y21071963D01*
X-15140893Y20783057D01*
X-15201900Y20476355D01*
X-15201900Y20163645D01*
X-15140893Y19856943D01*
X-15021224Y19568037D01*
X-14847492Y19308028D01*
X-14626372Y19086908D01*
X-14571135Y19050000D01*
X-14626372Y19013092D01*
X-14847492Y18791972D01*
X-15021224Y18531963D01*
X-15140893Y18243057D01*
X-15201900Y17936355D01*
X-15201900Y17623645D01*
X-15140893Y17316943D01*
X-15021224Y17028037D01*
X-14847492Y16768028D01*
X-14626372Y16546908D01*
X-14366363Y16373176D01*
X-14077457Y16253507D01*
X-13770755Y16192500D01*
X-13458045Y16192500D01*
X-13151343Y16253507D01*
X-12862437Y16373176D01*
X-12602428Y16546908D01*
X-12381308Y16768028D01*
X-12207576Y17028037D01*
X-12087907Y17316943D01*
X-12026900Y17623645D01*
X-12026900Y17936355D01*
X-165100Y17936355D01*
X-165100Y17623645D01*
X-104093Y17316943D01*
X15576Y17028037D01*
X189308Y16768028D01*
X410428Y16546908D01*
X670437Y16373176D01*
X959343Y16253507D01*
X1266045Y16192500D01*
X1578755Y16192500D01*
X1885457Y16253507D01*
X2174363Y16373176D01*
X2434372Y16546908D01*
X2655492Y16768028D01*
X2829224Y17028037D01*
X2948893Y17316943D01*
X3009900Y17623645D01*
X3009900Y17936355D01*
X2993624Y18018182D01*
X12821701Y18018182D01*
X12821701Y17541818D01*
X12914635Y17074608D01*
X13096931Y16634506D01*
X13361585Y16238424D01*
X13698424Y15901585D01*
X14094506Y15636931D01*
X14534608Y15454635D01*
X15001818Y15361701D01*
X15478182Y15361701D01*
X15945392Y15454635D01*
X16385494Y15636931D01*
X16781576Y15901585D01*
X17118415Y16238424D01*
X17383069Y16634506D01*
X17565365Y17074608D01*
X17658299Y17541818D01*
X17658299Y18018182D01*
X17565365Y18485392D01*
X17383069Y18925494D01*
X17118415Y19321576D01*
X16781576Y19658415D01*
X16385494Y19923069D01*
X15945392Y20105365D01*
X15478182Y20198299D01*
X15001818Y20198299D01*
X14534608Y20105365D01*
X14094506Y19923069D01*
X13698424Y19658415D01*
X13361585Y19321576D01*
X13096931Y18925494D01*
X12914635Y18485392D01*
X12821701Y18018182D01*
X2993624Y18018182D01*
X2948893Y18243057D01*
X2829224Y18531963D01*
X2655492Y18791972D01*
X2434372Y19013092D01*
X2303439Y19100578D01*
X2344330Y19218465D01*
X1422400Y20140395D01*
X500470Y19218465D01*
X541361Y19100578D01*
X410428Y19013092D01*
X189308Y18791972D01*
X15576Y18531963D01*
X-104093Y18243057D01*
X-165100Y17936355D01*
X-12026900Y17936355D01*
X-12087907Y18243057D01*
X-12207576Y18531963D01*
X-12381308Y18791972D01*
X-12602428Y19013092D01*
X-12657665Y19050000D01*
X-12602428Y19086908D01*
X-12381308Y19308028D01*
X-12207576Y19568037D01*
X-12087907Y19856943D01*
X-12026900Y20163645D01*
X-12026900Y20255526D01*
X-171477Y20255526D01*
X-128272Y19945815D01*
X-25477Y19650484D01*
X61319Y19488098D01*
X320865Y19398070D01*
X1242795Y20320000D01*
X1602005Y20320000D01*
X2523935Y19398070D01*
X2783481Y19488098D01*
X2919624Y19769616D01*
X2998229Y20072286D01*
X3016277Y20384474D01*
X2973072Y20694185D01*
X2870277Y20989516D01*
X2783481Y21151902D01*
X2523935Y21241930D01*
X1602005Y20320000D01*
X1242795Y20320000D01*
X320865Y21241930D01*
X61319Y21151902D01*
X-74824Y20870384D01*
X-153429Y20567714D01*
X-171477Y20255526D01*
X-12026900Y20255526D01*
X-12026900Y20476355D01*
X-12087907Y20783057D01*
X-12207576Y21071963D01*
X-12381308Y21331972D01*
X-12470871Y21421535D01*
X500470Y21421535D01*
X1422400Y20499605D01*
X2344330Y21421535D01*
X2254302Y21681081D01*
X1972784Y21817224D01*
X1670114Y21895829D01*
X1357926Y21913877D01*
X1048215Y21870672D01*
X752884Y21767877D01*
X590498Y21681081D01*
X500470Y21421535D01*
X-12470871Y21421535D01*
X-12602428Y21553092D01*
X-12657665Y21590000D01*
X-12602428Y21626908D01*
X-12381308Y21848028D01*
X-12207576Y22108037D01*
X-12087907Y22396943D01*
X-12026900Y22703645D01*
X-12026900Y23016355D01*
X-12087907Y23323057D01*
X-12207576Y23611963D01*
X-12381308Y23871972D01*
X-12602428Y24093092D01*
X-12862437Y24266824D01*
X-13151343Y24386493D01*
X-13458045Y24447500D01*
X-13770755Y24447500D01*
X-14077457Y24386493D01*
X-14366363Y24266824D01*
X-14626372Y24093092D01*
X-14847492Y23871972D01*
X-15021224Y23611963D01*
X-15140893Y23323057D01*
X-15201900Y23016355D01*
X-41603623Y23016355D01*
X-41818589Y23159990D01*
X-42088842Y23271932D01*
X-42375740Y23329000D01*
X-42668260Y23329000D01*
X-42955158Y23271932D01*
X-43225411Y23159990D01*
X-43468632Y22997475D01*
X-43675475Y22790632D01*
X-43837990Y22547411D01*
X-43949932Y22277158D01*
X-44007000Y21990260D01*
X-47537000Y21990260D01*
X-47594068Y22277158D01*
X-47706010Y22547411D01*
X-47868525Y22790632D01*
X-48075368Y22997475D01*
X-48318589Y23159990D01*
X-48588842Y23271932D01*
X-48875740Y23329000D01*
X-49168260Y23329000D01*
X-49455158Y23271932D01*
X-49725411Y23159990D01*
X-49968632Y22997475D01*
X-50175475Y22790632D01*
X-50337990Y22547411D01*
X-50449932Y22277158D01*
X-50507000Y21990260D01*
X-74803000Y21990260D01*
X-74803000Y25742000D01*
X-67528072Y25742000D01*
X-67528072Y24042000D01*
X-67515812Y23917518D01*
X-67479502Y23797820D01*
X-67420537Y23687506D01*
X-67341185Y23590815D01*
X-67244494Y23511463D01*
X-67134180Y23452498D01*
X-67014482Y23416188D01*
X-66890000Y23403928D01*
X-65190000Y23403928D01*
X-65065518Y23416188D01*
X-64945820Y23452498D01*
X-64835506Y23511463D01*
X-64738815Y23590815D01*
X-64659463Y23687506D01*
X-64600498Y23797820D01*
X-64578487Y23870380D01*
X-64446632Y23738525D01*
X-64203411Y23576010D01*
X-63933158Y23464068D01*
X-63646260Y23407000D01*
X-63353740Y23407000D01*
X-63066842Y23464068D01*
X-62796589Y23576010D01*
X-62553368Y23738525D01*
X-62346525Y23945368D01*
X-62230000Y24119760D01*
X-62113475Y23945368D01*
X-61906632Y23738525D01*
X-61663411Y23576010D01*
X-61393158Y23464068D01*
X-61106260Y23407000D01*
X-60813740Y23407000D01*
X-60526842Y23464068D01*
X-60256589Y23576010D01*
X-60013368Y23738525D01*
X-59806525Y23945368D01*
X-59684805Y24127534D01*
X-59615178Y24010645D01*
X-59420269Y23794412D01*
X-59186920Y23620359D01*
X-58924099Y23495175D01*
X-58776890Y23450524D01*
X-58547000Y23571845D01*
X-58547000Y24765000D01*
X-58293000Y24765000D01*
X-58293000Y23571845D01*
X-58063110Y23450524D01*
X-57915901Y23495175D01*
X-57653080Y23620359D01*
X-57419731Y23794412D01*
X-57224822Y24010645D01*
X-57075843Y24260748D01*
X-56978519Y24535109D01*
X-57099186Y24765000D01*
X-58293000Y24765000D01*
X-58547000Y24765000D01*
X-58567000Y24765000D01*
X-58567000Y25019000D01*
X-58547000Y25019000D01*
X-58547000Y26212155D01*
X-58293000Y26212155D01*
X-58293000Y25019000D01*
X-57099186Y25019000D01*
X-56978519Y25248891D01*
X-57034978Y25408053D01*
X-15966741Y25408053D01*
X-15849565Y25125499D01*
X-15529703Y24966882D01*
X-15185042Y24873715D01*
X-14828828Y24849578D01*
X-14474748Y24895399D01*
X-14136413Y25009416D01*
X-13919235Y25125499D01*
X-13802059Y25408053D01*
X-14884400Y26490395D01*
X-15966741Y25408053D01*
X-57034978Y25408053D01*
X-57075843Y25523252D01*
X-57224822Y25773355D01*
X-57419731Y25989588D01*
X-57653080Y26163641D01*
X-57915901Y26288825D01*
X-58063110Y26333476D01*
X-58293000Y26212155D01*
X-58547000Y26212155D01*
X-58776890Y26333476D01*
X-58924099Y26288825D01*
X-59186920Y26163641D01*
X-59420269Y25989588D01*
X-59615178Y25773355D01*
X-59684805Y25656466D01*
X-59806525Y25838632D01*
X-60013368Y26045475D01*
X-60256589Y26207990D01*
X-60526842Y26319932D01*
X-60813740Y26377000D01*
X-61106260Y26377000D01*
X-61393158Y26319932D01*
X-61663411Y26207990D01*
X-61906632Y26045475D01*
X-62113475Y25838632D01*
X-62230000Y25664240D01*
X-62346525Y25838632D01*
X-62553368Y26045475D01*
X-62796589Y26207990D01*
X-63066842Y26319932D01*
X-63353740Y26377000D01*
X-63646260Y26377000D01*
X-63933158Y26319932D01*
X-64203411Y26207990D01*
X-64446632Y26045475D01*
X-64578487Y25913620D01*
X-64600498Y25986180D01*
X-64659463Y26096494D01*
X-64738815Y26193185D01*
X-64835506Y26272537D01*
X-64945820Y26331502D01*
X-65065518Y26367812D01*
X-65190000Y26380072D01*
X-66890000Y26380072D01*
X-67014482Y26367812D01*
X-67134180Y26331502D01*
X-67244494Y26272537D01*
X-67341185Y26193185D01*
X-67420537Y26096494D01*
X-67479502Y25986180D01*
X-67515812Y25866482D01*
X-67528072Y25742000D01*
X-74803000Y25742000D01*
X-74803000Y36443200D01*
X-73054252Y36443200D01*
X-73054252Y35956800D01*
X-72959360Y35479746D01*
X-72773223Y35030370D01*
X-72502994Y34625943D01*
X-72159057Y34282006D01*
X-71754630Y34011777D01*
X-71305254Y33825640D01*
X-70828200Y33730748D01*
X-70341800Y33730748D01*
X-69864746Y33825640D01*
X-69415370Y34011777D01*
X-69010943Y34282006D01*
X-68667006Y34625943D01*
X-68396777Y35030370D01*
X-68351367Y35140000D01*
X-64988072Y35140000D01*
X-64988072Y33440000D01*
X-64975812Y33315518D01*
X-64939502Y33195820D01*
X-64880537Y33085506D01*
X-64801185Y32988815D01*
X-64704494Y32909463D01*
X-64594180Y32850498D01*
X-64474482Y32814188D01*
X-64350000Y32801928D01*
X-62650000Y32801928D01*
X-62525518Y32814188D01*
X-62405820Y32850498D01*
X-62295506Y32909463D01*
X-62198815Y32988815D01*
X-62119463Y33085506D01*
X-62060498Y33195820D01*
X-62038487Y33268380D01*
X-61906632Y33136525D01*
X-61663411Y32974010D01*
X-61393158Y32862068D01*
X-61106260Y32805000D01*
X-60813740Y32805000D01*
X-60526842Y32862068D01*
X-60256589Y32974010D01*
X-60013368Y33136525D01*
X-59806525Y33343368D01*
X-59684805Y33525534D01*
X-59615178Y33408645D01*
X-59420269Y33192412D01*
X-59186920Y33018359D01*
X-58924099Y32893175D01*
X-58776890Y32848524D01*
X-58547000Y32969845D01*
X-58547000Y34163000D01*
X-58293000Y34163000D01*
X-58293000Y32969845D01*
X-58063110Y32848524D01*
X-57915901Y32893175D01*
X-57653080Y33018359D01*
X-57419731Y33192412D01*
X-57224822Y33408645D01*
X-57075843Y33658748D01*
X-56978519Y33933109D01*
X-57099186Y34163000D01*
X-58293000Y34163000D01*
X-58547000Y34163000D01*
X-58567000Y34163000D01*
X-58567000Y34417000D01*
X-58547000Y34417000D01*
X-58547000Y35610155D01*
X-58293000Y35610155D01*
X-58293000Y34417000D01*
X-57099186Y34417000D01*
X-56978519Y34646891D01*
X-57075843Y34921252D01*
X-57206144Y35140000D01*
X-47208072Y35140000D01*
X-47208072Y33440000D01*
X-47195812Y33315518D01*
X-47159502Y33195820D01*
X-47100537Y33085506D01*
X-47021185Y32988815D01*
X-46924494Y32909463D01*
X-46814180Y32850498D01*
X-46694482Y32814188D01*
X-46570000Y32801928D01*
X-44870000Y32801928D01*
X-44745518Y32814188D01*
X-44625820Y32850498D01*
X-44515506Y32909463D01*
X-44418815Y32988815D01*
X-44339463Y33085506D01*
X-44280498Y33195820D01*
X-44258487Y33268380D01*
X-44126632Y33136525D01*
X-43883411Y32974010D01*
X-43613158Y32862068D01*
X-43326260Y32805000D01*
X-43033740Y32805000D01*
X-42746842Y32862068D01*
X-42476589Y32974010D01*
X-42233368Y33136525D01*
X-42026525Y33343368D01*
X-41904805Y33525534D01*
X-41835178Y33408645D01*
X-41640269Y33192412D01*
X-41406920Y33018359D01*
X-41144099Y32893175D01*
X-40996890Y32848524D01*
X-40767000Y32969845D01*
X-40767000Y34163000D01*
X-40787000Y34163000D01*
X-40787000Y34417000D01*
X-40767000Y34417000D01*
X-40767000Y35610155D01*
X-40996890Y35731476D01*
X-41144099Y35686825D01*
X-41406920Y35561641D01*
X-41640269Y35387588D01*
X-41835178Y35171355D01*
X-41904805Y35054466D01*
X-42026525Y35236632D01*
X-42233368Y35443475D01*
X-42476589Y35605990D01*
X-42746842Y35717932D01*
X-43033740Y35775000D01*
X-43326260Y35775000D01*
X-43613158Y35717932D01*
X-43883411Y35605990D01*
X-44126632Y35443475D01*
X-44258487Y35311620D01*
X-44280498Y35384180D01*
X-44339463Y35494494D01*
X-44418815Y35591185D01*
X-44515506Y35670537D01*
X-44625820Y35729502D01*
X-44745518Y35765812D01*
X-44870000Y35778072D01*
X-46570000Y35778072D01*
X-46694482Y35765812D01*
X-46814180Y35729502D01*
X-46924494Y35670537D01*
X-47021185Y35591185D01*
X-47100537Y35494494D01*
X-47159502Y35384180D01*
X-47195812Y35264482D01*
X-47208072Y35140000D01*
X-57206144Y35140000D01*
X-57224822Y35171355D01*
X-57419731Y35387588D01*
X-57653080Y35561641D01*
X-57915901Y35686825D01*
X-58063110Y35731476D01*
X-58293000Y35610155D01*
X-58547000Y35610155D01*
X-58776890Y35731476D01*
X-58924099Y35686825D01*
X-59186920Y35561641D01*
X-59420269Y35387588D01*
X-59615178Y35171355D01*
X-59684805Y35054466D01*
X-59806525Y35236632D01*
X-60013368Y35443475D01*
X-60256589Y35605990D01*
X-60526842Y35717932D01*
X-60813740Y35775000D01*
X-61106260Y35775000D01*
X-61393158Y35717932D01*
X-61663411Y35605990D01*
X-61906632Y35443475D01*
X-62038487Y35311620D01*
X-62060498Y35384180D01*
X-62119463Y35494494D01*
X-62198815Y35591185D01*
X-62295506Y35670537D01*
X-62405820Y35729502D01*
X-62525518Y35765812D01*
X-62650000Y35778072D01*
X-64350000Y35778072D01*
X-64474482Y35765812D01*
X-64594180Y35729502D01*
X-64704494Y35670537D01*
X-64801185Y35591185D01*
X-64880537Y35494494D01*
X-64939502Y35384180D01*
X-64975812Y35264482D01*
X-64988072Y35140000D01*
X-68351367Y35140000D01*
X-68210640Y35479746D01*
X-68115748Y35956800D01*
X-68115748Y36443200D01*
X-68210640Y36920254D01*
X-68396777Y37369630D01*
X-68667006Y37774057D01*
X-69010943Y38117994D01*
X-69415370Y38388223D01*
X-69864746Y38574360D01*
X-70341800Y38669252D01*
X-70828200Y38669252D01*
X-71305254Y38574360D01*
X-71754630Y38388223D01*
X-72159057Y38117994D01*
X-72502994Y37774057D01*
X-72773223Y37369630D01*
X-72959360Y36920254D01*
X-73054252Y36443200D01*
X-74803000Y36443200D01*
X-74803000Y46640000D01*
X-64973072Y46640000D01*
X-64973072Y44940000D01*
X-64960812Y44815518D01*
X-64924502Y44695820D01*
X-64865537Y44585506D01*
X-64786185Y44488815D01*
X-64689494Y44409463D01*
X-64579180Y44350498D01*
X-64459482Y44314188D01*
X-64335000Y44301928D01*
X-62635000Y44301928D01*
X-62510518Y44314188D01*
X-62390820Y44350498D01*
X-62280506Y44409463D01*
X-62183815Y44488815D01*
X-62104463Y44585506D01*
X-62045498Y44695820D01*
X-62023487Y44768380D01*
X-61891632Y44636525D01*
X-61648411Y44474010D01*
X-61378158Y44362068D01*
X-61091260Y44305000D01*
X-60798740Y44305000D01*
X-60511842Y44362068D01*
X-60241589Y44474010D01*
X-59998368Y44636525D01*
X-59791525Y44843368D01*
X-59675000Y45017760D01*
X-59558475Y44843368D01*
X-59351632Y44636525D01*
X-59108411Y44474010D01*
X-58838158Y44362068D01*
X-58551260Y44305000D01*
X-58258740Y44305000D01*
X-57971842Y44362068D01*
X-57701589Y44474010D01*
X-57458368Y44636525D01*
X-57251525Y44843368D01*
X-57135000Y45017760D01*
X-57018475Y44843368D01*
X-56811632Y44636525D01*
X-56568411Y44474010D01*
X-56298158Y44362068D01*
X-56011260Y44305000D01*
X-55718740Y44305000D01*
X-55431842Y44362068D01*
X-55161589Y44474010D01*
X-54918368Y44636525D01*
X-54711525Y44843368D01*
X-54595000Y45017760D01*
X-54478475Y44843368D01*
X-54271632Y44636525D01*
X-54028411Y44474010D01*
X-53758158Y44362068D01*
X-53471260Y44305000D01*
X-53178740Y44305000D01*
X-52891842Y44362068D01*
X-52621589Y44474010D01*
X-52378368Y44636525D01*
X-52171525Y44843368D01*
X-52055000Y45017760D01*
X-51938475Y44843368D01*
X-51731632Y44636525D01*
X-51488411Y44474010D01*
X-51218158Y44362068D01*
X-50931260Y44305000D01*
X-50638740Y44305000D01*
X-50351842Y44362068D01*
X-50081589Y44474010D01*
X-49838368Y44636525D01*
X-49631525Y44843368D01*
X-49515000Y45017760D01*
X-49398475Y44843368D01*
X-49191632Y44636525D01*
X-48948411Y44474010D01*
X-48678158Y44362068D01*
X-48391260Y44305000D01*
X-48098740Y44305000D01*
X-47811842Y44362068D01*
X-47541589Y44474010D01*
X-47298368Y44636525D01*
X-47091525Y44843368D01*
X-46975000Y45017760D01*
X-46858475Y44843368D01*
X-46651632Y44636525D01*
X-46408411Y44474010D01*
X-46138158Y44362068D01*
X-45851260Y44305000D01*
X-45558740Y44305000D01*
X-45271842Y44362068D01*
X-45001589Y44474010D01*
X-44758368Y44636525D01*
X-44551525Y44843368D01*
X-44435000Y45017760D01*
X-44318475Y44843368D01*
X-44111632Y44636525D01*
X-43868411Y44474010D01*
X-43598158Y44362068D01*
X-43311260Y44305000D01*
X-43018740Y44305000D01*
X-42731842Y44362068D01*
X-42461589Y44474010D01*
X-42218368Y44636525D01*
X-42011525Y44843368D01*
X-41895000Y45017760D01*
X-41778475Y44843368D01*
X-41571632Y44636525D01*
X-41328411Y44474010D01*
X-41058158Y44362068D01*
X-40771260Y44305000D01*
X-40478740Y44305000D01*
X-40191842Y44362068D01*
X-40039299Y44425253D01*
X-40039299Y43765152D01*
X-40132886Y43625089D01*
X-40203368Y43454929D01*
X-40239300Y43274289D01*
X-40239300Y43090111D01*
X-40203368Y42909471D01*
X-40132886Y42739311D01*
X-40030562Y42586172D01*
X-39900328Y42455938D01*
X-39747189Y42353614D01*
X-39577029Y42283132D01*
X-39396389Y42247200D01*
X-39342999Y42247200D01*
X-39342999Y35000417D01*
X-39444822Y35171355D01*
X-39639731Y35387588D01*
X-39873080Y35561641D01*
X-40135901Y35686825D01*
X-40283110Y35731476D01*
X-40513000Y35610155D01*
X-40513000Y34417000D01*
X-40493000Y34417000D01*
X-40493000Y34163000D01*
X-40513000Y34163000D01*
X-40513000Y32969845D01*
X-40283110Y32848524D01*
X-40135901Y32893175D01*
X-39930379Y32991067D01*
X-39991192Y32930254D01*
X-40019238Y32907237D01*
X-40111087Y32795319D01*
X-40179337Y32667632D01*
X-40189250Y32634953D01*
X-40221365Y32529085D01*
X-40235556Y32385000D01*
X-40232000Y32348895D01*
X-40231999Y31091405D01*
X-40320889Y31054586D01*
X-40474028Y30952262D01*
X-40604262Y30822028D01*
X-40706586Y30668889D01*
X-40777068Y30498729D01*
X-40813000Y30318089D01*
X-40813000Y30133911D01*
X-40777068Y29953271D01*
X-40706586Y29783111D01*
X-40604262Y29629972D01*
X-40474028Y29499738D01*
X-40320889Y29397414D01*
X-40150729Y29326932D01*
X-39970089Y29291000D01*
X-39785911Y29291000D01*
X-39605271Y29326932D01*
X-39435111Y29397414D01*
X-39281972Y29499738D01*
X-39151738Y29629972D01*
X-39049414Y29783111D01*
X-39026668Y29838025D01*
X-38999068Y29699271D01*
X-38928586Y29529111D01*
X-38826262Y29375972D01*
X-38696028Y29245738D01*
X-38542889Y29143414D01*
X-38372729Y29072932D01*
X-38192089Y29037000D01*
X-38007911Y29037000D01*
X-37827271Y29072932D01*
X-37819000Y29076358D01*
X-37819000Y27506951D01*
X-37912586Y27366889D01*
X-37983068Y27196729D01*
X-38019000Y27016089D01*
X-38019000Y26831911D01*
X-37983068Y26651271D01*
X-37912586Y26481111D01*
X-37810262Y26327972D01*
X-37680028Y26197738D01*
X-37526889Y26095414D01*
X-37356729Y26024932D01*
X-37176089Y25989000D01*
X-36991911Y25989000D01*
X-36811271Y26024932D01*
X-36641111Y26095414D01*
X-36487972Y26197738D01*
X-36357738Y26327972D01*
X-36255414Y26481111D01*
X-36200193Y26614428D01*
X-16704822Y26614428D01*
X-16659001Y26260348D01*
X-16544984Y25922013D01*
X-16428901Y25704835D01*
X-16146347Y25587659D01*
X-15064005Y26670000D01*
X-14704795Y26670000D01*
X-13622453Y25587659D01*
X-13339899Y25704835D01*
X-13181282Y26024697D01*
X-13133257Y26202361D01*
X-13095149Y26010782D01*
X-12924786Y25599489D01*
X-12677456Y25229334D01*
X-12362666Y24914544D01*
X-11992511Y24667214D01*
X-11581218Y24496851D01*
X-11144591Y24410000D01*
X-10699409Y24410000D01*
X-10262782Y24496851D01*
X-9851489Y24667214D01*
X-9481334Y24914544D01*
X-9166544Y25229334D01*
X-8919214Y25599489D01*
X-8748851Y26010782D01*
X-8662000Y26447409D01*
X-8662000Y26892591D01*
X-3530000Y26892591D01*
X-3530000Y26447409D01*
X-3443149Y26010782D01*
X-3272786Y25599489D01*
X-3025456Y25229334D01*
X-2710666Y24914544D01*
X-2340511Y24667214D01*
X-1929218Y24496851D01*
X-1492591Y24410000D01*
X-1047409Y24410000D01*
X-610782Y24496851D01*
X-199489Y24667214D01*
X170666Y24914544D01*
X485456Y25229334D01*
X604872Y25408053D01*
X1610059Y25408053D01*
X1727235Y25125499D01*
X2047097Y24966882D01*
X2391758Y24873715D01*
X2747972Y24849578D01*
X3102052Y24895399D01*
X3440387Y25009416D01*
X3657565Y25125499D01*
X3774741Y25408053D01*
X2692400Y26490395D01*
X1610059Y25408053D01*
X604872Y25408053D01*
X732786Y25599489D01*
X903149Y26010782D01*
X939803Y26195053D01*
X1031816Y25922013D01*
X1147899Y25704835D01*
X1430453Y25587659D01*
X2512795Y26670000D01*
X2872005Y26670000D01*
X3954347Y25587659D01*
X4236901Y25704835D01*
X4395518Y26024697D01*
X4488685Y26369358D01*
X4512822Y26725572D01*
X4467001Y27079652D01*
X4352984Y27417987D01*
X4236901Y27635165D01*
X3954347Y27752341D01*
X2872005Y26670000D01*
X2512795Y26670000D01*
X1430453Y27752341D01*
X1147899Y27635165D01*
X989282Y27315303D01*
X941257Y27137639D01*
X903149Y27329218D01*
X732786Y27740511D01*
X604873Y27931947D01*
X1610059Y27931947D01*
X2692400Y26849605D01*
X3774741Y27931947D01*
X3657565Y28214501D01*
X3337703Y28373118D01*
X2993042Y28466285D01*
X2636828Y28490422D01*
X2282748Y28444601D01*
X1944413Y28330584D01*
X1727235Y28214501D01*
X1610059Y27931947D01*
X604873Y27931947D01*
X485456Y28110666D01*
X170666Y28425456D01*
X-199489Y28672786D01*
X-610782Y28843149D01*
X-1047409Y28930000D01*
X-1492591Y28930000D01*
X-1929218Y28843149D01*
X-2340511Y28672786D01*
X-2710666Y28425456D01*
X-3025456Y28110666D01*
X-3272786Y27740511D01*
X-3443149Y27329218D01*
X-3530000Y26892591D01*
X-8662000Y26892591D01*
X-8748851Y27329218D01*
X-8919214Y27740511D01*
X-9166544Y28110666D01*
X-9481334Y28425456D01*
X-9851489Y28672786D01*
X-10262782Y28843149D01*
X-10699409Y28930000D01*
X-11144591Y28930000D01*
X-11581218Y28843149D01*
X-11992511Y28672786D01*
X-12362666Y28425456D01*
X-12677456Y28110666D01*
X-12924786Y27740511D01*
X-13095149Y27329218D01*
X-13131803Y27144947D01*
X-13223816Y27417987D01*
X-13339899Y27635165D01*
X-13622453Y27752341D01*
X-14704795Y26670000D01*
X-15064005Y26670000D01*
X-16146347Y27752341D01*
X-16428901Y27635165D01*
X-16587518Y27315303D01*
X-16680685Y26970642D01*
X-16704822Y26614428D01*
X-36200193Y26614428D01*
X-36184932Y26651271D01*
X-36149000Y26831911D01*
X-36149000Y27016089D01*
X-36184932Y27196729D01*
X-36255414Y27366889D01*
X-36349000Y27506951D01*
X-36349000Y27931947D01*
X-15966741Y27931947D01*
X-14884400Y26849605D01*
X-13802059Y27931947D01*
X-13919235Y28214501D01*
X-14239097Y28373118D01*
X-14583758Y28466285D01*
X-14939972Y28490422D01*
X-15294052Y28444601D01*
X-15632387Y28330584D01*
X-15849565Y28214501D01*
X-15966741Y27931947D01*
X-36349000Y27931947D01*
X-36349000Y30937554D01*
X-35205247Y32081306D01*
X-35205243Y32081311D01*
X-34303053Y32983500D01*
X-30579605Y32983500D01*
X-30543500Y32979944D01*
X-30507395Y32983500D01*
X-30399415Y32994135D01*
X-30260867Y33036163D01*
X-30133180Y33104413D01*
X-30021262Y33196262D01*
X-29998241Y33224313D01*
X-27318803Y35903750D01*
X-27290763Y35926762D01*
X-27270143Y35951888D01*
X-13592000Y35951888D01*
X-13592000Y35676112D01*
X-13538199Y35405635D01*
X-13432664Y35150851D01*
X-13279451Y34921552D01*
X-13084448Y34726549D01*
X-12855149Y34573336D01*
X-12600365Y34467801D01*
X-12329888Y34414000D01*
X-12054112Y34414000D01*
X-11962544Y34432214D01*
X-12068448Y34361451D01*
X-12263451Y34166448D01*
X-12416664Y33937149D01*
X-12522199Y33682365D01*
X-12576000Y33411888D01*
X-12576000Y33136112D01*
X-12522199Y32865635D01*
X-12416664Y32610851D01*
X-12263451Y32381552D01*
X-12068448Y32186549D01*
X-11839149Y32033336D01*
X-11584365Y31927801D01*
X-11313888Y31874000D01*
X-11038112Y31874000D01*
X-10767635Y31927801D01*
X-10512851Y32033336D01*
X-10283552Y32186549D01*
X-10160000Y32310101D01*
X-10036448Y32186549D01*
X-9807149Y32033336D01*
X-9552365Y31927801D01*
X-9281888Y31874000D01*
X-9006112Y31874000D01*
X-8735635Y31927801D01*
X-8480851Y32033336D01*
X-8251552Y32186549D01*
X-8128000Y32310101D01*
X-8004448Y32186549D01*
X-7775149Y32033336D01*
X-7520365Y31927801D01*
X-7249888Y31874000D01*
X-6974112Y31874000D01*
X-6703635Y31927801D01*
X-6448851Y32033336D01*
X-6219552Y32186549D01*
X-6096000Y32310101D01*
X-5972448Y32186549D01*
X-5743149Y32033336D01*
X-5488365Y31927801D01*
X-5217888Y31874000D01*
X-4942112Y31874000D01*
X-4671635Y31927801D01*
X-4416851Y32033336D01*
X-4187552Y32186549D01*
X-4064000Y32310101D01*
X-3940448Y32186549D01*
X-3711149Y32033336D01*
X-3456365Y31927801D01*
X-3185888Y31874000D01*
X-2910112Y31874000D01*
X-2639635Y31927801D01*
X-2384851Y32033336D01*
X-2273278Y32107887D01*
X-2232185Y32057815D01*
X-2135494Y31978463D01*
X-2025180Y31919498D01*
X-1905482Y31883188D01*
X-1781000Y31870928D01*
X-251000Y31870928D01*
X-126518Y31883188D01*
X-6820Y31919498D01*
X103494Y31978463D01*
X200185Y32057815D01*
X279537Y32154506D01*
X338502Y32264820D01*
X374812Y32384518D01*
X387072Y32509000D01*
X387072Y34039000D01*
X374812Y34163482D01*
X338502Y34283180D01*
X279537Y34393494D01*
X245192Y34435344D01*
X408365Y34467801D01*
X663149Y34573336D01*
X892448Y34726549D01*
X1087451Y34921552D01*
X1240664Y35150851D01*
X1346199Y35405635D01*
X1400000Y35676112D01*
X1400000Y35951888D01*
X1346199Y36222365D01*
X1254727Y36443200D01*
X12235748Y36443200D01*
X12235748Y35956800D01*
X12330640Y35479746D01*
X12516777Y35030370D01*
X12787006Y34625943D01*
X13130943Y34282006D01*
X13535370Y34011777D01*
X13984746Y33825640D01*
X14461800Y33730748D01*
X14948200Y33730748D01*
X15425254Y33825640D01*
X15874630Y34011777D01*
X16279057Y34282006D01*
X16622994Y34625943D01*
X16893223Y35030370D01*
X17079360Y35479746D01*
X17174252Y35956800D01*
X17174252Y36443200D01*
X17079360Y36920254D01*
X16893223Y37369630D01*
X16622994Y37774057D01*
X16279057Y38117994D01*
X15874630Y38388223D01*
X15425254Y38574360D01*
X14948200Y38669252D01*
X14461800Y38669252D01*
X13984746Y38574360D01*
X13535370Y38388223D01*
X13130943Y38117994D01*
X12787006Y37774057D01*
X12516777Y37369630D01*
X12330640Y36920254D01*
X12235748Y36443200D01*
X1254727Y36443200D01*
X1240664Y36477149D01*
X1087451Y36706448D01*
X892448Y36901451D01*
X663149Y37054664D01*
X408365Y37160199D01*
X137888Y37214000D01*
X-137888Y37214000D01*
X-408365Y37160199D01*
X-663149Y37054664D01*
X-892448Y36901451D01*
X-1016000Y36777899D01*
X-1139552Y36901451D01*
X-1368851Y37054664D01*
X-1623635Y37160199D01*
X-1894112Y37214000D01*
X-2169888Y37214000D01*
X-2440365Y37160199D01*
X-2695149Y37054664D01*
X-2924448Y36901451D01*
X-3048000Y36777899D01*
X-3171552Y36901451D01*
X-3400851Y37054664D01*
X-3655635Y37160199D01*
X-3926112Y37214000D01*
X-4201888Y37214000D01*
X-4472365Y37160199D01*
X-4727149Y37054664D01*
X-4956448Y36901451D01*
X-5151451Y36706448D01*
X-5304664Y36477149D01*
X-5410199Y36222365D01*
X-5464000Y35951888D01*
X-5464000Y35676112D01*
X-5410199Y35405635D01*
X-5304664Y35150851D01*
X-5151451Y34921552D01*
X-4956448Y34726549D01*
X-4850544Y34655786D01*
X-4942112Y34674000D01*
X-5217888Y34674000D01*
X-5488365Y34620199D01*
X-5743149Y34514664D01*
X-5972448Y34361451D01*
X-6096000Y34237899D01*
X-6219552Y34361451D01*
X-6448851Y34514664D01*
X-6703635Y34620199D01*
X-6974112Y34674000D01*
X-7249888Y34674000D01*
X-7341456Y34655786D01*
X-7235552Y34726549D01*
X-7040549Y34921552D01*
X-6887336Y35150851D01*
X-6781801Y35405635D01*
X-6728000Y35676112D01*
X-6728000Y35951888D01*
X-6781801Y36222365D01*
X-6887336Y36477149D01*
X-7040549Y36706448D01*
X-7235552Y36901451D01*
X-7464851Y37054664D01*
X-7719635Y37160199D01*
X-7990112Y37214000D01*
X-8265888Y37214000D01*
X-8536365Y37160199D01*
X-8791149Y37054664D01*
X-9020448Y36901451D01*
X-9144000Y36777899D01*
X-9267552Y36901451D01*
X-9496851Y37054664D01*
X-9751635Y37160199D01*
X-10022112Y37214000D01*
X-10297888Y37214000D01*
X-10568365Y37160199D01*
X-10823149Y37054664D01*
X-11052448Y36901451D01*
X-11176000Y36777899D01*
X-11299552Y36901451D01*
X-11528851Y37054664D01*
X-11783635Y37160199D01*
X-12054112Y37214000D01*
X-12329888Y37214000D01*
X-12600365Y37160199D01*
X-12855149Y37054664D01*
X-13084448Y36901451D01*
X-13279451Y36706448D01*
X-13432664Y36477149D01*
X-13538199Y36222365D01*
X-13592000Y35951888D01*
X-27270143Y35951888D01*
X-27267750Y35954803D01*
X-27267747Y35954806D01*
X-27198914Y36038679D01*
X-27198913Y36038680D01*
X-27130663Y36166367D01*
X-27089574Y36301820D01*
X-27088635Y36304914D01*
X-27085184Y36339959D01*
X-27078000Y36412895D01*
X-27078000Y36412902D01*
X-27074445Y36448999D01*
X-27078000Y36485096D01*
X-27078000Y46124595D01*
X-26989111Y46161414D01*
X-26835972Y46263738D01*
X-26705738Y46393972D01*
X-26603414Y46547111D01*
X-26532932Y46717271D01*
X-26497000Y46897911D01*
X-26497000Y47082089D01*
X-26532932Y47262729D01*
X-26603414Y47432889D01*
X-26705738Y47586028D01*
X-26835972Y47716262D01*
X-26989111Y47818586D01*
X-27159271Y47889068D01*
X-27339911Y47925000D01*
X-27524089Y47925000D01*
X-27704729Y47889068D01*
X-27874889Y47818586D01*
X-28028028Y47716262D01*
X-28158262Y47586028D01*
X-28198788Y47525377D01*
X-28292411Y47544000D01*
X-28476589Y47544000D01*
X-28657229Y47508068D01*
X-28827389Y47437586D01*
X-28980528Y47335262D01*
X-29110762Y47205028D01*
X-29213086Y47051889D01*
X-29283568Y46881729D01*
X-29319500Y46701089D01*
X-29319500Y46516911D01*
X-29283568Y46336271D01*
X-29213086Y46166111D01*
X-29119500Y46026049D01*
X-29119499Y36644408D01*
X-29427419Y36336487D01*
X-29427424Y36336483D01*
X-30983396Y34780510D01*
X-34706857Y34780510D01*
X-34742952Y34784065D01*
X-34779047Y34780510D01*
X-34779056Y34780510D01*
X-34887036Y34769875D01*
X-35025584Y34727847D01*
X-35104000Y34685933D01*
X-35104000Y44556781D01*
X-35016262Y44425472D01*
X-34886028Y44295238D01*
X-34732889Y44192914D01*
X-34562729Y44122432D01*
X-34382089Y44086500D01*
X-34197911Y44086500D01*
X-34017271Y44122432D01*
X-33847111Y44192914D01*
X-33693972Y44295238D01*
X-33689436Y44299774D01*
X-33665068Y44177271D01*
X-33594586Y44007111D01*
X-33492262Y43853972D01*
X-33362028Y43723738D01*
X-33208889Y43621414D01*
X-33038729Y43550932D01*
X-32858089Y43515000D01*
X-32673911Y43515000D01*
X-32493271Y43550932D01*
X-32385000Y43595779D01*
X-32276729Y43550932D01*
X-32096089Y43515000D01*
X-31911911Y43515000D01*
X-31731271Y43550932D01*
X-31561111Y43621414D01*
X-31407972Y43723738D01*
X-31277738Y43853972D01*
X-31175414Y44007111D01*
X-31104932Y44177271D01*
X-31069000Y44357911D01*
X-31069000Y44542089D01*
X-31104932Y44722729D01*
X-31175414Y44892889D01*
X-31277738Y45046028D01*
X-31407972Y45176262D01*
X-31459500Y45210692D01*
X-31459500Y49557397D01*
X-31455944Y49593502D01*
X-31470135Y49737587D01*
X-31485840Y49789357D01*
X-31512163Y49876134D01*
X-31580413Y50003821D01*
X-31636479Y50072137D01*
X-31649247Y50087695D01*
X-31649250Y50087698D01*
X-31672263Y50115739D01*
X-31700304Y50138751D01*
X-32211767Y50650213D01*
X-32285000Y50723446D01*
X-32285000Y55131024D01*
X-2252935Y55131024D01*
X-2252935Y54946846D01*
X-2217003Y54766206D01*
X-2146521Y54596046D01*
X-2044197Y54442907D01*
X-1913963Y54312673D01*
X-1760824Y54210349D01*
X-1606552Y54146448D01*
X-1542651Y53992176D01*
X-1440327Y53839037D01*
X-1310093Y53708803D01*
X-1156954Y53606479D01*
X-986794Y53535997D01*
X-806154Y53500065D01*
X-641997Y53500065D01*
X-622521Y53453046D01*
X-520197Y53299907D01*
X-389963Y53169673D01*
X-236824Y53067349D01*
X-82552Y53003448D01*
X-18651Y52849176D01*
X83673Y52696037D01*
X213907Y52565803D01*
X367046Y52463479D01*
X537206Y52392997D01*
X717846Y52357065D01*
X902024Y52357065D01*
X1082664Y52392997D01*
X1252824Y52463479D01*
X1405963Y52565803D01*
X1536197Y52696037D01*
X1638521Y52849176D01*
X1709003Y53019336D01*
X1744935Y53199976D01*
X1744935Y53314600D01*
X2288243Y53314600D01*
X2290726Y53312116D01*
X2278972Y53304262D01*
X2148738Y53174028D01*
X2046414Y53020889D01*
X1975932Y52850729D01*
X1940000Y52670089D01*
X1940000Y52485911D01*
X1975932Y52305271D01*
X2046414Y52135111D01*
X2148738Y51981972D01*
X2278972Y51851738D01*
X2432111Y51749414D01*
X2602271Y51678932D01*
X2782911Y51643000D01*
X2967089Y51643000D01*
X3147729Y51678932D01*
X3302000Y51742833D01*
X3370428Y51714489D01*
X3316099Y51633179D01*
X3079776Y51062646D01*
X2959300Y50456971D01*
X2959300Y49839429D01*
X3079776Y49233754D01*
X3316099Y48663221D01*
X3659186Y48149754D01*
X4095854Y47713086D01*
X4609321Y47369999D01*
X5179854Y47133676D01*
X5785529Y47013200D01*
X6403071Y47013200D01*
X7008746Y47133676D01*
X7579279Y47369999D01*
X8092746Y47713086D01*
X8529414Y48149754D01*
X8872501Y48663221D01*
X9108824Y49233754D01*
X9229300Y49839429D01*
X9229300Y50456971D01*
X9108824Y51062646D01*
X8872501Y51633179D01*
X8529414Y52146646D01*
X8092746Y52583314D01*
X7579279Y52926401D01*
X7008746Y53162724D01*
X6403071Y53283200D01*
X5785529Y53283200D01*
X5179854Y53162724D01*
X4609321Y52926401D01*
X4599455Y52919808D01*
X4557586Y53020889D01*
X4455262Y53174028D01*
X4325028Y53304262D01*
X4216400Y53376845D01*
X4216400Y53643253D01*
X4219839Y53678171D01*
X4216400Y53713089D01*
X4216400Y53713106D01*
X4206109Y53817590D01*
X4165442Y53951651D01*
X4099402Y54075203D01*
X4057609Y54126128D01*
X4032797Y54156362D01*
X4032793Y54156366D01*
X4010527Y54183497D01*
X3983396Y54205763D01*
X3278771Y54910386D01*
X3256497Y54937527D01*
X3148203Y55026402D01*
X3024651Y55092442D01*
X2890590Y55133109D01*
X2786106Y55143400D01*
X2786096Y55143400D01*
X2751170Y55146840D01*
X2716244Y55143400D01*
X1093756Y55143400D01*
X1058830Y55146840D01*
X1023904Y55143400D01*
X1023895Y55143400D01*
X919411Y55133109D01*
X785350Y55092442D01*
X670574Y55031093D01*
X661798Y55026402D01*
X580639Y54959797D01*
X580635Y54959793D01*
X553504Y54937527D01*
X531238Y54910395D01*
X426289Y54805447D01*
X358991Y54818834D01*
X808400Y55268243D01*
X835526Y55290504D01*
X857788Y55317630D01*
X857798Y55317640D01*
X924402Y55398798D01*
X990442Y55522349D01*
X1031109Y55656411D01*
X1034485Y55690689D01*
X1041400Y55760895D01*
X1041400Y55760902D01*
X1044840Y55795831D01*
X1041400Y55830759D01*
X1041400Y56226089D01*
X14686000Y56226089D01*
X14686000Y56041911D01*
X14721932Y55861271D01*
X14792414Y55691111D01*
X14894738Y55537972D01*
X15024972Y55407738D01*
X15178111Y55305414D01*
X15348271Y55234932D01*
X15528911Y55199000D01*
X15713089Y55199000D01*
X15893729Y55234932D01*
X16063889Y55305414D01*
X16217028Y55407738D01*
X16233290Y55424000D01*
X16405710Y55424000D01*
X16421972Y55407738D01*
X16575111Y55305414D01*
X16745271Y55234932D01*
X16925911Y55199000D01*
X17110089Y55199000D01*
X17290729Y55234932D01*
X17460889Y55305414D01*
X17614028Y55407738D01*
X17744262Y55537972D01*
X17846586Y55691111D01*
X17917068Y55861271D01*
X17953000Y56041911D01*
X17953000Y56226089D01*
X17917068Y56406729D01*
X17846586Y56576889D01*
X17744262Y56730028D01*
X17614028Y56860262D01*
X17460889Y56962586D01*
X17290729Y57033068D01*
X17110089Y57069000D01*
X16925911Y57069000D01*
X16745271Y57033068D01*
X16575111Y56962586D01*
X16421972Y56860262D01*
X16405710Y56844000D01*
X16233290Y56844000D01*
X16217028Y56860262D01*
X16063889Y56962586D01*
X15893729Y57033068D01*
X15713089Y57069000D01*
X15528911Y57069000D01*
X15348271Y57033068D01*
X15178111Y56962586D01*
X15024972Y56860262D01*
X14894738Y56730028D01*
X14792414Y56576889D01*
X14721932Y56406729D01*
X14686000Y56226089D01*
X1041400Y56226089D01*
X1041400Y57453245D01*
X1044840Y57488171D01*
X1041400Y57523097D01*
X1041400Y57523106D01*
X1031109Y57627590D01*
X990442Y57761651D01*
X924402Y57885203D01*
X835527Y57993497D01*
X808390Y58015767D01*
X15572Y58808585D01*
X-6703Y58835727D01*
X-17301Y58844424D01*
X-80536Y58997089D01*
X-182860Y59150228D01*
X-313094Y59280462D01*
X-466233Y59382786D01*
X-636393Y59453268D01*
X-817033Y59489200D01*
X-1001211Y59489200D01*
X-1181851Y59453268D01*
X-1352011Y59382786D01*
X-1505150Y59280462D01*
X-1635384Y59150228D01*
X-1737708Y58997089D01*
X-1808190Y58826929D01*
X-1844122Y58646289D01*
X-1844122Y58462111D01*
X-1808190Y58281471D01*
X-1744289Y58127200D01*
X-1808190Y57972929D01*
X-1844122Y57792289D01*
X-1844122Y57608111D01*
X-1808190Y57427471D01*
X-1737708Y57257311D01*
X-1635384Y57104172D01*
X-1505150Y56973938D01*
X-1352011Y56871614D01*
X-1181851Y56801132D01*
X-1001211Y56765200D01*
X-817033Y56765200D01*
X-787399Y56771095D01*
X-787400Y56258758D01*
X-1097710Y55948447D01*
X-1225846Y55973935D01*
X-1410024Y55973935D01*
X-1590664Y55938003D01*
X-1760824Y55867521D01*
X-1913963Y55765197D01*
X-2044197Y55634963D01*
X-2146521Y55481824D01*
X-2217003Y55311664D01*
X-2252935Y55131024D01*
X-32285000Y55131024D01*
X-32285000Y58823379D01*
X-32169972Y58900238D01*
X-32039738Y59030472D01*
X-31937414Y59183611D01*
X-31866932Y59353771D01*
X-31831000Y59534411D01*
X-31831000Y59718589D01*
X-31866932Y59899229D01*
X-31937414Y60069389D01*
X-32039738Y60222528D01*
X-32169972Y60352762D01*
X-32323111Y60455086D01*
X-32493271Y60525568D01*
X-32673911Y60561500D01*
X-32858089Y60561500D01*
X-33038729Y60525568D01*
X-33178750Y60467570D01*
X-33318771Y60525568D01*
X-33499411Y60561500D01*
X-33683589Y60561500D01*
X-33864229Y60525568D01*
X-34034389Y60455086D01*
X-34187528Y60352762D01*
X-34317762Y60222528D01*
X-34420086Y60069389D01*
X-34490568Y59899229D01*
X-34526500Y59718589D01*
X-34526500Y59534411D01*
X-34490568Y59353771D01*
X-34420086Y59183611D01*
X-34317762Y59030472D01*
X-34187528Y58900238D01*
X-34082009Y58829733D01*
X-34082010Y50319655D01*
X-34085566Y50283550D01*
X-34071798Y50143756D01*
X-34071375Y50139466D01*
X-34029347Y50000918D01*
X-33961097Y49873231D01*
X-33869248Y49761313D01*
X-33841202Y49738296D01*
X-33764733Y49661827D01*
X-33256510Y49153603D01*
X-33256510Y47836976D01*
X-33382271Y47889068D01*
X-33562911Y47925000D01*
X-33747089Y47925000D01*
X-33927729Y47889068D01*
X-34097889Y47818586D01*
X-34251028Y47716262D01*
X-34381262Y47586028D01*
X-34483586Y47432889D01*
X-34554068Y47262729D01*
X-34586932Y47097515D01*
X-34784192Y46900254D01*
X-34812237Y46877238D01*
X-34879000Y46795887D01*
X-34879000Y46828089D01*
X-34914932Y47008729D01*
X-34985414Y47178889D01*
X-35087738Y47332028D01*
X-35217972Y47462262D01*
X-35371111Y47564586D01*
X-35541271Y47635068D01*
X-35721911Y47671000D01*
X-35906089Y47671000D01*
X-36086729Y47635068D01*
X-36195000Y47590221D01*
X-36303271Y47635068D01*
X-36483911Y47671000D01*
X-36668089Y47671000D01*
X-36848729Y47635068D01*
X-37018889Y47564586D01*
X-37172028Y47462262D01*
X-37302262Y47332028D01*
X-37404586Y47178889D01*
X-37475068Y47008729D01*
X-37511000Y46828089D01*
X-37511000Y46643911D01*
X-37475068Y46463271D01*
X-37404586Y46293111D01*
X-37302262Y46139972D01*
X-37286000Y46123710D01*
X-37285999Y35340886D01*
X-37286000Y35340876D01*
X-37285999Y33325409D01*
X-38262866Y32348542D01*
X-38346963Y32383376D01*
X-38440560Y32401994D01*
X-38113807Y32728746D01*
X-38085762Y32751762D01*
X-37993913Y32863680D01*
X-37925663Y32991367D01*
X-37883635Y33129915D01*
X-37873000Y33237895D01*
X-37869444Y33274000D01*
X-37873000Y33310105D01*
X-37873000Y51233049D01*
X-37779414Y51373111D01*
X-37708932Y51543271D01*
X-37673000Y51723911D01*
X-37673000Y51908089D01*
X-37708932Y52088729D01*
X-37779414Y52258889D01*
X-37881738Y52412028D01*
X-38011972Y52542262D01*
X-38165111Y52644586D01*
X-38335271Y52715068D01*
X-38515911Y52751000D01*
X-38700089Y52751000D01*
X-38880729Y52715068D01*
X-39050889Y52644586D01*
X-39204028Y52542262D01*
X-39334262Y52412028D01*
X-39436586Y52258889D01*
X-39507068Y52088729D01*
X-39543000Y51908089D01*
X-39543000Y51723911D01*
X-39507068Y51543271D01*
X-39436586Y51373111D01*
X-39343000Y51233049D01*
X-39343000Y50340200D01*
X-39396389Y50340200D01*
X-39577029Y50304268D01*
X-39747189Y50233786D01*
X-39900328Y50131462D01*
X-40030562Y50001228D01*
X-40132886Y49848089D01*
X-40173395Y49750291D01*
X-40191842Y49757932D01*
X-40478740Y49815000D01*
X-40771260Y49815000D01*
X-41058158Y49757932D01*
X-41328411Y49645990D01*
X-41571632Y49483475D01*
X-41778475Y49276632D01*
X-41895000Y49102240D01*
X-42011525Y49276632D01*
X-42218368Y49483475D01*
X-42461589Y49645990D01*
X-42731842Y49757932D01*
X-43018740Y49815000D01*
X-43311260Y49815000D01*
X-43598158Y49757932D01*
X-43868411Y49645990D01*
X-44111632Y49483475D01*
X-44318475Y49276632D01*
X-44435000Y49102240D01*
X-44551525Y49276632D01*
X-44758368Y49483475D01*
X-45001589Y49645990D01*
X-45271842Y49757932D01*
X-45558740Y49815000D01*
X-45851260Y49815000D01*
X-46138158Y49757932D01*
X-46408411Y49645990D01*
X-46651632Y49483475D01*
X-46858475Y49276632D01*
X-46975000Y49102240D01*
X-47091525Y49276632D01*
X-47298368Y49483475D01*
X-47541589Y49645990D01*
X-47811842Y49757932D01*
X-48098740Y49815000D01*
X-48391260Y49815000D01*
X-48678158Y49757932D01*
X-48948411Y49645990D01*
X-49191632Y49483475D01*
X-49398475Y49276632D01*
X-49515000Y49102240D01*
X-49631525Y49276632D01*
X-49838368Y49483475D01*
X-50081589Y49645990D01*
X-50351842Y49757932D01*
X-50638740Y49815000D01*
X-50931260Y49815000D01*
X-51218158Y49757932D01*
X-51488411Y49645990D01*
X-51731632Y49483475D01*
X-51938475Y49276632D01*
X-52055000Y49102240D01*
X-52171525Y49276632D01*
X-52378368Y49483475D01*
X-52621589Y49645990D01*
X-52891842Y49757932D01*
X-53178740Y49815000D01*
X-53471260Y49815000D01*
X-53758158Y49757932D01*
X-54028411Y49645990D01*
X-54271632Y49483475D01*
X-54478475Y49276632D01*
X-54595000Y49102240D01*
X-54711525Y49276632D01*
X-54918368Y49483475D01*
X-55161589Y49645990D01*
X-55431842Y49757932D01*
X-55718740Y49815000D01*
X-56011260Y49815000D01*
X-56298158Y49757932D01*
X-56568411Y49645990D01*
X-56811632Y49483475D01*
X-57018475Y49276632D01*
X-57135000Y49102240D01*
X-57251525Y49276632D01*
X-57458368Y49483475D01*
X-57701589Y49645990D01*
X-57971842Y49757932D01*
X-58258740Y49815000D01*
X-58551260Y49815000D01*
X-58838158Y49757932D01*
X-59108411Y49645990D01*
X-59351632Y49483475D01*
X-59558475Y49276632D01*
X-59680195Y49094466D01*
X-59749822Y49211355D01*
X-59944731Y49427588D01*
X-60178080Y49601641D01*
X-60440901Y49726825D01*
X-60588110Y49771476D01*
X-60818000Y49650155D01*
X-60818000Y48457000D01*
X-60798000Y48457000D01*
X-60798000Y48203000D01*
X-60818000Y48203000D01*
X-60818000Y48183000D01*
X-61072000Y48183000D01*
X-61072000Y48203000D01*
X-61092000Y48203000D01*
X-61092000Y48457000D01*
X-61072000Y48457000D01*
X-61072000Y49650155D01*
X-61301890Y49771476D01*
X-61449099Y49726825D01*
X-61711920Y49601641D01*
X-61945269Y49427588D01*
X-62140178Y49211355D01*
X-62209805Y49094466D01*
X-62331525Y49276632D01*
X-62538368Y49483475D01*
X-62781589Y49645990D01*
X-63051842Y49757932D01*
X-63338740Y49815000D01*
X-63631260Y49815000D01*
X-63918158Y49757932D01*
X-64188411Y49645990D01*
X-64431632Y49483475D01*
X-64638475Y49276632D01*
X-64800990Y49033411D01*
X-64912932Y48763158D01*
X-64970000Y48476260D01*
X-64970000Y48183740D01*
X-64912932Y47896842D01*
X-64800990Y47626589D01*
X-64638475Y47383368D01*
X-64506620Y47251513D01*
X-64579180Y47229502D01*
X-64689494Y47170537D01*
X-64786185Y47091185D01*
X-64865537Y46994494D01*
X-64924502Y46884180D01*
X-64960812Y46764482D01*
X-64973072Y46640000D01*
X-74803000Y46640000D01*
X-74803000Y60823489D01*
X-3856000Y60823489D01*
X-3856000Y60639311D01*
X-3820068Y60458671D01*
X-3749586Y60288511D01*
X-3647262Y60135372D01*
X-3517028Y60005138D01*
X-3363889Y59902814D01*
X-3193729Y59832332D01*
X-3013089Y59796400D01*
X-2828911Y59796400D01*
X-2648271Y59832332D01*
X-2478111Y59902814D01*
X-2338049Y59996400D01*
X-2208551Y59996400D01*
X-2068489Y59902814D01*
X-1898329Y59832332D01*
X-1717689Y59796400D01*
X-1533511Y59796400D01*
X-1352871Y59832332D01*
X-1182711Y59902814D01*
X-1029572Y60005138D01*
X-899338Y60135372D01*
X-797014Y60288511D01*
X-726532Y60458671D01*
X-690600Y60639311D01*
X-690600Y60823489D01*
X-726532Y61004129D01*
X-797014Y61174289D01*
X-899338Y61327428D01*
X-1029572Y61457662D01*
X-1182711Y61559986D01*
X-1352871Y61630468D01*
X-1533511Y61666400D01*
X-1717689Y61666400D01*
X-1898329Y61630468D01*
X-2068489Y61559986D01*
X-2208551Y61466400D01*
X-2338049Y61466400D01*
X-2478111Y61559986D01*
X-2648271Y61630468D01*
X-2828911Y61666400D01*
X-3013089Y61666400D01*
X-3193729Y61630468D01*
X-3363889Y61559986D01*
X-3517028Y61457662D01*
X-3647262Y61327428D01*
X-3749586Y61174289D01*
X-3820068Y61004129D01*
X-3856000Y60823489D01*
X-74803000Y60823489D01*
X-74803000Y65786000D01*
X-29895524Y65786000D01*
X-29891000Y65740068D01*
X-29891000Y65693911D01*
X-29890999Y65693906D01*
X-29891000Y62322089D01*
X-29891000Y62137911D01*
X-29881995Y62092640D01*
X-29877471Y62046709D01*
X-29864073Y62002541D01*
X-29855068Y61957271D01*
X-29837405Y61914628D01*
X-29824007Y61870461D01*
X-29802250Y61829757D01*
X-29784586Y61787111D01*
X-29758942Y61748732D01*
X-29737186Y61708029D01*
X-29707906Y61672351D01*
X-29682262Y61633972D01*
X-29649624Y61601334D01*
X-29620344Y61565656D01*
X-29584665Y61536375D01*
X-29552028Y61503738D01*
X-29513653Y61478097D01*
X-29477972Y61448814D01*
X-29437264Y61427055D01*
X-29398889Y61401414D01*
X-29356248Y61383752D01*
X-29315540Y61361993D01*
X-29271369Y61348594D01*
X-29228729Y61330932D01*
X-29183462Y61321928D01*
X-29139292Y61308529D01*
X-29093359Y61304005D01*
X-29048089Y61295000D01*
X-29001932Y61295000D01*
X-28956000Y61290476D01*
X-28910068Y61295000D01*
X-28863911Y61295000D01*
X-28818640Y61304005D01*
X-28772709Y61308529D01*
X-28728541Y61321927D01*
X-28683271Y61330932D01*
X-28640628Y61348595D01*
X-28596461Y61361993D01*
X-28555757Y61383750D01*
X-28513111Y61401414D01*
X-28474732Y61427058D01*
X-28434029Y61448814D01*
X-28398351Y61478094D01*
X-28359972Y61503738D01*
X-28327334Y61536376D01*
X-28291656Y61565656D01*
X-28262375Y61601335D01*
X-28229738Y61633972D01*
X-28204097Y61672347D01*
X-28174814Y61708028D01*
X-28153055Y61748736D01*
X-28127414Y61787111D01*
X-28109752Y61829752D01*
X-28087993Y61870460D01*
X-28074594Y61914631D01*
X-28056932Y61957271D01*
X-28047928Y62002538D01*
X-28034529Y62046708D01*
X-28030005Y62092641D01*
X-28021000Y62137911D01*
X-28021000Y64100089D01*
X1732000Y64100089D01*
X1732000Y63915911D01*
X1767932Y63735271D01*
X1838414Y63565111D01*
X1940738Y63411972D01*
X2070972Y63281738D01*
X2224111Y63179414D01*
X2394271Y63108932D01*
X2574911Y63073000D01*
X2759089Y63073000D01*
X2939729Y63108932D01*
X3109889Y63179414D01*
X3249951Y63273000D01*
X5330948Y63273000D01*
X5471010Y63179414D01*
X5641170Y63108932D01*
X5821810Y63073000D01*
X6005988Y63073000D01*
X6186628Y63108932D01*
X6356788Y63179414D01*
X6509927Y63281738D01*
X6640161Y63411972D01*
X6742485Y63565111D01*
X6812967Y63735271D01*
X6848899Y63915911D01*
X6848899Y64100089D01*
X6812967Y64280729D01*
X6742485Y64450889D01*
X6640161Y64604028D01*
X6509927Y64734262D01*
X6356788Y64836586D01*
X6186628Y64907068D01*
X6005988Y64943000D01*
X5821810Y64943000D01*
X5641170Y64907068D01*
X5471010Y64836586D01*
X5330948Y64743000D01*
X3249951Y64743000D01*
X3109889Y64836586D01*
X2939729Y64907068D01*
X2759089Y64943000D01*
X2574911Y64943000D01*
X2394271Y64907068D01*
X2224111Y64836586D01*
X2070972Y64734262D01*
X1940738Y64604028D01*
X1838414Y64450889D01*
X1767932Y64280729D01*
X1732000Y64100089D01*
X-28021000Y64100089D01*
X-28021000Y65740068D01*
X-28016476Y65786000D01*
X-28021000Y65831932D01*
X-28021000Y65878089D01*
X-28030005Y65923359D01*
X-28034529Y65969292D01*
X-28047928Y66013462D01*
X-28049086Y66019288D01*
X1746199Y66019288D01*
X1746199Y65835110D01*
X1782131Y65654470D01*
X1852613Y65484310D01*
X1954937Y65331171D01*
X2085171Y65200937D01*
X2238310Y65098613D01*
X2408470Y65028131D01*
X2589110Y64992199D01*
X2773288Y64992199D01*
X2953928Y65028131D01*
X3124088Y65098613D01*
X3264150Y65192199D01*
X5400248Y65192199D01*
X5540310Y65098613D01*
X5710470Y65028131D01*
X5891110Y64992199D01*
X6075288Y64992199D01*
X6255928Y65028131D01*
X6426088Y65098613D01*
X6579227Y65200937D01*
X6709461Y65331171D01*
X6811785Y65484310D01*
X6882267Y65654470D01*
X6918199Y65835110D01*
X6918199Y66019288D01*
X6882267Y66199928D01*
X6811785Y66370088D01*
X6709461Y66523227D01*
X6579227Y66653461D01*
X6426088Y66755785D01*
X6255928Y66826267D01*
X6075288Y66862199D01*
X5891110Y66862199D01*
X5710470Y66826267D01*
X5540310Y66755785D01*
X5400248Y66662199D01*
X3264150Y66662199D01*
X3124088Y66755785D01*
X2953928Y66826267D01*
X2773288Y66862199D01*
X2589110Y66862199D01*
X2408470Y66826267D01*
X2238310Y66755785D01*
X2085171Y66653461D01*
X1954937Y66523227D01*
X1852613Y66370088D01*
X1782131Y66199928D01*
X1746199Y66019288D01*
X-28049086Y66019288D01*
X-28056932Y66058729D01*
X-28074594Y66101369D01*
X-28087993Y66145540D01*
X-28109752Y66186248D01*
X-28127414Y66228889D01*
X-28153055Y66267264D01*
X-28174814Y66307972D01*
X-28204097Y66343653D01*
X-28229738Y66382028D01*
X-28262375Y66414665D01*
X-28291656Y66450344D01*
X-28327335Y66479625D01*
X-28359972Y66512262D01*
X-28398347Y66537903D01*
X-28434028Y66567186D01*
X-28474736Y66588945D01*
X-28513111Y66614586D01*
X-28555752Y66632248D01*
X-28596460Y66654007D01*
X-28640631Y66667406D01*
X-28683271Y66685068D01*
X-28728538Y66694072D01*
X-28772708Y66707471D01*
X-28818641Y66711995D01*
X-28863911Y66721000D01*
X-28910068Y66721000D01*
X-28956000Y66725524D01*
X-29001932Y66721000D01*
X-29048089Y66721000D01*
X-29093359Y66711995D01*
X-29139292Y66707471D01*
X-29183462Y66694072D01*
X-29228729Y66685068D01*
X-29271369Y66667406D01*
X-29315540Y66654007D01*
X-29356248Y66632248D01*
X-29398889Y66614586D01*
X-29437264Y66588945D01*
X-29477972Y66567186D01*
X-29513653Y66537903D01*
X-29552028Y66512262D01*
X-29584665Y66479625D01*
X-29620344Y66450344D01*
X-29649625Y66414665D01*
X-29682262Y66382028D01*
X-29707903Y66343653D01*
X-29737186Y66307972D01*
X-29758945Y66267264D01*
X-29784586Y66228889D01*
X-29802248Y66186248D01*
X-29824007Y66145540D01*
X-29837406Y66101369D01*
X-29855068Y66058729D01*
X-29864072Y66013462D01*
X-29877471Y65969292D01*
X-29881995Y65923359D01*
X-29891000Y65878089D01*
X-29891000Y65831932D01*
X-29895524Y65786000D01*
X-74803000Y65786000D01*
X-74803000Y69619288D01*
X1673801Y69619288D01*
X1673801Y69435110D01*
X1709733Y69254470D01*
X1780215Y69084310D01*
X1882539Y68931171D01*
X2012773Y68800937D01*
X2165912Y68698613D01*
X2336072Y68628131D01*
X2516712Y68592199D01*
X2700890Y68592199D01*
X2881530Y68628131D01*
X3051690Y68698613D01*
X3191752Y68792199D01*
X5444248Y68792199D01*
X5584310Y68698613D01*
X5754470Y68628131D01*
X5935110Y68592199D01*
X6119288Y68592199D01*
X6299928Y68628131D01*
X6470088Y68698613D01*
X6623227Y68800937D01*
X6753461Y68931171D01*
X6855785Y69084310D01*
X6926267Y69254470D01*
X6962199Y69435110D01*
X6962199Y69619288D01*
X6926267Y69799928D01*
X6855785Y69970088D01*
X6753461Y70123227D01*
X6623227Y70253461D01*
X6470088Y70355785D01*
X6299928Y70426267D01*
X6119288Y70462199D01*
X5935110Y70462199D01*
X5754470Y70426267D01*
X5584310Y70355785D01*
X5444248Y70262199D01*
X3191752Y70262199D01*
X3051690Y70355785D01*
X2881530Y70426267D01*
X2700890Y70462199D01*
X2516712Y70462199D01*
X2336072Y70426267D01*
X2165912Y70355785D01*
X2012773Y70253461D01*
X1882539Y70123227D01*
X1780215Y69970088D01*
X1709733Y69799928D01*
X1673801Y69619288D01*
X-74803000Y69619288D01*
X-74803000Y74704589D01*
X-1189000Y74704589D01*
X-1189000Y74520411D01*
X-1153068Y74339771D01*
X-1082586Y74169611D01*
X-989000Y74029549D01*
X-988999Y72782452D01*
X-1082586Y72642389D01*
X-1153068Y72472229D01*
X-1189000Y72291589D01*
X-1189000Y72107411D01*
X-1153068Y71926771D01*
X-1082586Y71756611D01*
X-980262Y71603472D01*
X-850028Y71473238D01*
X-696889Y71370914D01*
X-526729Y71300432D01*
X-346089Y71264500D01*
X-161911Y71264500D01*
X18729Y71300432D01*
X127000Y71345279D01*
X235271Y71300432D01*
X415911Y71264500D01*
X600089Y71264500D01*
X780729Y71300432D01*
X950889Y71370914D01*
X1104028Y71473238D01*
X1234262Y71603472D01*
X1336586Y71756611D01*
X1407068Y71926771D01*
X1443000Y72107411D01*
X1443000Y72291589D01*
X1407068Y72472229D01*
X1336586Y72642389D01*
X1243000Y72782451D01*
X1243000Y74029549D01*
X1336586Y74169611D01*
X1407068Y74339771D01*
X1443000Y74520411D01*
X1443000Y74704589D01*
X1407068Y74885229D01*
X1336586Y75055389D01*
X1234262Y75208528D01*
X1104028Y75338762D01*
X950889Y75441086D01*
X780729Y75511568D01*
X600089Y75547500D01*
X415911Y75547500D01*
X235271Y75511568D01*
X127000Y75466721D01*
X18729Y75511568D01*
X-161911Y75547500D01*
X-346089Y75547500D01*
X-526729Y75511568D01*
X-696889Y75441086D01*
X-850028Y75338762D01*
X-980262Y75208528D01*
X-1082586Y75055389D01*
X-1153068Y74885229D01*
X-1189000Y74704589D01*
X-74803000Y74704589D01*
X-74803000Y76673089D01*
X8717000Y76673089D01*
X8717000Y76488911D01*
X8752932Y76308271D01*
X8823414Y76138111D01*
X8917001Y75998048D01*
X8917000Y75004951D01*
X8823414Y74864889D01*
X8752932Y74694729D01*
X8717000Y74514089D01*
X8717000Y74329911D01*
X8752932Y74149271D01*
X8823414Y73979111D01*
X8925738Y73825972D01*
X9055972Y73695738D01*
X9209111Y73593414D01*
X9379271Y73522932D01*
X9559911Y73487000D01*
X9744089Y73487000D01*
X9924729Y73522932D01*
X10094889Y73593414D01*
X10248028Y73695738D01*
X10378262Y73825972D01*
X10480586Y73979111D01*
X10551068Y74149271D01*
X10587000Y74329911D01*
X10587000Y74514089D01*
X10551068Y74694729D01*
X10480586Y74864889D01*
X10387000Y75004951D01*
X10387000Y75998049D01*
X10480586Y76138111D01*
X10551068Y76308271D01*
X10587000Y76488911D01*
X10587000Y76673089D01*
X10551068Y76853729D01*
X10480586Y77023889D01*
X10378262Y77177028D01*
X10248028Y77307262D01*
X10094889Y77409586D01*
X9924729Y77480068D01*
X9744089Y77516000D01*
X9559911Y77516000D01*
X9379271Y77480068D01*
X9209111Y77409586D01*
X9055972Y77307262D01*
X8925738Y77177028D01*
X8823414Y77023889D01*
X8752932Y76853729D01*
X8717000Y76673089D01*
X-74803000Y76673089D01*
X-74803000Y82583929D01*
X-54255000Y82583929D01*
X-54255000Y82399751D01*
X-54219068Y82219111D01*
X-54148586Y82048951D01*
X-54055000Y81908889D01*
X-54054999Y80104952D01*
X-54148586Y79964889D01*
X-54219068Y79794729D01*
X-54255000Y79614089D01*
X-54255000Y79429911D01*
X-54219068Y79249271D01*
X-54148586Y79079111D01*
X-54046262Y78925972D01*
X-53916028Y78795738D01*
X-53762889Y78693414D01*
X-53592729Y78622932D01*
X-53412089Y78587000D01*
X-53227911Y78587000D01*
X-53047271Y78622932D01*
X-52877111Y78693414D01*
X-52723972Y78795738D01*
X-52593738Y78925972D01*
X-52491414Y79079111D01*
X-52420932Y79249271D01*
X-52385000Y79429911D01*
X-52385000Y79614089D01*
X-52420932Y79794729D01*
X-52491414Y79964889D01*
X-52585000Y80104951D01*
X-52585000Y81908889D01*
X-52491414Y82048951D01*
X-52420932Y82219111D01*
X-52385000Y82399751D01*
X-52385000Y82583929D01*
X-52420932Y82764569D01*
X-52491414Y82934729D01*
X-52593738Y83087868D01*
X-52723972Y83218102D01*
X-52877111Y83320426D01*
X-53047271Y83390908D01*
X-53227911Y83426840D01*
X-53412089Y83426840D01*
X-53592729Y83390908D01*
X-53762889Y83320426D01*
X-53916028Y83218102D01*
X-54046262Y83087868D01*
X-54148586Y82934729D01*
X-54219068Y82764569D01*
X-54255000Y82583929D01*
X-74803000Y82583929D01*
X-74803000Y86456971D01*
X-36040700Y86456971D01*
X-36040700Y85839429D01*
X-35920224Y85233754D01*
X-35683901Y84663221D01*
X-35340814Y84149754D01*
X-34904146Y83713086D01*
X-34390679Y83369999D01*
X-33820146Y83133676D01*
X-33214471Y83013200D01*
X-32596929Y83013200D01*
X-31991254Y83133676D01*
X-31420721Y83369999D01*
X-30907254Y83713086D01*
X-30470586Y84149754D01*
X-30127499Y84663221D01*
X-29891176Y85233754D01*
X-29770700Y85839429D01*
X-29770700Y86456971D01*
X-29891176Y87062646D01*
X-30127499Y87633179D01*
X-30470586Y88146646D01*
X-30907254Y88583314D01*
X-31420721Y88926401D01*
X-31991254Y89162724D01*
X-32596929Y89283200D01*
X-33214471Y89283200D01*
X-33820146Y89162724D01*
X-34390679Y88926401D01*
X-34904146Y88583314D01*
X-35340814Y88146646D01*
X-35683901Y87633179D01*
X-35920224Y87062646D01*
X-36040700Y86456971D01*
X-74803000Y86456971D01*
X-74803000Y89780000D01*
X-64973072Y89780000D01*
X-64973072Y88080000D01*
X-64960812Y87955518D01*
X-64924502Y87835820D01*
X-64865537Y87725506D01*
X-64786185Y87628815D01*
X-64689494Y87549463D01*
X-64579180Y87490498D01*
X-64459482Y87454188D01*
X-64335000Y87441928D01*
X-62635000Y87441928D01*
X-62510518Y87454188D01*
X-62390820Y87490498D01*
X-62280506Y87549463D01*
X-62183815Y87628815D01*
X-62104463Y87725506D01*
X-62045498Y87835820D01*
X-62023487Y87908380D01*
X-61891632Y87776525D01*
X-61648411Y87614010D01*
X-61378158Y87502068D01*
X-61091260Y87445000D01*
X-60798740Y87445000D01*
X-60511842Y87502068D01*
X-60241589Y87614010D01*
X-59998368Y87776525D01*
X-59791525Y87983368D01*
X-59675000Y88157760D01*
X-59558475Y87983368D01*
X-59351632Y87776525D01*
X-59108411Y87614010D01*
X-58838158Y87502068D01*
X-58551260Y87445000D01*
X-58258740Y87445000D01*
X-57971842Y87502068D01*
X-57701589Y87614010D01*
X-57458368Y87776525D01*
X-57251525Y87983368D01*
X-57135000Y88157760D01*
X-57018475Y87983368D01*
X-56811632Y87776525D01*
X-56568411Y87614010D01*
X-56298158Y87502068D01*
X-56011260Y87445000D01*
X-55718740Y87445000D01*
X-55431842Y87502068D01*
X-55161589Y87614010D01*
X-54918368Y87776525D01*
X-54711525Y87983368D01*
X-54595000Y88157760D01*
X-54478475Y87983368D01*
X-54271632Y87776525D01*
X-54028411Y87614010D01*
X-53758158Y87502068D01*
X-53471260Y87445000D01*
X-53178740Y87445000D01*
X-52891842Y87502068D01*
X-52621589Y87614010D01*
X-52378368Y87776525D01*
X-52171525Y87983368D01*
X-52055000Y88157760D01*
X-51938475Y87983368D01*
X-51731632Y87776525D01*
X-51488411Y87614010D01*
X-51218158Y87502068D01*
X-50931260Y87445000D01*
X-50638740Y87445000D01*
X-50351842Y87502068D01*
X-50081589Y87614010D01*
X-49838368Y87776525D01*
X-49631525Y87983368D01*
X-49515000Y88157760D01*
X-49398475Y87983368D01*
X-49191632Y87776525D01*
X-48948411Y87614010D01*
X-48678158Y87502068D01*
X-48391260Y87445000D01*
X-48098740Y87445000D01*
X-47811842Y87502068D01*
X-47541589Y87614010D01*
X-47298368Y87776525D01*
X-47091525Y87983368D01*
X-46975000Y88157760D01*
X-46858475Y87983368D01*
X-46651632Y87776525D01*
X-46408411Y87614010D01*
X-46138158Y87502068D01*
X-45851260Y87445000D01*
X-45558740Y87445000D01*
X-45271842Y87502068D01*
X-45001589Y87614010D01*
X-44758368Y87776525D01*
X-44551525Y87983368D01*
X-44435000Y88157760D01*
X-44318475Y87983368D01*
X-44111632Y87776525D01*
X-43868411Y87614010D01*
X-43598158Y87502068D01*
X-43311260Y87445000D01*
X-43018740Y87445000D01*
X-42731842Y87502068D01*
X-42461589Y87614010D01*
X-42218368Y87776525D01*
X-42011525Y87983368D01*
X-41895000Y88157760D01*
X-41778475Y87983368D01*
X-41571632Y87776525D01*
X-41328411Y87614010D01*
X-41058158Y87502068D01*
X-40771260Y87445000D01*
X-40478740Y87445000D01*
X-40191842Y87502068D01*
X-39921589Y87614010D01*
X-39678368Y87776525D01*
X-39471525Y87983368D01*
X-39309010Y88226589D01*
X-39197068Y88496842D01*
X-39140000Y88783740D01*
X-39140000Y89076260D01*
X-39197068Y89363158D01*
X-39309010Y89633411D01*
X-39471525Y89876632D01*
X-39678368Y90083475D01*
X-39852760Y90200000D01*
X-39678368Y90316525D01*
X-39471525Y90523368D01*
X-39309010Y90766589D01*
X-39197068Y91036842D01*
X-39140000Y91323740D01*
X-39140000Y91616260D01*
X-39197068Y91903158D01*
X-39309010Y92173411D01*
X-39471525Y92416632D01*
X-39678368Y92623475D01*
X-39921589Y92785990D01*
X-40191842Y92897932D01*
X-40478740Y92955000D01*
X-40771260Y92955000D01*
X-41058158Y92897932D01*
X-41328411Y92785990D01*
X-41571632Y92623475D01*
X-41778475Y92416632D01*
X-41895000Y92242240D01*
X-42011525Y92416632D01*
X-42218368Y92623475D01*
X-42461589Y92785990D01*
X-42731842Y92897932D01*
X-43018740Y92955000D01*
X-43311260Y92955000D01*
X-43598158Y92897932D01*
X-43868411Y92785990D01*
X-44111632Y92623475D01*
X-44318475Y92416632D01*
X-44435000Y92242240D01*
X-44551525Y92416632D01*
X-44758368Y92623475D01*
X-45001589Y92785990D01*
X-45271842Y92897932D01*
X-45558740Y92955000D01*
X-45851260Y92955000D01*
X-46138158Y92897932D01*
X-46408411Y92785990D01*
X-46651632Y92623475D01*
X-46858475Y92416632D01*
X-46975000Y92242240D01*
X-47091525Y92416632D01*
X-47298368Y92623475D01*
X-47541589Y92785990D01*
X-47811842Y92897932D01*
X-48098740Y92955000D01*
X-48391260Y92955000D01*
X-48678158Y92897932D01*
X-48948411Y92785990D01*
X-49191632Y92623475D01*
X-49398475Y92416632D01*
X-49515000Y92242240D01*
X-49631525Y92416632D01*
X-49838368Y92623475D01*
X-50081589Y92785990D01*
X-50351842Y92897932D01*
X-50638740Y92955000D01*
X-50931260Y92955000D01*
X-51218158Y92897932D01*
X-51488411Y92785990D01*
X-51731632Y92623475D01*
X-51938475Y92416632D01*
X-52055000Y92242240D01*
X-52171525Y92416632D01*
X-52378368Y92623475D01*
X-52621589Y92785990D01*
X-52891842Y92897932D01*
X-53178740Y92955000D01*
X-53471260Y92955000D01*
X-53758158Y92897932D01*
X-54028411Y92785990D01*
X-54271632Y92623475D01*
X-54478475Y92416632D01*
X-54595000Y92242240D01*
X-54711525Y92416632D01*
X-54918368Y92623475D01*
X-55161589Y92785990D01*
X-55431842Y92897932D01*
X-55718740Y92955000D01*
X-56011260Y92955000D01*
X-56298158Y92897932D01*
X-56568411Y92785990D01*
X-56811632Y92623475D01*
X-57018475Y92416632D01*
X-57135000Y92242240D01*
X-57251525Y92416632D01*
X-57458368Y92623475D01*
X-57701589Y92785990D01*
X-57971842Y92897932D01*
X-58258740Y92955000D01*
X-58551260Y92955000D01*
X-58838158Y92897932D01*
X-59108411Y92785990D01*
X-59351632Y92623475D01*
X-59558475Y92416632D01*
X-59675000Y92242240D01*
X-59791525Y92416632D01*
X-59998368Y92623475D01*
X-60241589Y92785990D01*
X-60511842Y92897932D01*
X-60798740Y92955000D01*
X-61091260Y92955000D01*
X-61378158Y92897932D01*
X-61648411Y92785990D01*
X-61891632Y92623475D01*
X-62098475Y92416632D01*
X-62220195Y92234466D01*
X-62289822Y92351355D01*
X-62484731Y92567588D01*
X-62718080Y92741641D01*
X-62980901Y92866825D01*
X-63128110Y92911476D01*
X-63358000Y92790155D01*
X-63358000Y91597000D01*
X-63338000Y91597000D01*
X-63338000Y91343000D01*
X-63358000Y91343000D01*
X-63358000Y91323000D01*
X-63612000Y91323000D01*
X-63612000Y91343000D01*
X-64805814Y91343000D01*
X-64926481Y91113109D01*
X-64829157Y90838748D01*
X-64680178Y90588645D01*
X-64503374Y90392498D01*
X-64579180Y90369502D01*
X-64689494Y90310537D01*
X-64786185Y90231185D01*
X-64865537Y90134494D01*
X-64924502Y90024180D01*
X-64960812Y89904482D01*
X-64973072Y89780000D01*
X-74803000Y89780000D01*
X-74803000Y91826891D01*
X-64926481Y91826891D01*
X-64805814Y91597000D01*
X-63612000Y91597000D01*
X-63612000Y92790155D01*
X-63841890Y92911476D01*
X-63989099Y92866825D01*
X-64251920Y92741641D01*
X-64485269Y92567588D01*
X-64680178Y92351355D01*
X-64829157Y92101252D01*
X-64926481Y91826891D01*
X-74803000Y91826891D01*
X-74803000Y101203200D01*
X-73054252Y101203200D01*
X-73054252Y100716800D01*
X-72959360Y100239746D01*
X-72773223Y99790370D01*
X-72502994Y99385943D01*
X-72159057Y99042006D01*
X-71754630Y98771777D01*
X-71305254Y98585640D01*
X-70828200Y98490748D01*
X-70341800Y98490748D01*
X-69864746Y98585640D01*
X-69415370Y98771777D01*
X-69010943Y99042006D01*
X-68667006Y99385943D01*
X-68396777Y99790370D01*
X-68210640Y100239746D01*
X-68115748Y100716800D01*
X-68115748Y101203200D01*
X12235748Y101203200D01*
X12235748Y100716800D01*
X12330640Y100239746D01*
X12516777Y99790370D01*
X12787006Y99385943D01*
X13130943Y99042006D01*
X13535370Y98771777D01*
X13984746Y98585640D01*
X14461800Y98490748D01*
X14948200Y98490748D01*
X15425254Y98585640D01*
X15874630Y98771777D01*
X16279057Y99042006D01*
X16622994Y99385943D01*
X16893223Y99790370D01*
X17079360Y100239746D01*
X17174252Y100716800D01*
X17174252Y101203200D01*
X17079360Y101680254D01*
X16893223Y102129630D01*
X16622994Y102534057D01*
X16279057Y102877994D01*
X15874630Y103148223D01*
X15425254Y103334360D01*
X14948200Y103429252D01*
X14461800Y103429252D01*
X13984746Y103334360D01*
X13535370Y103148223D01*
X13130943Y102877994D01*
X12787006Y102534057D01*
X12516777Y102129630D01*
X12330640Y101680254D01*
X12235748Y101203200D01*
X-68115748Y101203200D01*
X-68210640Y101680254D01*
X-68396777Y102129630D01*
X-68667006Y102534057D01*
X-69010943Y102877994D01*
X-69415370Y103148223D01*
X-69864746Y103334360D01*
X-70341800Y103429252D01*
X-70828200Y103429252D01*
X-71305254Y103334360D01*
X-71754630Y103148223D01*
X-72159057Y102877994D01*
X-72502994Y102534057D01*
X-72773223Y102129630D01*
X-72959360Y101680254D01*
X-73054252Y101203200D01*
X-74803000Y101203200D01*
X-74803000Y109093000D01*
X-71384822Y109093000D01*
X-71825392Y109005365D01*
G37*
G04 #@! TD.AperFunction*
M02*
