G04 #@! TF.GenerationSoftware,KiCad,Pcbnew,(5.1.9)-1*
G04 #@! TF.CreationDate,2021-04-08T22:59:59+09:00*
G04 #@! TF.ProjectId,EA1176_TiGANBoard,45413131-3736-45f5-9469-47414e426f61,rev?*
G04 #@! TF.SameCoordinates,Original*
G04 #@! TF.FileFunction,Legend,Bot*
G04 #@! TF.FilePolarity,Positive*
%FSLAX46Y46*%
G04 Gerber Fmt 4.6, Leading zero omitted, Abs format (unit mm)*
G04 Created by KiCad (PCBNEW (5.1.9)-1) date 2021-04-08 22:59:59*
%MOMM*%
%LPD*%
G01*
G04 APERTURE LIST*
%ADD10C,0.152400*%
G04 APERTURE END LIST*
D10*
X12418180Y21730304D02*
X12689114Y22117352D01*
X12882638Y21730304D02*
X12882638Y22543104D01*
X12573000Y22543104D01*
X12495590Y22504400D01*
X12456885Y22465695D01*
X12418180Y22388285D01*
X12418180Y22272171D01*
X12456885Y22194761D01*
X12495590Y22156057D01*
X12573000Y22117352D01*
X12882638Y22117352D01*
X11760200Y21769009D02*
X11837609Y21730304D01*
X11992428Y21730304D01*
X12069838Y21769009D01*
X12108542Y21846419D01*
X12108542Y22156057D01*
X12069838Y22233466D01*
X11992428Y22272171D01*
X11837609Y22272171D01*
X11760200Y22233466D01*
X11721495Y22156057D01*
X11721495Y22078647D01*
X12108542Y22001238D01*
X11450561Y22272171D02*
X11257038Y21730304D01*
X11063514Y22272171D01*
X10753876Y21807714D02*
X10715171Y21769009D01*
X10753876Y21730304D01*
X10792580Y21769009D01*
X10753876Y21807714D01*
X10753876Y21730304D01*
X9321800Y21730304D02*
X9786257Y21730304D01*
X9554028Y21730304D02*
X9554028Y22543104D01*
X9631438Y22426990D01*
X9708847Y22349580D01*
X9786257Y22310876D01*
X8973457Y21807714D02*
X8934752Y21769009D01*
X8973457Y21730304D01*
X9012161Y21769009D01*
X8973457Y21807714D01*
X8973457Y21730304D01*
X8431590Y22543104D02*
X8354180Y22543104D01*
X8276771Y22504400D01*
X8238066Y22465695D01*
X8199361Y22388285D01*
X8160657Y22233466D01*
X8160657Y22039942D01*
X8199361Y21885123D01*
X8238066Y21807714D01*
X8276771Y21769009D01*
X8354180Y21730304D01*
X8431590Y21730304D01*
X8509000Y21769009D01*
X8547704Y21807714D01*
X8586409Y21885123D01*
X8625114Y22039942D01*
X8625114Y22233466D01*
X8586409Y22388285D01*
X8547704Y22465695D01*
X8509000Y22504400D01*
X8431590Y22543104D01*
X5051300Y87304700D02*
G75*
G03*
X5051300Y87304700I-381000J0D01*
G01*
X5051300Y76293800D02*
G75*
G03*
X5051300Y76293800I-381000J0D01*
G01*
X-34064700Y59364700D02*
G75*
G03*
X-34064700Y59364700I-381000J0D01*
G01*
X-34064700Y82389800D02*
G75*
G03*
X-34064700Y82389800I-381000J0D01*
G01*
M02*
